<mxfile host="Electron" modified="2023-05-08T02:19:16.421Z" agent="Mozilla/5.0 (Windows NT 10.0; Win64; x64) AppleWebKit/537.36 (KHTML, like Gecko) draw.io/21.1.2 Chrome/106.0.5249.199 Electron/21.4.3 Safari/537.36" etag="EmcbA5yc2Hifjuzugyan" version="21.1.2" type="device">
  <diagram name="Page-1" id="j-5L5Xo5aonyZbf3SgEs">
    <mxGraphModel dx="2840" dy="1653" grid="1" gridSize="10" guides="1" tooltips="1" connect="1" arrows="1" fold="1" page="1" pageScale="1" pageWidth="850" pageHeight="1100" math="0" shadow="0">
      <root>
        <mxCell id="0" />
        <mxCell id="1" parent="0" />
        <mxCell id="W9lq88Oc5fSQwS-0R-QA-27" style="edgeStyle=orthogonalEdgeStyle;rounded=0;orthogonalLoop=1;jettySize=auto;html=1;exitX=1;exitY=0.5;exitDx=0;exitDy=0;entryX=0;entryY=0.5;entryDx=0;entryDy=0;strokeWidth=5.5;" parent="1" edge="1">
          <mxGeometry relative="1" as="geometry">
            <mxPoint x="430" y="220.00000000000023" as="sourcePoint" />
            <mxPoint x="490" y="220.00000000000023" as="targetPoint" />
          </mxGeometry>
        </mxCell>
        <mxCell id="W9lq88Oc5fSQwS-0R-QA-28" style="edgeStyle=orthogonalEdgeStyle;rounded=0;orthogonalLoop=1;jettySize=auto;html=1;entryX=0;entryY=0.5;entryDx=0;entryDy=0;strokeWidth=5.5;" parent="1" edge="1">
          <mxGeometry relative="1" as="geometry">
            <mxPoint x="890" y="220.00000000000023" as="sourcePoint" />
            <mxPoint x="950" y="220.00000000000023" as="targetPoint" />
          </mxGeometry>
        </mxCell>
        <mxCell id="W9lq88Oc5fSQwS-0R-QA-37" style="edgeStyle=orthogonalEdgeStyle;rounded=0;orthogonalLoop=1;jettySize=auto;html=1;exitX=0.5;exitY=1;exitDx=0;exitDy=0;entryX=0.5;entryY=0;entryDx=0;entryDy=0;strokeWidth=5.5;" parent="1" edge="1">
          <mxGeometry relative="1" as="geometry">
            <mxPoint x="1150" y="420" as="sourcePoint" />
            <mxPoint x="230" y="480" as="targetPoint" />
            <Array as="points">
              <mxPoint x="1150" y="450" />
              <mxPoint x="230" y="450" />
            </Array>
          </mxGeometry>
        </mxCell>
        <mxCell id="W9lq88Oc5fSQwS-0R-QA-29" style="edgeStyle=orthogonalEdgeStyle;rounded=0;orthogonalLoop=1;jettySize=auto;html=1;exitX=1;exitY=0.5;exitDx=0;exitDy=0;entryX=0;entryY=0.5;entryDx=0;entryDy=0;strokeWidth=5.5;" parent="1" edge="1">
          <mxGeometry relative="1" as="geometry">
            <mxPoint x="430" y="680" as="sourcePoint" />
            <mxPoint x="490" y="680" as="targetPoint" />
          </mxGeometry>
        </mxCell>
        <mxCell id="W9lq88Oc5fSQwS-0R-QA-30" style="edgeStyle=orthogonalEdgeStyle;rounded=0;orthogonalLoop=1;jettySize=auto;html=1;exitX=1;exitY=0.5;exitDx=0;exitDy=0;entryX=0;entryY=0.5;entryDx=0;entryDy=0;strokeWidth=5.5;" parent="1" edge="1">
          <mxGeometry relative="1" as="geometry">
            <mxPoint x="890" y="680" as="sourcePoint" />
            <mxPoint x="950" y="680" as="targetPoint" />
          </mxGeometry>
        </mxCell>
        <mxCell id="ftl8LwkWCeDw0nH-mkyN-7" value="" style="shape=image;verticalLabelPosition=bottom;labelBackgroundColor=default;verticalAlign=top;aspect=fixed;imageAspect=0;image=data:image/jpeg,/9j/4AAQSkZJRgABAQAAAQABAAD/4gHYSUNDX1BST0ZJTEUAAQEAAAHIAAAAAAQwAABtbnRyUkdCIFhZWiAH4AABAAEAAAAAAABhY3NwAAAAAAAAAAAAAAAAAAAAAAAAAAAAAAAAAAAAAQAA9tYAAQAAAADTLQAAAAAAAAAAAAAAAAAAAAAAAAAAAAAAAAAAAAAAAAAAAAAAAAAAAAAAAAAAAAAAAAAAAAlkZXNjAAAA8AAAACRyWFlaAAABFAAAABRnWFlaAAABKAAAABRiWFlaAAABPAAAABR3dHB0AAABUAAAABRyVFJDAAABZAAAAChnVFJDAAABZAAAAChiVFJDAAABZAAAAChjcHJ0AAABjAAAADxtbHVjAAAAAAAAAAEAAAAMZW5VUwAAAAgAAAAcAHMAUgBHAEJYWVogAAAAAAAAb6IAADj1AAADkFhZWiAAAAAAAABimQAAt4UAABjaWFlaIAAAAAAAACSgAAAPhAAAts9YWVogAAAAAAAA9tYAAQAAAADTLXBhcmEAAAAAAAQAAAACZmYAAPKnAAANWQAAE9AAAApbAAAAAAAAAABtbHVjAAAAAAAAAAEAAAAMZW5VUwAAACAAAAAcAEcAbwBvAGcAbABlACAASQBuAGMALgAgADIAMAAxADb/2wBDAAMCAgMCAgMDAwMEAwMEBQgFBQQEBQoHBwYIDAoMDAsKCwsNDhIQDQ4RDgsLEBYQERMUFRUVDA8XGBYUGBIUFRT/2wBDAQMEBAUEBQkFBQkUDQsNFBQUFBQUFBQUFBQUFBQUFBQUFBQUFBQUFBQUFBQUFBQUFBQUFBQUFBQUFBQUFBQUFBT/wAARCAGQAZADASIAAhEBAxEB/8QAHQAAAgIDAQEBAAAAAAAAAAAAAAIBBQMEBgcICf/EAGIQAAECAwMHBQoJBggKCAcAAAABAwIEBQYRMQcSExQVIVEjMjNBgQgWIjVScZGhscElNFNVYWNloqUXJkJDRXIYJDZUVoKDkgk3YmR0dZSV0eEnRHOjpLLC8DhXk7PS4/H/xAAbAQEBAAMBAQEAAAAAAAAAAAAAAQIDBAUGB//EAC8RAQACAgEEAQMEAAYDAQAAAAABEQIDEgQTIVExBRRhFSJBUgYjMkKBkXGh4bH/2gAMAwEAAhEDEQA/APrlcTO1U9XbRvga4yYHmPQbOm1jlOIq4mEAlIc56gmBIBSriSmBIFtKAABCiriSmBIBQAAAAAAKuJKYEgACriMACDJgSACriQOAEJgSAAY4+coJgMuJAAAAFoAABCriQSuJBbAAARbKuIyYAALKuIAuIEosCriMAtSCriOuJBSkJgQuILiQFKuIyYAKuJLAuIAAsb6YELiMBWCEwJAAAAGTABQGFXEAAZMAAUAXEZMAFAFxAAABkwAUAXEAAAAAAAAAAVcQGAhMCQFXEglcSAABkwIXELaAAZMAjGuJBkXERcQIAZMCSWEAlcSChVxAYCWMa4kGUVcSLZAJXElMC2WxriQZFxEXEWWgVcRhkwIrGA64iLiEtYABYymoavBpqjoHd97ep6S7f5XWZIrgLuDZeanwv/3ej+71DfBfzuEtSJgKuJtzei1iPQvadrdc5x3GEKxDJgW8lsHVoNd13Wd+foubjuu7LjZTvYu/aIHPiridAvexf+0SvmtV08WpaTVt2Zpedhvv7bwK8ZMBnOepjXEAXEAABkwFXEZMBVxAZMAFCT+OL/76gBcQL9KnIS6I29TtO6mLnEhazTL/ABQWhQgXa1lq/kaRJaPq0vO7SsnHtYmI3NC2xfdybXNTd1EGuALiAABru1PV3Fb4CbZC02wEae1htHOJK4ktDAQmBlkZvZ80rxRjGTAunLaT8Uaqz0XUY1tlU7/GOg+r4FoU64iriXC2yqd/jcrpqcdqD8Uw89p3Y7r3ONyXe4g1wJXEglAFXEYChAJXEgxAAq4jSU3P0+bV5not1xaDJgSW8VtKpFFftHQfV8DGtsqnf43FCoj5yiLiXXflU/ncrZycdqExHMPPad2O69zjcl3uINYVcR1xEXEtLaAACI3hkwFGTAyCriAwBKCYAABQAAAAAAAAAAAAAAMmBIGJcQHXEgATAVcRgLYUAXEZMCBQGFXEDhMqNTn5elONs9FCm48gyd1mqbfX94+hLRym0JFWfoONoNntVqSteSvt3hk7+TedmJZtx7pVTebCYCtM6u3C3wQclMQAAUAABbAAAQKuJA4q4ksQAAUKuJA4q4mIgBkwIXEyCLiAwAKKuJkMcfOUxCLiQOZIOahktMAGSPnKIuJKKboyYAmAFQAAAACriMmAWgAAEAAAAAAAAMmBC4gQADJgAoDiriSxAAAsAq4jAUCYAAAa9R+LlBKfHIvOX1c8Vp2nGUOp6vVIm+CoFt3TXRwjBptYRHOKAGNlXEC+sx8bh+DtPv6Tidm9TNmLN1HUNPrkKJqvC6FIfXdf2mfEt5cBmnGdXmnYNS2dvv1byL9/rvv7TCYFgAAlqVcSBxVxIJTAhcSBkwLYUVcR1xIFBBkwJGTAWBMDE5z1N5ro0MLvSKLGmuI8HNQePnKY1xIGMcfOUYZMDJkxGSDmoJHzlHg5qAtsgdBtlr9TSKdouoVaxv8AFFOJbFQjJgXyWs1dNHsinbg78/sinE5CgXElMC+78/sinDJbPd4opxbW3PLiQdH35/ZFOFW2W/oqcx9XwFooEwJLtbZb/wBnEpbGfu5HZ2i6hYoVxJTAvu/KqJ8n/Y83sFW2dTvKKQC7786mZILZ1PNQlpbnlxJTAvY7Z1POURbZ1O8qqhMDLBTNYhRzib62yqd/jHQfV8CO/Kp/O5KGolGn7uR6LqHSj1O4yR1+qTESubXxEWsVS/ptP9ZxII2NVPm7T/WcRko1Uu8UC7YqZjjrFTzlMhspZSqTCaTZGI6WNqd3ig0FedmF0j3SriIuIE16x1otlzSM0nk83d6D4/hsba/8vVN07OgktoNZrfDk4b/XefTts/E05+77j4ikP/iEp3+sGv8A7cBlQ/RWGxlR8LM5udF7VFjsu7T4lee6XrOdTGL95faZIOahilOzkYp+KVgVnUtFvu03Ox6y0dWHUpP4Qp0vUUVc+Dh4S3eq488TADPkU7Ku2ZfqFUemJmr07TxpDndkKInqRCqcsZ4a/C9OKIDXMlLvvM+16cKtA1ddHtenbimAUq6Sj7vG9OJ709Y5Ta9O3lEuIChe95n2vTg2Bq/J7Xp24pEwFXEgvdj/AGvThVsnrC6Ta9O3lIBbF4ljN3jenDpYzd43pxzy4kEWnQrYzf43pxGwNX5Pa9O3HPiriCnRbH+16cY47J6zErm16d4RRJgQuIKXa2N39LTn/rOJHeb/AKu/2zR/d6ikMcfOUtqu47HT+cuh2dourlNJ97rI7zaovyf9jzewpkwIXEWlMK1lq/kei6ihqdZ/jzvZ7EOZg7lDKmsKaa1FOYc62+Aydx/lOf8AD77advM+DC1k7WeUUxLayQl10b3Spia8HccZQM1NNa2n6Tr3E/wOLd/0tp3oMOBbagtA1MQo4z0S4FxRqz4UJQw9x1bpIU/P6nsfV3LuM0HccW7WFF/KJTv9iz/vdZeJbsnqzIaRdN0u6/0EwVimZqHHfwN7d/8AzEp3+7zM33G9rcxNNlDb0vXoqf4PYOK26paxTLxkrFMuOXTuN7UXf4w/w8ZO43tRd/jD/DzLgW6hKxTLjZaeamG0cZ6JcDkU7jes3ctlD5Xr+Dy3ovc+1uwKwzT9qdqyUG+GHR6O/j4PVvvFJa8TADJG7C9FnwQ5sOF3m3EGFLRAJXElMCqxria7vSKba4ms70igZWeihHBnooSVxJQgZMATAkoVcSCVxIA5XKJMTExZ6blZL4zDCvrS8+KqFRKpDlqpiRK7VqnpPDkpPnS3kq59CpcvmU+8apKbQaVkLI2WpNk3Jip/tKbTw+zcnqRC2M1PkZynyTL1QRpJvN8NGeanBPPddf8ATebGsa1yvle7cLFFFHEsUfOVVUZMDGwq4gMBQpjj5ymRcRVxJQIOagxCYElAKuJkTA5PKLp+9+b1LXdZzV6Hm4dQF69UpCXdibe6VMTDO1ml6oh43kn7my2GVmyU5UJq1rlClYnI1hgek8+OHNiVF8Lrwv7Tt4O4mtBMwQuS+UrWGVREhcWn43bl9aKZcUtmatZS5eoxt8FT2HRNV+lzDcLnE41/uDKxMOxOPZROVXH4P/8A2p7DI13DNopeBG2conJJhyeZ92+K70mPFjydhtimGOerNL1VDlF7h61F/wDjEk/7WT0kXbF1iL3GNtpddGzlEp2iTD4PMuC80Va1jUu3E2z0SYHMMZRZCXn4m3ulS6/0F6/3FFun3Yo1yh0/fwZWD7vUab3cQW6Vxf8ApEp/oUcDm20tM1UESYZ6KPDs3e4ywVnwUKyV7jLKTLziwM2zpz7SXXOcTdmO46ynK9F+dtP6ur6BwXk6Om1mQ1JvTdJvv9KlozWKZooTz5zuOcp2ev5204E7jjKdd/K2nGPFeT0JaxTLyNsUw8zmO44yuaaLQ12mvt9TnEroe44yxbSj+F6ddu39iDicn2GuUul3kflLpZ50BlzSnoa5S2r+Rp2na6nOIq5S9/ig4BMCTHkU738pf2QH5S/sg4IByKdzFlL8Jfggj8pf2QcOA5FO2XKXv8UEflL+yDigMuZTtfyl/ZBW1e1u14IodDoL/wBXwOcAx5FDNzdwyYCgFSuJAASwyYELiQBQCriMAEJgSAAAq4jAAgyYELiQA4q4kAYgAAMgAAEsAAAsBlkZvZ80rxgXEBY7GXyjaFmGDZ2nu/WcTMmUvd4oOIAy5JTuPyl/ZAyZS93ig4NcSUwJyY8Xd/lL+yA/KX9kHBriQZczi738pf2QMmUvd4oOAAczi9A/KX9kDJlKkLuWpPK9Z56KuI5rT0T8pdL+R0H1fAZMpdLuPNlxGTAx5LT0j8pdLGTKXS7jzGPnKSmA5Iu9jVT5oDY1U+aB9s1T53DbFU+W0/1nElMjt0aqZifBA2xqp80GBaxU7yNsu/rul6xQ2NjVT5oGSylUmE0myMTTWs7xVrO8ULFLG1O7xQMljqnd4oKlXtYXScSBQuksdU7vFBC2Oqd/igpFxAULrvNqa/qdB9XwDvMqZSiriKF0tjKnePDY2qJCnxL+253aUaYElF73mu/rtnaXrDvN/wBXFEBKF2tjN/jGnMfV8CUoGrpo9r07cUYFF7sf7Xpwq0ff43pxSABdbGkP11Xb0nXoub2DJRqZd43KMVcQL1aNS7/G/wD4PSfe6xVo1Lv8b/h5RgBeozS5dNHtfD6vR/d6hV73L+WenX3etxnmr5ikAC9TvYu/aIfmx9olEBKF7+bH2iKvexf+0SiXEgWOgTvYu/aIfmx9onPgKHQfmx9oir3sX/tEoQFC7XY1/I05x9rqce5y+cPgv5oKQCC7/N39dSOV6xk72LvFBQLiAF9Fsa/kaRyfURtOzkvyb1I5VMSiAC92zZf5oDTWYmOU2RiUQAXv5sfNM7/Zc3sD82Pkaix9XwKBcSAL9dj38jtHRdRKd7t3LbR0vWc+AF5H3sZy+MSU72Lv2iUQq4haXq97F/7RD82PtEoQCcW6mBC4kAZAGTAUCWHFXEgZMChQHFXECAAAGTAkQAHAhMCQFXEgcAITAkVcSAJXEgAJYAACgAAAAAAABVxIAlcSBkwIXElCAAZMChQJXEgAFXEYCUFAFxAUAAAgAAC0FXEglcSCAAAABVxGALZAJXEgFtsBkwIXEyRAAMmA4pYTAkVcSAWlcSUwBMCS0pVxIJXEggAAAGTAkQAHAQAJXEgAAAEnfiiHjWV7LT3jyrcl8gvt8L3mGqM9uU444pb2ZcSUwPk2m92JIMvpA90qYnoNn+6qs7WIG4XulW+/0nZt6fPVjcxP/Rb3IDh6RlWo09HC+z0UeHsOpbtM1UIEmGeijw7N3uOLuR/JbfAwNvaxAjnEzQc1DK8p+IVC4kDiriZCUwIXElMCQEGTAkVcS0GFXEgZMCBQJXEgAFXEFxAAAAJQAACgAAJQVcSCVxIFAABVxIBcSAADbLaRpkhMSsDj1R0Dq33t8N5UjJgZC72NTPncNjUz53KUVcS2lLafZal5bRsvadpMHOJU074z2kDJgQpeLTJCY5R6o6B1cW9T0l39brDY1L+d/wAPKJcRZz4mn/vrLbKl5EzS5ddHtfD6vR/d6irndFrMehe07W65zjuPAMtOXl/J2iUySp2nmb0TScb0RfeeNPd0bamVcVuOk+Ely+lL/eapz8t3Z2ZR/l4zP/D7bXElMD4mb7oK20xAjjFJ5JcDel+6QtbLswtvUid0qY6Lm9hlEtkdPl/uiYn/AMPspcSUwPjZe6WrN/L0io6XrLKT7qGckJaB6dZcYlt9zbvOTf1jk1zpz9T/ANPrgD5zs33W9JmmW3YObFf7VQ9YstlZpdsJVma+Vv8AUqp7ic8fbVOGz+k/9O0MzfMQ1YHGnoUjZ6JcCTP5SvbNUK9IUeTcie6RGY7/AFnwvVoYqtaatWn/AGa26sEHYmavrRT6+ygfyamv3VPlC1n+Lyb/AO0i/wDMp9n/AIX0a+oy2ZZx5x8/+XPOdTTkbKQWLgrc7t7TahFdF/E9Dpd6Iq87f19Z31PyeZIrUSkD1MmqvIyTirmPTGbn3oqpFfm7sUXDquPE2uig8yHplFqer5LZpvgsX/mU09d9S6id3bxiIif/AEc1jP5HbO0WbcWzGUBxqYS5YYHpPSRJu64s6K/+4nbiXFKszlKkpBp9i0FMtI1vzZdG9HMrvXnQ5sN30bk3XY4lZkTpWs0esVH5S71Jd7jPlKquhoiwcIT6T9G0R0sdTnFzMXLjw6vnnOFfDsW7RW4snZOZqVTszE62sV6y0eMtct1/bdndpvWc7qOTnp2Bia3vpDCkX0bk3dh8lWftZPy8/ONs1HQNw4N8Nx7HYWKVtBZWSinZPX5mNXM+Y8vlIkT0JcnYeJ9L+m4fVOpy0RPGI/5dO3d24un11Zq3DVpWGnWeicvu7Fu9x0TsOa4qHiGSyRolN1eWYg2ZOwKudKfz++JVRexFROw9v8K5M+DRxXJ4Hk/QeB9W6DL6dvnCZuLZaNve/iiGzTpvZ8xpjCB5DpmKml+5bOfijVWdS0XVpud2i9+VUT5P+x5vYUC4kpgW0Xi2zqd5Vzs67UJmOYe6WO6/sS73GAVcSAXEgAAVcQGABQGAlhTNITez5nTGFcQKOhjtpPxRXs9F1CLbOp3lCKuIF9N2nqlQlEZ85QrC7Cqo90vWSmBC4ksQKuIwECAOKuIG4mBIgGQcVcSBkwAEwIXEYAITAr6n8Vm/3fcb64mGb+ITP7pLbIh861uzW0KrMTHlxJ6kRPccrUrCz7E65NM1HQNrdc3wuREPXaN/Kpf3VOdqHx6Y/fX2mjRW/ZOOU0+66/6hl0XSaY01F4x5/wCFJY+xTtZdbR6Tkp92JblmHdNnR7+vN3bsN3A72v5Bp96nycbLNOYaW+5vwt29fK3+k6DJH8WqX70PsOsyp7W0ln9mdJmLd6VPRnRjjNcny/6lvy89yJ/4eCWlsjVKXXaXZnZ1Of0sOdpOPX7zTfpTsT0ci8y2w60qwK21zU8x3lrJe0Euw5NVD43Fz+zcnquOLamHZqkxOvdLE6l/Ytxr7OP9m2Pq++PHj/pTzGTiQeeijep2ndXFziRK2casxPy0wyzoGkivRvgei2q+Kyf7kPsQ5yq4Tf8Aox8ru2zjsyiPb9h+lRj1XSYbc8YjxH8fh7fZaobUoEpNeXCqeiJU9xbJgVdmv5PU3/R4PYhaJgfQaZvXjP4fi31GvvNtf2n/APWjUZHW5Wbl/wCcw5vquPmHKnZB+wriST+i1JyK+HXOb4XhLo/pvVe28+q1xEnZSQqEojL3S77z6H6Z9R/Tts7YxuJiqt4867m7fJNE7niXtlS2Juz9oHXpuBFjmKO9zm0vW7sVLok+hUNi1GTGoMUKSpzUtqkDSxQ6HyVzlVfSqqvafQUzkms7PPxPvUdjSx4zzLWY/H1b3Ou7D6LkME5kudl5RG6ZaOqSUjD0bFUSGclYeNyObl33r4HFes7dvWdNv2xuma/B2/y8cszRHbO0SWp73SspFf2xLF7zicpE1IUieSvvQSVVdpioi093nQ3oi7/Pff2nt7+SyqS70U1nUyuZ36VIqc3SM+7duZiiWBeG6BL13777zlLZZHILcwsyVTolToLarcs3G5A4vnzoIYY186onbifTZ/W8NnTRojHxXzbhw6ThnOV/Lwm02V6iWzs7OwsZOm6NOuLDnTzXNXclyp2XHfZKJOKTshLzEcekiWCJc7+spSW77nlrJ1W5NmWr7k3R2YoVaeez86K9Eiivz/C3RLEm/hwPTqLR9uI1I0l7TxQwoiOcdx2/4a6aNO3Lqpzjz/C7o5/ta9jqZ3zViRd+Rn4V9SH0ukWcsX0RKnoW48rshktnLOVrWp/43uWP0bvVcesROaVc76ET1Hg/4p6nV1eX7IqYdHT6+1ETbGMmBC4kHwGPxDrmbmziriQBUAyYCgBK4kAAAAAAAKuIEoC4gAFCriSmBIq4gC4kABKAKuIwq4ihKYELiQAobi4kDJgSUQmBC4jAWggyYEgWgGOPnKZAJxZcnB2rslVpi0DFRpnSOQbuxLvceXxt2nZq8xBVqdOvwpGt7jUnpIV80XXuPowVcTinpsrmccqfSdJ9cz06uz1GvHZH8XHxDzmxFdhpELsUFl3H4UTpHW9HEvnh6jppPKbnS8K7D1fevJ6m85dvX9KHcvYdCmBJsjDOIrk8/PqunyynLtVf5efW5qHffTIm9JsrPS7O0cTd3VzYt6dpwlm6D3ttNt66zUMxVXWWenjvVV3+a+7zIh70uIi4jhl7b8et6aIiOz/7/wDjwet1vOqby8t+j8Y5/NTH/wB4XGOQku+uclmfkIr/AF3nvK4mZvmIefl0PLKcuXy+o1/4sx1dPHT4aKqK+f8A41KWzq9PYa8mG42hwPVwx4Yxj6fA7tve2ZbPc2hMCFxGA2W0EAypgY4+cpeOE/MCAADPuTHiEpjj5yldNWaoNQfjmJ2naeZjuz3ONyXJ6kQtQNmG6deE4xM+fy0TpubtgkpOVp8tBLyTOgloL8xvhet6+tVMq4jAc/LOfGU23RjUUhMCQMsjKT9QmlZZ6LqIyYFxJTAvHbF1SGNUISxlTuLQo1xILxbGVO8rJySdp8xHLvdLBdf2pf7y0MCYELiC4kGIAAAFXEBgAUZMANyXlJ+oMwss9H1AaK4iriXTdi6pDAiGRLGVO4CiTAku1sZU7yonpJ2nzUcu90sF1/al/vAwriQAABjj5yjLiQBupgWUpqGrwaanad3fe5x3lYuJAF3tOly/J7Iw/wA80f3eoyQVml5qfBH4gUSYElsW0+81MS2kZpHJLhymk+91lTTvjHQ6Df0fAZMALYuoqnIS8Wjep2ndTFziLtmmfNBSriKuIsXm2Wv1NIktH1aXndpWzj2sTEbmhbYvu5Nrmpu6jWTAkWBcRVxBcSUwMKGNcSUwMgEWyCriZQBZYOahsSE3s+Z0xhAyReu20n4o1VnouoTvzqZSgBcLbKp3+MdB9XwKudnHahMxzDz2ncjuvc43Jd7jCuJBbAAAQAAAAAAADJgKADiriQBbCriQOKuJbEAMmBC4mIgAABVxAYVcQAAABVxJTAkVcQGFXElMCFxJYgBVxIKJXEgZMCFxA3QEABwITAhcQGAQAHAQZMAJAAAAAAAAAlAAAFAAAKABVxIAcBAAlcSAAAAAAAAAAAAAFXEYVcQIGTAUAHFXEgAAAAAFXEYAFAYVcQAVcRgAhMCFxBcSDEAAKuJkGFXEgCWNxcSBwKITAhcRhkwLQxAZRkwLSWxJgQuJlXElMBRbEmBJnTAnZmscpxFFtcDcgo3goTsaf/U9F1Ci2kBvpR6ncTsepii1eBYbHqY8NGqmanwdp/rOIotWAW6WUqkwmk2RiOljand4oFKpQLrvMqfyOg+r4B3mVMxFGuJKYF33mVMZLGu3ctqWl69Lzu0tChXEgvlsbv8A2cR3mfaNOY+r4FoUQF+ljN3jenELQNXXR7Xp24UKEC7Wj7/G9OGSjSF3LVdvSdei5vYKFEBe7GpnzuKtGpl/jcxFIKuJfpRqXd43/wDB6T73WTsal/O/4eWhzwF+tGpd/jf8PI0NLl+T2vh9Xo/u9RBRpgQuJfw97t3LVflOsxx7Gzl0NX5LqCWowLldl3+Nx4Nl5qfC4LUK4gXq7Lv8bh8F/Laf6ziSy1EMmBep3uXctUZ1hzrba5qeYVe9i/xtUSqolxAvfgb9TV3NF1aWT0kXbF1irTKXMLpNr4/Z4FEuJBfbGpfzv+Hhsal/O/4eOIoQLxaNS7/G/wCHkpRqXd43/wC70f3eoCiFXEvVo1Mv8bhsamfO5KG1351MVbZ1O8pAKL1LZ1O4ZLZ1O4oALY6Dvxqa/tHQfV8DHFbKp5y/C5RjJgW0pc9+VT+dxVtlU7/G5TriQLKWy2yqd/jcjvyqfzuViYEiyllt+qTHKbXxFWs1S/xuVq4kpgLKWO2Kp8tp/rOIbYqZWriQLKb8dYqecpjWsu38t0vWagyYCymzptY5TiYXOepjXEgWqVxIGTAhcTESmBIgyYFsSAq4kFsSuJAALDJgQuJACwAAq4mIFxJTAUC2HFXEgCAAACUBVxBcQBRkwAUCUUFxAVcSUwKqQAVcQBcSAAcgAAAAq4guJAG2AAAAAAAyYCgBK4kAADJgSIAEriSmAJgQuJLAuJADJgUKMmBIq4gC4kAADJgQuJAAAyYCgBK4kAAAAAAAAAAq4guJAAAyYELiBAAAAAq4gALiAyYAAoAuIAKuJKYEgACriMACASuJBiAAAyCriQSuJAGwBr6bWOU4m0z0UJjyZ8SgZgJzOLCBsJgBjzOLXAafl9Xlta8r3bjzK31uNlSEcfBDOJY09BeqUhLuxNvdKmJVTlrKZLzEbfC72Hxjb3LdXpp2YlpL4slyQehL/XeedNW3rD0CRvdKqrf6TOmNv0lkJ1qoSjcwz0Ud93Yqp7jeb5iHwpkyyx1SgOMQ+Qq+1VPoiy+Wh20U3BG90sdyL2bvcY0r2UDUkJvXpNt/y7/bcWTNM1hqFzia+deGyMWJMCFxNxKNuDYxticZj5ap5RPw0gN3YwbGLePs/d6aQG7sYNjGPLH2Vl6aQG+lG3E7GMeePs/d6Vq4kFnsYNjDnj7bYxVyYElklG3E7GJ3MTgqlxILbYwyUbcO5ivBTgXGxg2MY97E7anFXEutjDJRtxO9inBRgXa0beRsYvdxTipQLrYwbGL3cTipQLrYwbGHdxOKlAutjBsYd3FeCjXEgvdjBsYd3Fl2/wAqIC7Wjbw2MTu4nb/KiXEgvtjCrRt5O5idv8qMC5WjbyNjF7uJ2/yo4+cpBe7GFWjbx3cWPB8Bwd0haeXhRvgez5HcvM1V5SThnfjKrFn/AMcZb/TW7wYt6brsT823Oepkb5iFau5+H7PSFvtdmEY2dp8OU2hL79xbu1fNjVNkfiEuflBkoyp95cEtKeWqp6YlX3n1VY+0khPSEu+90riKq+lTzd/VZaf9ttsTcW+sts/U6D6vaMO7+7u9BXVa3+z21l/4l4HytQ8Lfv3+k8npzzUxJtuM9Et93pPIu6Rm5+n2fgeZ6K7ccurr+7NcabYxejZaMuL9Po70vJbO1mBPnDil/vPkarZTZy0EEcU/o9bjVc/ROaSHgl0XXuuPHapaF2an3XXuliuv7ERCvce1iNXOJ7WOVxDhy28cpinpTlXzY1T+Jf2vO7TDHWfCXxceax85TDHzlN8ZeGqdv4eopWd36v8Asub2G/S7b7HdSLaOgu/V8DyBMCSW2Rs8fD7GyU5bZ+aqlPlmavJaJIt2l53OXE+16fbepvSLEempz98Kcpy2/wDu7vQfkpkh/lrK/vofo1Q/FEr+4eJ1HWZaZn9lvQ0Y93w9Z2/VJjlNo05i/wDV/wAY3Gu7at2XcVt6r07Spj/E5hz73WeSVu00/T0jl2eigw7d/vNam1R2ryTcL3Srff6VPHn6llM3xe3j0uNQ9Rm8omrzEbffRTmLruT2fMbt3/aw+wqarlhpNAbWbqlrado8V+A55z70MUSL6Ty+v0SQhijR7pd1/oOKmYmkfikWeigw7d/vL+o5em+OjxmPl7tSO6VsxXHE2Ta1vOi3JorPzWbu3bs7f6S7dyxScMapM1zTvfpObLibv4eDFvTddifPMrZ2elZeGZoXx1b1mfNfu9VxYMxPRNQrMdN+l5zD7/L0v2ePt7vBlZpc/CjO153+yp/g9hvy1sGoWYUZq1R0W+74PZ4/5W/0nitEpmsLC5x/4ncSTOrysDfC/wBprn6jlE/DTPT4xNO1W0GsLpNr1Hf9XLt/d0UV3pMDlrNXjVva1R3f6P8A/jD7Dipmp6u/E3wu9hrRvaxErnEv3+Xp5men90+XXTOUWQl34m3na8+6l17jWbmru6s3d6DQeyl0vSxfyi/2zR/d6jl3ekUqpz4xH2ewfe5enNONTTrYMqdLmKlHK/Cvg3dNUPC3oi7yyctg1DGqM06ovtdTm0Ht/wDd3eg8+gpmsQo5xG0Or8nwMvvMvTLi7mK2UhnLpqRUdL1/Dkw393qN+Vr9MmGIXNDUWL7+T2pMOXb/ACus87kfjSnTNdHCa56vJtjVcfLoVrNLv8XOP/WPVCYzl85G2Wv1NI5Lq+EJg56PnKaUxU9Xeib4D7vL01zr/K+mrWau/E3sjC79ZE51eVFvXtNaO2fhL8ESX9rzu0ptNrHKcTC5z1L95l6c0+JpcOZRdXjVvZFO3GZq3OsNo5sinbzlXuliCDX81NB0XUX7vL0Os78/sinGw1X9YbRzZFO3nIwaXNTT9L1lnJ/F4O32k+8y9C+2x9kU4ZKzIXctSadpesp0wKqeqerzUbfC72Gueuy9OvHVcRNryctY1LzEbbNIp2iS670Fe9lF1d1W9kU7cVqPawmk4lTWubEZfe5em+NHj5W0zld1d+JvZFO3Xew3pO3+0JeCY2RTvDv9S3e487gmNYTVfJ95YS0vPyrELTHRQ33dq3mX3mXo+3/LvEyi6umj2S3u+S02b2Zu70FjKW51iXhc2Tjf/wBcmG+vyeo88b0uYmn6XrLej8+En3uXpex+XbwV+QmIUcepHKrj8ITBmgrNMzU+CJ3+xqExm9hz7nO9BTz1T1eajb4Xeww++y9H235dbMWspcu9E3sio7vtCYNF62VL0q/BNR/35MN/d6jzWSyrSD1sKnZp7pWEgRf60EMX/qLptppiHMZ6O9VTtW82R1eyfNOPLCpmH5jriSmBpriY4+cp9tTyOS4kKnq8zo+B1NNt9P099Jdno4MO3f7zgIOahtQ4ynnX2mrbhjtinVjn4h9t9zvbh2Yo7jj3SRQxX/3lPPe6Hyq6eJykfJRXelEX3l3YG1shZvJPJNvdK9A6i/8A1Iz5ptq609aifcZ6KKKFU/uoeHp6Xjtm58W68csajyt7I2NqtunaslJ/ZshFUH/NCv8AwQ5OKNHc2NP0oUiXzqiX+s6Cwdoth2lp8/ptn6lDFDpPl85VW713dhZW3g29VZuf0Or6dUi0fDciX9uPae1E8fDw9mz98uKXEeDmoYo6NP5y6Houo3aUy7Luo290iYmyM2jufhqR85SUwLe2MvSZekSk0njKK/P7FVE9VxSy8xFNMwOx86JPZuLzbo2+PhaU2rbAmZSc/wAq/wBZ7RKd0bPycs0yz0UMKXHB2XyVrUcmlprZVar7IpUnFCkj9dMoiIieo89dmUnIkeRN8cMKxfTFcmcvat6nLu1Y7Yeho6rteafSlmMrTtr7Qyzb/SRxIi+w+qKBBo2XYf8AIRfUh8G5Danq9pW2+ESH25QazyLv7iew+S6npp1ZTMPqen6jHdEfw0J3X9ac0HRX7jSc0ueun6XrMzlR0DkU15Sr6txQV20OtLG75XuS40Y6spi3p88Y8WvZip6vIQt8L/aakrPbQYhZ8/tPMLS2/Zp8ksvUOig+Ledd6+tVPHKtldqsvUHm16rrvNcl3qOqOjymLtonqcYmn2xZ+X1WBtryb/Wt51En8cXs9h8AxZd6pL02Bvhf7VN6w2Wp1+pwuP8ASqu8n6flPm3HPU42/Qyb+Jw+YpEwPK7HZUZCYp8u490qot/pU66VtK1UJxZhnoo7ruxLvceflr2Y5Tjx+HBlsuZlevdLEYI+cppzlZ/jEXZ7DTcrPhqStn9XLM+VwmBC4mCTe1iXgc43+0V2p6u4rfAyrZ/VjzWDXRobbXRoc45ayQl41be6VMRoLQNTEKOM9EuA47P6t8bfHw7CX6GE1Znp4uz2HPQVnwUEjrPhKa/8z+rHla3d6RRCsR7WE0nEhanq66PgZVs/q5co8rCPnKYHOepox1nwlMrb2sQI5xOiNeVfCLFnooTdZ6KEp4Knq8KN8CunLWSEvMRtvdKl1/oNM47L/wBLfGGMxdu3Z6KErJ741H2ew5dLZNXcj0XUZpiv6xIQucb/AGmqdey/9L0McceMeVhUugObj5ym6j2sUptzjf7VKNyp6vGrfAvHZ/V0RGNfIg8ZR9nsQsHanq8at8Ljm9NrFUcc43exC/a6OEyrZ/Vf2+1nKvawxC5xv9payvQQ9vtKiWqUhLswtvdKl9/pNOatZTJd+JvybvYTjs/qtY+3bS3QQ9vtMNS6A88mbVUth6Ka8q71JcYu/umTXK+V7tw7Wyf4ZVj7eBd0/SZ+ydrJa1jEeY2/HAsM1/N82GGHN7c2/tPZ8iOVuHKbR2G8zR1Jlu6NONyqiL2pcvaa1tbI2eytUpZaZqLrEy0iqw3J85F+s+j3HEZLrB1rJxaZuXV1p+oxTzcMo4zzVgWFFXt37/pvPe1x/l4xOPlx5aMZmZ5PkNvmIZoOahu0bX9ryGh6PNiu9KmCp02pzE++5xiPquT5SJarnPUWUqerzit8LhY6PU85TK3YyqVyBP8AN9/vNkY4zHy68YuIWdYtC9MU1iVcqOgp6Ow6ZvgirvPWLQZDJebstLW8sbOa9ZvQwwzjPCJEzV9cKniUdIqkUS/Ru9G491yFZWKdk8s7P2deshfVqq3FpK3tHpd65vI/o5qXQ/Tm39ZydTjWP7XNuwy1xyt5JJ0GJmcihiY1ZVXORrgi709S39p0bbOrwI3wNuYdifmHo449JEscXhXXda9Rquc9TVhN4xbyZ2efhstTGsNpK+T7xtX1XkvJ9+8Wm9OWE108XZ7DbbHufhqzMptCRhZ8/tK2k2Z1KvU1/wDmzmd67zed6RTPTKBP2grcjJM9E5DE4nYq/wDAnJl3fw7/ALoXKUtobL0uipVc7WYUXY6Sek02buvzuvA+eJheVVM7OzUSHo9Hdcl12b1XXXdh6ytZdhijgef07rcUTayvk5q5vuv7TVlqdITtppCpvMas43GkStcLv/5f2k5umN3j4ec0yrbAeSc7TsJXLzPwMQws9Em5D3a0VvLNWMn6xbakUhtbazTLTLM7Or4ESQtQN8n9KJAiedD5VrkNcr1WmqjOROxTUzHpXFe516+7h9Fxjs14bY8w9PRt2a/3RDrJnLTVJh6JzdvJbyo1SYgRzicJsepjJRnbuW6XrMI6bCIqHofc7J80v6laZ2oTrkw90sd1/YiJ7immntYfic43ew11o28ZKNP3cj0XUdWOGMREU0znsmboGZvmIa60ep3mSCj1PNQz44+k45T5tdSVpp+ny0Euz0UF93at/vOhp2Wup0eTbk/k7/Wqr7zg1o9TvI2PUzVOnXM3TONuWPinoi5fqnebFPy+1TWDzVKPU7jLBRnc1NN0vWY9nX6Y9zL+r2T+EfVJfk+BTVvLhVKgkUx5fuS73Hma0beYXGdXjVvgXta/6seWXp135UapMcpxLeQyvVSXlG2+F/tU86Smawmk4mSCjT+amh6LqHa1/wBWyMsvT0hcu9Ul10fAlMv1TuPONj1Mxx0ep5ymHY1+mXPL09Gcy/VPPUaDL9U81DzXY9TMzdHqeYhl2dfpqnLK/h6vJ5fqnq8Hb7Qcy/VPPU8oWjO38t0vWKtG3mqelxmbTll6emvZfqnpYigqWViqVCdcmPLu9SInuOOWjbyNDq/J8DbGnXEVTnmNky7RjK9VJdqFvgWEvl3qkuzC3wPP4KZrEKOcRY6NP5y6HouodnX6b4y2RDvncv1T0imo7lqqkw4rnE4aOj1POUyt0Z3MTTdL1js6/TPubHplOy71SXk22+F/tUzrl+qd55dsYxx0bwlHZ1+k7mz09GmctVUmH4nON3sNJ3LJVNIpwMdGn85dD0XUY1o9TvHZ1+nRGWVfLr6rlRqkw2rnEqqZlDqku/rXlL/yKNWXZddG90qYjwUzWIUc4m2NOv0y5Ze3eQ5eKo0mZwNund0PaKnv6Zno+o84WjT1/I9H1EpR6ncYTrw9Oadmy3X2fqfe4y/NfzlLvRu9xXRVnwol4qqmnHzlNmm9OZvJ5Oql7Kz85ZOCps9FPuXJ/ViWD/0nq0lkVtDHZ+UkqE/p52cbRyZleCJh6rl7TYyXV7Y9lmouEMf6jT/pxfoFLSctOysqsLlUqM6xSUuzW2pbVoU8FL7m/wBHff58es8vLZlymIdMbaiqU9RsJWpSccYmGNWebugja4KiIn/PtLiw9nXZO1EhA9SNruTcKyK/U5y33+s+xckNcsPl4oUMtTHnK67JK5Fqr0npImFz4lvWLrvx7TjcueRiVis1Vq1Ku7Om2oob4tHo9NmwpCiZvVciInYTZ1XPHjMfDi3dXz/bXw+acqGTXYVWjhvv0caQ+a5ES7swK60thW2rGU2sUznuJHtXzwxxQwfdSEapWzq2hk0jZ1eKHwdH5t1/bdf2ndtVV22dkNQeg0jstBEqyn85vVVv7L7uw34Z/th5E5+Xi0u444zDE7z8Ozq9Vx3ti7JM2kpdRcn/AIuzIOLJ/wCk5y5pw8UvqkcbWfpMyJUv4b+b2YdhcSFb2HKN/wCcXp61Q3xKc1JonmUhbmPjEMKI5+9dvOusjRKrW5CpwUn/AKpIOTz/AJoYlT2IUU5DmzEf03L6UvPU6NMafI09LeTn+uOJTXOS8nirMSRswRp+nCka+dd6+tTchxlPOvtPWe56yeUq0tQq8tVuuBNB581PeZpHIPX5vKNMWblJfU5aHlG6nqek3KiRZud143E5Y+3bjGMxHlUUjJjaW28cGxZXXtIiJCz5t3tQ7aS7ifKjOSsD0dkM2KO9btcZb6/Ji3p2ldp8peSmlz9ZZs/J2epNOdVpuZemNXimd++LM6r1vX6b7z2+xPdb2qkLAS1UjoFOqETTcTitbQx8KJfk4sfOap38Zqn1HS5688YxeUfwHsp/9EvxCXMU93FOU+QlUe70vxCXOrX/AAuFYloomnsnNORyCJYVTbmjwXydDuNGof4WmqTkrNMfk7p38YhzfGmk6rudod534zMxE07O5rx8PFbb5ArVUKNpK1KagsC+FL6SFzN/rQ7lvTfu4nNzViYWXlgg5qInsQ1LW90ZWrY2inJt6nN0qRfWGKGTacz4W/BRFuiuS+9UVcOsihZUYXYJiUg5sKe3f7zanf1+myljJ+7kei6h0sZU7jmncqs9TXY5Zmn6duBVuc437/eNI5WapPzSs6HQfV8CW48tmMzLtJXJ1VJiXhc43+06uzfc42qtOy09TKdrDjl9znG5VT3Hns3lOqdFk4V4Idfkk7tquZPZ1luSocnVZhxVhuenNHEu9cU6iW2x1GuIqnpMv3EWVF5mGOOy+niX9ZrjLd/9WLenabEPcPZTs1PzS/EJc9Mo3dp5VLQ2ssxRIcntOpDdZbjeantoc5uGKKGNexYVQiZ/wkT1NyhVGzNOsfT6zKyTkLOvbQ6SPNRXP1a4RrFDj1Gmdk+m3Vu17Zqnma9w9lPv/kl+IS5E33D2U/U0/NL8Qlz6fku7jcjlW4nrPU+RdVL1l1d0mb/Wuhvvxw6zXqndsz8u0s0xZenPtRYOa5o77t3N0cV3pU5Z6vGJqnpR0u3KLjDw+Vqb3BeU+Yf0mw5Ji9ejeqEOcnnzd3oLlz/B/ZTmI1mtFTmL/wBXpNJddu53WfRNju7UdtTWNA9Qm2HVVEVtpzSQp5os1L/Qesx5eZFtc16k8pcir6Dnn6jjE1TbHSbf6Pgae7jLK6zNRwM2dbn20uumGpxluGPd1Qxb0uw38DHD3G+VTNTTWS5Tr+EJc+6J3L41rMehpPJ7rvQVsx3R+rvRN7JwNU/V9EeJbo6LZ/V8Yt9xJlPmIEc70sftCXM0HcPZT81PzS/EJc+wYu6Vnr+RpElo+rSzmji7YeowOd1PU2I1b71237v1jNQ8FfMb4+p9PMXbRPTxE1MPkqHuHsp2an5pfiEuT/Afynf0ST/eEufXLXdWuaNNPQtA71t7QwMTvdWz2kXQWX07XU5tDE2R9R6f219mHyZ/Aeyn/wBEvxCXNGp9wZlOmGVj70sftCXPsKS7rVx+bWVeoWgdS69vaGHWdE/3QE87IwuMUjk1RbuU0nX5XWYfqXT+2HYh8IUfuDcoExGkq9TZKlOwrvidqEOcl63783d6C+nv8HrlKpsqjrM9Tqg11NaTSfe6z7GpeWqcmHkcnaR/F1U6Kay7UmXk0ggpPgohj+oYfxDHjjHin56x9xnlPZiWDvWbdu/TanGW4V80MW9O0eDuOMp+an5pfiEufdS5fWr10NI5Lq/jmj+71GKPL54S/BH/AHmk+91mf32Ppzzsxia4vh+DuJMp8xCjnelj9oS5sN9w9lPzE/NL8Qlz7VXukNWXR7I5v+eaP7ujW70kfwlvsj8Q/wCUPsH32PpYyxn+Hxb/AAHsp/8ARL8Qlw/gPZT/AOiX4hLn2NMd1TPy70TbNl9O0mDm0MS0kO6bdmJRtx6haB1b729oYb1J+paI8TLXOu/L4hj7h7KfnL+aX4hLlTO9wtlPYmY5rvSxu/aEv1Jd8pD7EPv5O6DnphNIzSOSXD4QNeoZfXdX5akcp18ppPvdY/VNHs7X5fDtO7hPKBUpNuZelJKQcjvvl3XIXIoLlVN8UKqi33X7l6zamu4QylSElC8zK06ea33Mn2VSsvshpE0zOgdv3t8Dfq/dHycvBFBJU7TzKJ0nEn32E+Yh246cah+K7XRovG9TpbN2Jqtclnp2k/qkWJ/zJ/yNSlUKfrEzKws9Gsa3f3lOtt/OO2akpazz3SOIka+33ndO3zUQ+Ldjk3eSmWInKglR0F8USK3wWGJUX1oaNvZJLfSlMqdJe1ipM8nNOcUvuT7tx5bOWq2nJwteSmZ6N3uN+wdR1WoQN8F/5nJOuZynJeT26p2NthYywFOo1Cmp2RpMxFpqg81OaOHOWJYkuh6sT3bJ7lPlqzJ0yylpa9LTM1q6stOzbmkcW+/Nvi69yonmRDz7IpYSuZTrSvQyDiykrJJDHMy9S+LT8tcix6L6UW9F+lFKfuhKPsW3kU7DS5GOmSsTWorHjcjcO7sVFTsODOPMxLy8/wDVKvywZIKvYyfdjilG5+nI4sbcw1zY0i8Ld5r7uwpMns9DKVyOYgZ0EOiXk+FyXHtVLtBK5X8mULNpHG6VMv8Awe1E1zUviXNu7Ljyy32ThclUbsK2l2hfBA2jX0JCiJ6jq058/wBrln5c6zJ991Hrcx8k8q+hTl4os5U+hET0Jcem5I5baVnbRt5ubfct3YcBVJHZs+9LeQqetL/edM58ZpCUyX1d5JryvduO8YtGzNWPqUtUOiRUSX8/X67zz2XkpibqEtLyXxmZizfceq1GwcFgqNLU6rv6epVGOFyYleEt1+nHtOedvn4OSjyWU6q1K1MnS1p2n1yJI0c4om5PUiH6J2VlXZGz8lLvM6B1qBYVb4XKp8vu5ZLO2ArNmKa7SomotEkEM1B08tB+gjX0LCqKv0qp9LWdyh0Zux0zWWZaCUaggijRqDDFfCX6V5y/SqnDljlMzNnDKfNuRt7kHs5bu18lauuMvz7lMTkm3ugYW5N6e3zqeLZeGrMUCztRm6vbVmQ1mFUl5SWk9JA5clyQpF14em88V7ozuuqxlCrU1SaYjFJkZSNIW51np5nwUVUXzLenmRDxep5S5qtURuRnFeimYUVI1mOeu9blXsu7Dvw6XbOMTVw9np+WqIm1tkzyY0rKlTK9JM2keodoGo86nU95vMZnUXfekPUc5aPIxa2zdZmKbMSzNQeYzUimGFvgiVYUiuTzX3edCqs9UmLOz6TU/T1mG775ePW9Hevm853v5Snq5drDOgdiS5W9JpLkTcnhde649PzjFNmW3KZt5jO2arFPmY5d5nQOwXXt8L0v95YWaZdl51G3ukTE76mz9Sla6xMyvxpYkWT/AHf0vXedBlKairU9BOR9I4kGf+8kKIvrRS83LO/K3H1ezO0G1mPLT2Jd7ilp9mNQmNN9J1MTOrqjfBE9hrO9Ioth3smOOna1FpfK924rp+ycjPsvsOrc645C4vYiJ7ELaDmoaUz08XZ7B+U7mT0O0GWma7xJOhSXxaVa0UHpW/13niNPqjrdeanHukijvX2HQT/xY5drxjH509hh2sfb0ek85XyfT9jbQ61Ey75SJ6tx6urW2KW3DxRfap4h3P8AZXXXEqfyV8XoVf8AgfRctWtvMw/TfD6Fu9x8bvuNuURP8v07o98568cOXxCqoFntVhga8lV9a3nrdnorqPLyPkZ3riVfecdK0TNYhTz+07ez7Or0iXb4Z3/mU8nLlc+XXO/PGatExTNK9FKeT79/vFmrF5slCnnLCOb1CJXjTetTtJ2JrsNE4YTPmHDlu3XP7nEVqT2fDFL+R79/vOSa8Yx+dPYemVilaaCKPicdMs6u/E3wOvHHCo8NUxM+Zc1aSp6vMMt8FQuGHtYZgc4oas5RNuTEf+b3L6ry4plV0Mi035N6etTfGOv01zg15KmaxNq5xuPQLPM6u223wv8Aac5TZLaD+seX7t3uOrprOrvo3wNc46/TlnKppYTXTxdnsNdaZrC6Tibz3SL2ew03anq7it8DDzHxLlnPyqZ1nV5mNvhd7Cqmeni7PYdG49rEaucSpnfjMfZ7DZHL24svMyqZ74qhXy3Qw9vtLaoym0JfQmCQkdmykEt5F/rVV95l+72cqaS0zWF0nEuqGzq+Y3wvIg5qFnJ/F4O32k7eE/MM+5+FkuJKU3WE0nH6CJfoYTG7U9XcVvgapxw9OrHzFqK0Mjs9xx7zew4WbmNamI3fKu9SXHprs9tBxWTlqxRM2pPJ5vYhl5/iXVE+If/Z;" vertex="1" parent="1">
          <mxGeometry x="490" y="480" width="400" height="400" as="geometry" />
        </mxCell>
        <mxCell id="ftl8LwkWCeDw0nH-mkyN-8" value="" style="shape=image;verticalLabelPosition=bottom;labelBackgroundColor=default;verticalAlign=top;aspect=fixed;imageAspect=0;image=data:image/jpeg,/9j/4AAQSkZJRgABAQAAAQABAAD/4gHYSUNDX1BST0ZJTEUAAQEAAAHIAAAAAAQwAABtbnRyUkdCIFhZWiAH4AABAAEAAAAAAABhY3NwAAAAAAAAAAAAAAAAAAAAAAAAAAAAAAAAAAAAAQAA9tYAAQAAAADTLQAAAAAAAAAAAAAAAAAAAAAAAAAAAAAAAAAAAAAAAAAAAAAAAAAAAAAAAAAAAAAAAAAAAAlkZXNjAAAA8AAAACRyWFlaAAABFAAAABRnWFlaAAABKAAAABRiWFlaAAABPAAAABR3dHB0AAABUAAAABRyVFJDAAABZAAAAChnVFJDAAABZAAAAChiVFJDAAABZAAAAChjcHJ0AAABjAAAADxtbHVjAAAAAAAAAAEAAAAMZW5VUwAAAAgAAAAcAHMAUgBHAEJYWVogAAAAAAAAb6IAADj1AAADkFhZWiAAAAAAAABimQAAt4UAABjaWFlaIAAAAAAAACSgAAAPhAAAts9YWVogAAAAAAAA9tYAAQAAAADTLXBhcmEAAAAAAAQAAAACZmYAAPKnAAANWQAAE9AAAApbAAAAAAAAAABtbHVjAAAAAAAAAAEAAAAMZW5VUwAAACAAAAAcAEcAbwBvAGcAbABlACAASQBuAGMALgAgADIAMAAxADb/2wBDAAMCAgMCAgMDAwMEAwMEBQgFBQQEBQoHBwYIDAoMDAsKCwsNDhIQDQ4RDgsLEBYQERMUFRUVDA8XGBYUGBIUFRT/2wBDAQMEBAUEBQkFBQkUDQsNFBQUFBQUFBQUFBQUFBQUFBQUFBQUFBQUFBQUFBQUFBQUFBQUFBQUFBQUFBQUFBQUFBT/wAARCAGQAZADASIAAhEBAxEB/8QAHQAAAgIDAQEBAAAAAAAAAAAAAAIBBQMEBgcICf/EAF8QAAECAwQEBwoJBgkICgMAAAABAwIEBQYREzEHEhUhFCMyM0FRgQgWIiU1UpGhscEXNENVYWNlcaIJQkVTg5UYJCZUcoKSpKUnNjdEYpOj0VdzdHWywtPj8PFkZ+L/xAAbAQEBAQEBAQEBAAAAAAAAAAAAAQIEAwUGB//EAC4RAQACAgEEAQMDAwUBAQAAAAABEQIDEgQTIVExBRRhIkFSFYGRBiMyQqHhcf/aAAwDAQACEQMRAD8A+vIOShC5iAfMd9JXMgACmTIhcyALYBkyBMiTNpQFXMYCqhMiQAlhVzIJXMgoZMiFzIAlgGTIUBYlcyBkyJKtEAlcyAgAAAAAAtAAAIVcyUyIXMlMgJFXMFzIAVcwGALbGuYi5mVcwBYb5CCx8pQXMgFABkyIXMNIFXMFzIDNAAAFFXMZMhVzGTIlqDHHylGXMBakGTIkCDdAZMiTTBAHABAHAlhAHAgQBxVzNCUyJITIkyFXMgcDQQBwJQQBwFCEyJACrZVzIHFXMIgAGTIBQJXMgLYAZMiFzCIFXMYAEAcAEAlcyUyJYxrmA65iLmLCrmQZUyAWtkTIhcxlzAWWxLmSmRkMcfKUWWhcyBkyJFlkAlcyCKVcwMiZCR8pQqAAZMgN1MiS2luAYEONwzF334XJz6DOne7dx20cXpNPO1EBe/yY+0StnOC8Ij4FicG3amLyst9/beC2oBnTIs5PYPB4OG8N4Tv18Lk57ruy4lKpQL5e9i/9IkfyY+0RQohkyM87wXhMfAsTg27UxeVlvv7bzWXMoFzAAJQZMhVzGTIVcygAAAAMkj8aUuoqlweLD2dJP3fKO8pfvAoRkyLvbH2RThVrG/yRTi0KRcwM069wiZjcwW2L7uLa5KbugwmbAAFfNVPg78TfVd7CiwA0WqzxaG209whtHOslhxVzBcyUyKGg5KDpTOEJidZmZm5+ntI8zzfQZ4bQ1SahR3aOBrfJ9V24DVSjbiFo283Ns1T53McVYqmsvHY/1nWBoOM8HjVvqFGmXnZh+Jx7nVuv9AiZEoQuZBK5kEAAAACrmZEyEj5SgZW6ZwiBHOsyJRtwM1Kfl2oW2eaTI22qzVMNPGOB9X1FoaS0beKtG3m+tZql/lcwuVmqa6+NxQrXWeDuK31CGeYedmHYnHnsd1c3OswrmRbQACrmCzACZAFbwABpigAACjJkKuYyZAFKAwq5gADJkACgMACjJkAAKuYDAAJkAq5gALmAAWwyZCrmAGaGFzlqeOabeH38TzW670Iezrmc7auzO0JaKY89PZu9xR5Boo2ptFr7/efQkWLemNzlyX+g4XR5ZjZ80+8dvBFrQ3/SpkMAAWwq5kpkSBQq5kDirmSwi5kpkSBQq5kDgZEJkSAAKuZBK5kAAABoY4+UpA65gS1piXMgyLmQKRCZELmMKuYpaQAAKVvAMmQFZKAwACZAAAAq5guYyZACZAAAKuYDAAJkKuYwACZAKuYEsC5gMmQCwJkAALCrmAwq5lDJkVdY5ERZFXaL4h6QNSi8qH71OiXM4uwtbkEqEzIvc7Bn2pf7zsIYWoUuZ5q9biUlpXMZMjNDnKfevtPRZWX2nLtt/wA2S/3+8vFnk80FXM6q0sxPzT7rjPNLcidiInuOV435bnekNWVcyUyJFXMyoXMgZMiS2EAlcyCAAAAVcyCVzJTIATIdMgTI2WubQtjRc5aim07zimGPlKRbYVzIHXMxx8pS2iQITIkW0yQclBI+UpKZELmVW4mQF935/ZFODvy+qpzH1fUZ5MKEC+78v+7g78v+7i2KNMiS/gtl4KeThI7Zz+suDh4fRhcnsJyFCuZKZF0ts6neR351MtilXMgvUtnU7iFtnU7xYpUyIXMuFtnU7yO/Kp/OOB9X1CxUpkZYOShZpbKp3eVzE5X6pMRq5tfMWNRKZwhMTrJ2NP8AyPNdBsbZqnzuG2ap87ihjho1U1U8XY/1nWTsaqfNBEdZqmsvjcXbNU+dyDPBZSqTEKObIzG7zan80GnE87MRK489jurm51mNcy0LJLGVO7mcD6vqDvMqZVrmQLFuljKnccPpYsbaLvZnMHmtRbv45h9Hm9B0J5jpw/zXnv6HuNUPN+5LsbWfhDtJjc5wSK/xgfVUvY13AaxuBYuol+K5iRZdMXSfD3cY/wCkS0X/AGWP2n2DFMPTCQStP52GCHhH3KiKnquLSU6GWpcxSJ2KKSqNOYmUu4vq3HSUuYl5mKYdtJVmlm4kTUwl8HK5LvUcC1LsyraNS/NQ5feu9fXeC5i2eLsn5hZiRSViq8l4KxXYvKuVVVL+wrWqLqtom16d0lCmQGWqXkdH8JfG9OI2P9r04pBVzMqu1ot6+V2/2XJ7CUoshdx1X43pKMC0L3Y1M+dxVo1Mv8rlIBBdbGpnzuOlGpd3laS/a8rtKBcyAtL5aNS7/K7f7Lk9gyUal3eVpL9ryu058AU6JKNS7vK1OIWjUu/ytTjnFzIBTo9jNfI1enYXQKtH3+V6cc8AKXkdH8JfG9OI70+EcZtenbyiXMZMgUvUoHB0w9r07cJHZPhMSubXp3hFDHylICrtbGb/ACvTg7zfrac/9Z1lMmQkfKUtpbhJi1lLl3om+ox7fpkxxnWZoO4ftZqpjaQ6fidPi8F7h+09/wDpDb/ZU/wewcGLa62spkuuH1GVuv0yYgRzzjNB3D9Z1UxtIa4nT4vMsPcP2i1UwdIfF9Hi8vEta0ysUzgLXb7VN6C1lMloUb80oYO4grOqmNpDXE6fF5kTuIXkTjtIESudK7PT/mTgW6CCv0yZhRzzhI7WUyWiVvzSob7h9VgRfhCnk+hqnpq9g38B5f8ApDqX+7w/w9BeJa4gr9MmYUc84dKxTLioh7h7wU/yh1IdO4f3f6QqkOJa/ZeamGoXGeaXI2W+Qho0/RZ8Dkm2xth2uX3prPcqK9VXf6bjcgi14UiwODX78Lq/+Z9pKaMuZAAKAYXOWpmMcfKUWNJryjH2exCzc5XoNZczO1zaCgASuZBQCrmMBKAmR5H3RFMemLKuuU/nVhXhP3dHquPWlzKSv0FisOsQzvxZVLY+We5FsXVu+qenqQ3wWmxquLVf1F26JO1UU+x4GpZmHUlHMZhMnPPX85e1b1MkFKk6LSGZKn/FG4V1O1VVfWqmozzadvtHIZY+UpjXMYCWBMhVzBcxkyKNdzlqZG+QgR8pSUyMiQADQ13anwdxW+o0nqzIYsWNzvSeeaeJGrTdCWXpnDcSZchhTC5PQm4srI9xlUa1ZuQnatbKo0qfeb1nJP8AV71SH0oiL2jilulqNrKXLy+H1FFJWypfC1+8sP4D3/7DqRozPcGcIeic+ESo77vYOK8l8lsqXcgyWzplxTS/cNrLNQt/CE8ur0u3a3aK53EE+sa4OkJUb6L5PE/F0l4pyb9TtlS8FTjKvbJrUiwea6C9c7h+qa6/5RP8P/8AdT2Gq73D1UxF/wAon+H/AP8AS+0nFeTjpG2Uhwpcbnb95fd+VLQzPdwZaKYdicZ0icWuXi82GO4YtPLtQt/CJl9Xh/h6DXA5NaRr9LmJpXOs6yWrNLwITm3O4etPrr/lEk/2sniRdsXSYI+4dttrLg6RKdh9Hi8cDk7FKxTLjE5aymS8at+acfF3EFukiVPhEp/+6WD8PQaMx3EFulei/llTn/rLsycTk9Cbr9MmIEc84bbFMPN5TuH7d8LVe+2ndBtTfcQaSVmIsC1tPwt1276CcWbfT66S9/kgRdJe/wAkHDAOS07pNJe7yQQukvf5IOGAckdsukvf5IGTSXu8kHDgOSO2XSXv5nA+r6g+Es4tMiFzJzap2a6S95HwlT3yKcX0HHJkSXkUt63W3a+kUT3OR5+i4pWZfgraNebf61vJXMlMiWqQABYAFXMlMhQkBVzIKHAhMiFzAFzIAZMgBMiFzGFXMlCBkyFAglcyAFXMBhVzGTIVcy2GTIVcxkyFXMzYAADcCwpNe2Q4kXUdF8Jk9HvZTi+g40BySnZfCW78tznSHwlnFrmQORTtfhLGTSXu8nY/1nWcQMmQ5FO2+Ev7ID4S/sg4hcyByKd0mkvd5IJ+Ev7IOCXMg1zKd98Jf2QMmkvd5IPPxVzHMp6Aukvf5IGTSXu8kHnoGeRT0RNJe7yQT8JUh8tSeN6TzhcxFzHIp06WUqkwmJsjMZLG1O7yQVyvcIXE6xFzMqt0sbU7vJBPeZU/1OB9X1FOKuYSl13mVMO8yplIBaKXqWMqdwyWMqdxQAZpV8tjaoi/6l+25XaItjXb+O2di9JSAaoXfeb/AN3DJY3d+jiiAUL9LGbvKNOY+r6ie8z7Xpxz4Ch0HeZ9r04VaBwdcPa9O3FCBRfbGkPlqtTsXpJSjUu7yu3+y5PYUAAXy0amX+Vw2NS/nf8AueJ+LpKEAL7Y1L+d/wDDwwbOy/FvVfjUz4vD/D0FCAF4ux7+JenH2uhxrkr9xH8nflto4vSUgq5gXv8AJj7RD+TH2iUIEodAnexd+kRV72L/ANIlCAoXi7Hv4mnVF9roc6x4KnZyXhRt+kOYqZ4vK7SgAUOg2zZf5oFWs0a/iKRxXQUIGaF4tZpl/kgjbNM+aCkFXM1Yvds0v5o/vmH+HoDbNL+aP+Jifi6SiAgv0rNMu8kELWaXf5I/vmH+HoKEALtazS7/ACR/iAyVml3eSP8AECiAC92zS/mj/iYn4ukVazS7/JH98w/w9BRLmQBfbZpfzR/iBG2aX80f8TE/F0lEAF7tmmfNBjjrNnNZcekcb0lIuZAF/C9ZiYhRzZE7v/VcnsEi72NZeJqLH1fUUYBaXf8AJj7RGTvYu/SJQLmARuJkSAFoAAAoKuZKZEgUADJkSSggErmQUADJkQuZLEAAFAAASwCrmMBRCZELmC5kpkAoDirmBKZELmQMmQCgSuZAAAyZEgIBK5kAAABkACrmBaAuYABAAAAAABaCrmQOKuZBAAAAAq5kASuZAAFsq5gC5gEboCrmSmRoSAAAAAAMmRJCZELmWgLmQAEDJkQuZAEoAABQAAEoAABQAABLAq5jCrmS1QMmQoyZFELmQOAEJkSAq5gC5kDJkSAgErmQSgAAFCrmALmBKAAAQAABbAKuZkTIZMhQwAZI+Uoi5ihAq5jCrmQQACrmALmAyZGOPlKB0srTJCYl4XHqjgOrfe3wPEu3+d0mXY1L+d/8PKWDkoC5mhfQUal6qeN/8PK6cZal5iNtl7HaS65zDw793m9BojJkBnlOAcMXG5zdeXEfe7rcdw3F6cLk9hz65kAXy7Hv4mo1Fhrob6jHFszWXjqi/wDWdZSmpUpvZ7GMOTWqO5NN+dwuFR4OJh7rsXlZdJgPmXSrp/q1BtTUJCmU7HcZw7nOu9uFfeeaO90ra7Ei4TSeP/O93quMTm7fseo+eE0+5QPieV7pW22BDgUnit93pM38JW1ny9J43pNWx9vlHib/AMPtID4pj7pWs6y41J4zpOhs93VE5ZxtuanWcCWmb0w+q5bvcTk8p05+p/w+t0yJPAKT3UlJqDkLUHJXf6d56pZS3DVpZNh1nmnL7uxVT3E54+3hOOzGfOE/4dhI/GlLV3gGuuNTsd3de5wzDv3eb0FRq6u4VczfyLfadLl+L2Rl9Zifi6TC5WaZrr4oK0VcwlMky81MPxOMs4DS3XN9W4xDJkQuZKUi5lHae1EhZiUWYe5xN6lxP/Fj5H7oSsbWt23Qv1UMKf2oEi9509Ppy6jbGrH92eT1V7ulLOtuxQvVHAdRblb6jalu6EsvMMwuYuPffxnXvPkCk6JGJmsuy07NPSMskXPPcxv37vT6bz0mU0EWGel4JSPSAy1HCm+CX5CX793p9N59/d9Dz1R/zhjm+g2tP1Gw0wOa6Del9LFLqDUMx5/u3e4+YZzQbYymzMctJW6nZ6Ygu4lrB1d6X7tbf09JYSOhOyDErBNT9pqjLTcV+u1wOFy65bk8KHcu65dxzR9H6nPzri4Xni+r6Dpeal0gbZqOA0l9zfVvOoTTJuTxufEsdO0bUnhcpM2tq3CG0TA4HT/CvVL+M+jf6DkqdKVWoTMTNKtamtrLqXN4e6/d4PQpvD6J1WeyNeNeWe4/RJm30/UGoZhmr8VHl2bvcStp6pPrg42P9Z1nzLoMpNp6LPRrVrRyU9DDvVl3ldp9BsTEM01C7BC3DDFfua5PVuOPr/p27oJmM/NM693cynGmxMwuwvxI9zu6/wBAqZAmQHycZuIl0z4KuYAuYFQAAEoAAAob0tNz9PYheZ5vfd6TYgtpVIoUXaPB/q+oqQFi8gtlU9VPG5jnrT1SflUZxsf6zrKVcyUyFhEhdhS57nekhcx1zEXMglMiFzIABVzNinTez5jGNdcxkyLQ2wAChkyIXMgAAAAAOdtv5KX7joijtn5IX7lMTL00fp2xj7eEP2a2hHOzHnp7Eu9xxchYWfl5qKaZqOA1FEtzfA8S67dyuk9mpfk9/wC5fapy8PT96+0zrjHZlV0/Z/VPqfU9Njq6fTsipiP2+G1Y/Rw7aJ1uN56Sfcj3K46283Ety3b4YdyZdBf2o7niflZtmZZw8JVRUwtbVy6Nbf6Tu9FXkmT/AK3/AI4jPpC75O/aX2HzfAYsb7rzt7OMeOT4GXX9RjMxOyJ/s8OrNnapI2lmKXs6SfwUgTEd5S3wQxb/AEmrO0Z2GZjkXmqcw7Bde31Xpf7zrNIMvUpeahmk/Okd/wB6bl9ZVyUw7NTUg69zsUDd/ZCiGezj/J66vq2/OeNx/hyz+jmQedijepzT7q5uNclfuNmzVMasXaOXiZZwGnokRG+o7i03lp/+jB/4ISh/S9J/7fB7EPyuWzLLdlhH7TL+yYa8eo6LCcsYiYwibr58PoKV+LNL1woplIh6fvX2kn39fjCH8I6qYnfnMe5ACrmSmR6W5ULmSmRIyZFGCb+ITP8ARPlqrUS/STV57z4IfU3CnuPqie+KofPukmzL8pbbar/xKdhRIf6sKQr64VPvf6e2YY9fj3Y8POYfLFai1qvOL9bF7Ts9Efxqf/o+4ee0Xz9YtBNJQn8eCKO+CV6t2/0revadXYnRNWabUpmWr7HBnoETCa6lVEVPbf2n2vrHS7tnUbMteEzEzNef2t5TDjZX/SbJ/eevV/yXN/cUb+jetUi2NOn5jnYr7/uTcnqRDqK9G65SpuJ7nLlvP130Dbj0v0/Puz59enyc8c+U0+fItCNuraRx1mh07HpOssUbnWkK6q+tFNuxMgtLt9KykTOBE0mrE31Ldv8AWcdWLXT8taecpzNRnWG24kubanMOFL4UXdD0ZnZaLJF2etLNPvPOPux6t7jzmJEvgom+LpPyn07/AH/qXKMpm5+HfhfGLeszXCOEOcC+MXnvuizhneHS9ofG+N1/97Hd6rj5/nmJ+XnWIGObRdx9HWCxe9Kn43OXR3/24j9X/q77fX00cfOVeV6aP1y6GDkoSCZAfxfGbxiX0cvkAKuYGmQuYAAAAAAAAEoAq5jCrmKEAKuZAoSuZAyZCR8pRQkVcxkyAo3UyJITIktBVzIHAtBAHAUEEnZTaEojP3mYVczHFrGeOyM/TzKs2LtJQqhUZ2hv47c0kKPSvUiQonruv7TgpCgVJiaigSjzsPhKqo1J4kN671ui6d6n0SKuZxYdNlhnOXJ+jj63lVZasZr8OIs/V6pQKRLw967j+prcY63hxL4Srvh6C9l7dOzTMLr1DwHYs2+O3Xbvzd3oLkZMj3nHL2+fl1enPKcstXmfy8s0lRd8DbUXC+Aa6/F/C8Do/O3789/WUVNg73ZimwY2PqQRcZ13xKvvPb1zIJwy9urT13TavPYv+/8A8fPsxaHhU06750Sp6FVCwoFKn7R1SVcZ5tmLWT0nuC5mSDkocOPQ8c5z5fL9Xt/1fjno7GGiv01/y/8Ah4YnYoIMbnUhRF7EuJITIk+pGNRT+b5TymZkq5iLmZ0yGTItMtdMiTJHylEXMog0KpSWK+0snO/FsjfFXM3Ocxnjnh4pKedz2gWzrk05FT6jWmH1uXDlObTd0f8AzO835HR1UaPKwScFqKqxA3fc29g6yXrfv1t/T0naAfV2fVurzxjGMmODhJmwTs+9Ey9XJZ9zde5Nyco46u7pih8Ne3ouCDRZwWFGsanP6vymz1337+k7sDzj6htiKv8A/W4xx9OFg0UyFQammXqRTqu7dv8AF/M7szh4u54mpaKKYkqlTmJZVVYG9n8nfvT03n0JJ2Zn6hLwTDPNR33di3e42oLGVPVQ9cPq3U6NkbOnmMZj8PKdfl5fYyxrtBp0ujz1Ifdg1r3GW8N9fCXOHo/+jtEi1kRfC/r5l73m1RP5l+25XaYnLMOyEavPYeL04PJ7Dn6vr9/W5TluyuZTXq7eV2pwNiZi1n4l+72GBcz50RXh0TNzZFzAYAhQBcwAAAAACyk6bwiXgc/iW+/neVn0mwllOEJieLt4FGuZKZF6ljp+7idnYXQLOWYdkJRHnsPF334XJ7AlqGPlKKPra28CWqEyIXMFzIKFXMBhVzA6ORqchLysDb1Ox3Uvvc695n2zTPmgoUyJLYvds0z5oK+aeamH4nGWcBpbrm+rcaQFsbclU+Dzat7Ox7ruM6y1drHGL4okv2vK7TnwFi92x9kU4wuVjw18UU4qAFjLNPcIficwW2L7uLa5KbugwLmMBkQmRC5jAZEJkSAFpbKuZKZEgUtvS03P09iF5nm993pNmC2lUihRdo8H+r6ioGTIItu/Op/rsf6zrMcdfqkxErm0cC/5PqKxcxFzAzzLzsw9E489jurde517jETByUBcwIFXMyJkSBhAyLmIuYEAMmRICASuZAAAAAAAAKuYAuYAADJkACgC5gAAAq5ksC5kABUoq5kDirmSlQAyZELmLECrmMBRtgKuZKZASAAAAAAAAAAMmQoyZAQuZBK5kEoADJkQuZRADJkSBCZELmMKuYEDJkKADirmQMmQAmRIq5kASuYi5jABCZEgAAAq5kASuZAAAAAq5gC5gMmQACZAKuYAC5gAAAq5jASggDirmLEAAFAKuYLmQZAAGOPlKaFimRC5mRMjJBTOEQo51lpLawGytG3jwUbwUIW0wNtaNvGSjT93E810BWkMmRt7HqYbHqZaS2muYi5lnBR6nqoOlGql3k7H+s6y0qqTIktdjVT5oGSylUmExNkZmUtUDJkXCWNqd3kgnvNqfzQWi1OBdJY2p3eSBksZU7uZwPq+otKoVzJTIvu8ypmOOxlT1lMikXMgvUsa7dx3AsXpxeV2jJY3d+jgKJMiFzL/ALzPtGnMfV9RjjoHBolb2vTvBLQowL1KPu8r04Nj/a9OIKIC92NIfLVdvE6cLk9gbGpnzuWhRAXi0al3+V/7nifi6SNjUv53/wAPLQolzIL7Y1L+d/8Ah4f4eglGbOy6Yb1XncVM8Lk9hkUSZELmXy7Hv4l6ovtdDnWYo9may+UQlqUC9h73dVMbaOL0mWDvY1U8ogtzoF653sa6+URF2PfxO0cLoLRajXMC9Tvdu47aOL0h/Jj7RLRaiAvf5MfaIyd7F36RMlqADoP5MfaIq97F/wCkQW59cyC+XvYv/SIeJ/kdo4XQSi1CBfeK/rP2vK7RF2Xf5RwPq+opakFXMvPFfzv/AHPE/F0kLTKXMLibXz+zxxLUZjj5Sl/sal/O/wDh4bGpfzv/AIeWi2eO2VT1l8Y4H1fUCWyqd3lcp0yJFlLjvyqfzuKtsqnf5XKdcyUyIUtu/Kp/O4bfqkxxm18yqAKsY6zVNZfG4i1iqX89j/WdZogW0pvpWapd5RwPq+ohaxVL+ex/rOs0QLatmOsu6y43O9JGNwjjOs1wMpTYMcfKUxgWykrmQAFtQAAZAAAAAAFsACrmSmRBIAKuZbAuZKZCgWxK5kAKuZkMAJkKuYSguYAMmQKKMmQq5gWyguYDJkBbKKALmBiygACrmLKMKuZAFKACrmQCjirmQA5FFXMAXMC2vFuJkSKuZBA4q5kpkSBCZEgAAMmQoASuZAASwAAFAMmQoASuZAAAAAAAAAAAAAq5kpkSAAKuYLmQAAAAAq5jAAJkKuYLmAAMmQJkKuYAuYAADJkAoAC5gAEoAq5jCrmKEAACwq5kDgUIBK5iLmZCx8pSDKmRjj5Smmm4A0u9whmFzrMyZHlzXi1wMy5jJkTufg4tcDaSmcITE6yvqzmx21i6i9z8HFkXMrZy00hT5iOXe52C6/tS/wB547pe0oz9Kk342ebRN3oQ+WK5phtFWlcRnmlXce0eYt5zL70mdItLl34m+q72F5Sqm1WJBqcZ5py+7sVU9x+aEhaisysysy9zq71PaNHXdCu0mVlpR7nW77+2JV944lvtRMgPILJaZu+B+CLz/wD6PW5Gb4dKNv8An3+248+VeG4i2QDbapnCG0c6zKlG3F5Y+2+CvAsNjBsYcsfbymMr+FeBYbGGSjbhyx9lZelaBZ7GDYxOePsrL0rkyJLJKNuJ2MOePt6xgrBVzLXYwyUbcTuYpwU4FxsYNjGe7ivBTgXSUbcTsYnexXt/lRLmBdrRt5Gxh3sWeClAvEo24haNvHexTipALrYwbGHexOKlAutjDJRtw72JxUK5kF8tG3kbGJ38V4KIC92MKtG3jv4rwUgF3sYZKNuL3sV7f5UC5kHQbGDYxO7ivb/LnwL5aNvDYw72J2/y59cxVzOgWjbxFo28d3FO3+VCBe7GDYxe9inF4Ho405O1CSlGXtnYly3+MPpU9okbb40o3H4u33/pD6T8ZaXN7PdR49v0WaYcDg9O/VqqemJV95xZbsoymOLzjN+mC2y3/o794f8Atr7RFtlv/R37w/8AZPmizdpJCeZZfe52PP03HcyrzUxLwOM80uR83f8AUMtP/S/7uqNdxb0Wt6T9jpFF4h3frqh4WXTxJ8090F3Q8/NQLLM1GlMNJdc21UPBTcmW5PYeYd1Ja6fs3VZltnmntRE/sQnzDMuuvPROPc7Fcq+g+pq29zXjnVXDkyz4zMPXqrpFdqrSwPPNvurm405iQr90XSc7tfV3fxL9ryu087j5SmNcz6OOXiHNO3z8PRlrO/yjTmPq+oeGs+Cnjdv9jyew8yj5Sil5L3Pw9fpdt9kOpFtfI+l+5v0t7SnUa2vJdPPSbzkWfTFDuXsPg2Dkoe+9yt/nFF95y7su3FurTPcmn6PMV6feahjZq9Ow1y8XzH/qJ7DJtmp/O9O/d8x/6x5pNzez5OF76Dlpi2k/E9ErPN9B+U2dfsjOYjH/ANfex6HGcYnn/wCPZpm2ztHfiietQ2w6l17bVPmNVN3RxxXP6ZZCJ2JXq5judLmz4t/9pVX0qeeSM7K1CVgmJ34zHfr9i3J6kQ5q1Eu1LzLs0zzUV13YiIeX9Ry9OqOjxiPl6ZW+6Us7Z9IoXqvO4sGeFQ8SHr3RdOZlomn+j2ipjNQZq1Rwnta7xWy3lEsPJi3pl0ngW0NpcV2FpJUC0kjLQVah83KXwvfcq3+89Y67KY+Hp9pi9xc0yUvXXxvXv2VPl9XsN2W0otTDELjNXtFhLfdxcu30+b0HhsjA5BNLi85F4UX3rv8AedZS6Zwh1HOs856/K/hn7XF6ozbjhDaObWqu/wDW8H1u0fb/AAjjNrVHf/R/8u70HKMM8Hahb6isnqlPy81G2zzSXXegz/UMvT5eej9U+XZTFrODvRN41Rfu+U4Zh3/1egq5rSLIy78Tb20cRLr/ABh9BziPOzCYj3Orma7vOKa+9ynzTknCppfz+kOlsS3CtnVF/W+U2483fdu5MO5Owr6XpbpdSdRrZFRzu8qTDn4uk5qd+Mx9nsIbpnCIEc6x93ky7qZtg1C9EjNIcwt12LUJjWy6SIbZSGqmNSOM6eMmHPxdJxGDwfi+o3aZwDGTG5zpM/d5envGFw7mWr9LmGYXNkyW+/ndbWz6dbf6R1rNLv8AJNOKeDC1Uwea6DTmefi7PYZ+8y9MTr/K7drLWIuDSKdhdBWTVY4+LxTTuj/U8To87pK6PlKIuZr7vL055ippurWbl8kUH9rT/C7TFHazg8St7Is7u+zyse52IQv3WTFrtuvcIgRzZFK3/qqf4PYZErNyeSKD+1p/hdpQGw1zaD7rJXSS9ZkMKHGpFncTp8XmZKzS7vJNK/Y0/wAHsKmT+LwdvtMb3OxGJ6vJ0xruLtd7ZpfzTTv3eaFVrLWEuDZenTDXQ5s/MoJqp8Hfib6rvYY5p7hEkjnXf7TP3mXp7xo8fJ0tXwdMPYVBYu+Tdp/hJ95pTOlfZ78Uv3sWdf1LuM2fnel/vKie+K+n2lWzMcIbSV82/wBam46vL09I6f8ALupK320JaCY70bO+Hf8Ao/qW73Gylsd3kKzrH1ez8jjpaXn5ViFpjmob7u1bzeZxcKHH53pL93l6Z7P5dtJ1+QmJeBx6k0rFW+/Bbw4c+iHoNxustaiYNIp2F0HN074m32+1Tcg5KHlPW5emvt/y6ButXQJ4ob/ZcnsK+ctZweYjb2Rld7DkqxXJ+QqCSzPNxNq6nYhzejvSTTtKsu+j3lZiNxtz+pHFDD6kQurrNmya4vCdVT8vR49InB4lb2Rl/wDmPN/hh3J2Gq7pL4xfFH+ITBzurFAqwx8pFVDC5y1PeepyiackzUzD8zTepc3s91HimGTI/a1j6ccT4eiUW2k/FV5ZWea1kuPrmzFtXaRYxqoPc7E3Eq9kSp7j4Zsv/nJTP+sT2n1JpM0gSFPsg1SnudZaS/tTW958nfox2zMO3HdURFPH9J+kjv3tNUPqVhX8EJzrlkqs7YKK3a+TVnoafB6Ll9aKcnOzbU9Nuvs83Gu72HoGjW2uw6bNyX62FYfTf/zOnXr4Yxj6fKz3fqnw4F9+GZfcjg5OssPoW73CpkWc9ScScej86JYvSVz0js92J46YyqKck7PPweDkoYnOWp0li5SQqVVYmXudjgiv7FVPcc9WWWpeqTTbPNJGtxea978ETI6ayNqO9h+CY6v+ZSU2hz8/JxTLPNQuQtJ2nY6WrISmimTs1JyvltxrEnfujVY4fwxQnht/3Yp1aeo7c3Trl7oGfcXWZ5u65D0bRNbp21FQZee5xxd/Yt3uPkpMNb1a5Cqq9t+/13n0V3L9T4Oj7fUi+1T4vVdN2MeWPl+h0b+9Xmn1pBDqtTKf7Kew5Jvh+quBzV63ek3ZOsyGw2sbnb47/wC0pQzNrGpd+JtnmkyPzGWGzKZni+/jsxjGItmgxdpR4/O7r/Qg09U+DzUbfVd7EOWrtqsBY5rzrvUlx5nbnTAwzTYoGPjqJ4Xu9Vx9HDpcpxiWu/i9ykZ7aE0rJ2kjL8FlW2vNv9a3nwLL6Y6thJr8q9faZPhkqh7/ANNynzbknq8Ymn6GUup8HdRvqLmovcIl8TrQ+EdGGmR3a8GPzl+8+lpPSzIVCWbZe527ecuXRZRMxbknZjlN279vk+kwu84pQSVdpb0tBH13+0h2stYi4PN9ByThsxmuLiy+ZXMfKUgqIKz4KG2zWeKhPeNeUx8OWcvKwg5KGy1zaFA9aSQkHInnud6TCtu6ZNLi+d7tx5zhs/i6I2eI8Oub5CG01zaHFwWya1Uwea6DbZr/AAhqFzrMcNn8Wua7mufi7PYajnLUqnazIYi43OdIu2Wvkea6CVs/i5Z8yt0yMTnLUp3Kz4amRus+Ahf9z+LylYLmbstzEPb7Soge4RCjnWTtKQl+Le51MzVbP4tL+DkobbPNQnntQt/S6fNuS/mXetEX3jMW4amGoXGeaXIzw2T/ANX0cIx4x5dTUfjjnZ7EKqp8ypTVSv8ACIJVzrX3meqVniOxPYY4bP4uuIxr5YH/AIhD2+1TTluZh7faV61nepqtPcIqMbnXd7EOqNOVPWOPteyvx1ez2F5szhFznWUkj8a9HsLKYtNIU91Zd7nYLr+1L/eO1k8/0+13Js8Hl4G+q/2lpLVPg7MLfVf7TgalbKl4Bz/f7S6fxx4Tp2X8PWOPt6RU5vhc1MS/85ZWH1XHw3U5uuaGNJ845IfE3H0V37lRFX2n1BBpIpdahROvccXpR0P0TSDTWKmxPpQp1N8Uyvy925E7ERE7D6/TYdqrj5c84YzPy9TsZaOWtbZmRq0pzExCqp98MSwxetFLo8y0DUiKgSs5TY3+ExSsi5N4vnXRxJed5LVPAl2k86FHP7Sa3vPHPVlllMvl79fb/Vb80DHHylMmxqpcn3J7CFo9TvP2vJ83HzEMtOm9nzGMdLZuds7aC3NKctVMuyNnE4qoPSfKw1yxPov9VxzjVjKoraTvn+7d7jMxQHo4HEehZhdcchcWGb5t7V3Xeq48eMXdtcsvT0TS3oOmtHEzwiRnWqjT5pUclJlnkxsRIkTXakCwov0opyVJs07JRwvvc4u9T1W0umV+2tiaTQX7NylOkqe3hwy8jzMNyresP3rfEv0qpw+uxGl8szgM5Qt9XX67zz514fG2bqzmKK7FrOKpla5tDEuZaSXxaDt9puJeE7L/AGKzzUJW1imcIgic6zemOeiNVzlqLO47XueZ/wCD20+1f5zBEnovT3HHaYLQ98NtKvX/ANVHDD+CFDelaRh0Obrf82iSH0mw+7IUmNHHudm4IVXthQzb2jZ4+Hk7beFCidfh+nf7y9srXp+jvzETPNIm70Hrei1aPQrS1mKTm9erzkksmi/zWCNL1T+si39o+kjSY7Q6Clh7Cyne5R320hrEx/OI7t69q3mucT4yi3T0u3Zy8Q8wTS/VGb4OpVNV7SjVJhxXOs5lKJNQXwya60uiqkK9e/evpvGSj1O4na1z54vu97Z6dO3pTdmIElXucTP2+8p6jXsaccj67vYho7Gd+W53pFWjbzfbx9J3dnpDr3CHFc6wTIZKNuHSjT93E810HvHGIqnNM7JmztTfAG0eLCmWsn2nuFs83Fl2bvcVux6mGx6mc2WvGZmaL2OwXS/VGV1Ooj4ZKocctHqd48FHqeqhOzr9OmNuUR8O/lNO9Ul5eFvzb/abben2qaiHnCUep3CR0ep6ynjPTYTLymcpm6dnW9LFUqCRTHn+5LvcUtN0l1TH7ShjozusuNzvSNBRvBQ6I164iqbjPL075NLtUl0RvqEj0yVTWU4qCjT+qmDzXQQtHqd5nt6/4t88vTtk0yVS4xOaZKprqcTHR6nrKSlHqdxO1r/ixOWXp3bWmSqYaG/L6d6pLswt9R543RndRMbnekFo0/fxPNdA7Ov0xeXp6C5p+qeuppv6aqpMOxOdZw60Z2/jud6TFHRvCU12tf8AE5ZenRT9v6pUJtyY8+71Iie4zS2kWqS7ELfVf7TmEo24nYxO3r/i872Ouh0vVSXhRvqMTmmSqa6nKLRp+/iea6BFo9TvHZ1+nrGWynW/CjVJjjOstpHTjVKfKwS/mX+tb/eefwUZ3VTG53pG2MeX2+Fr3Nnp3rumqqTDiudZqO6Y6piLkcTHRp/WXB5roNdyjO6643O9JPtsHtEZTF27R3SjVJhxXOsoqjbmqTE44513exCoSjT93E810CR0Z3WXG53pOmNeuIqm4nL2uKfb2pyEzjF4umWqRLecdBRvBQnY0/8AI810GZ04z+znnLZbu5fT7aKiNJg7mn9yew3GdO1YlWkbe51N69u/3nnGx6mZIKM7qpjc70mZ04el2bMtmMY0taJVp9iOTp7PNPRLCnbEp6pQ9F85VbTRyE78WlUgj/tQpH/5jhbEVPg9Wk2+qL3nv1orWcHpkw3/AB3c2nNcnkpkeeW+pmKfNjZUVSttBoZq1bijSk+T5ZEw/Qmt+K84yYsRNMvRNzvxmHdH7vVcdLoV7oOh2KjmZG0cdWglsbhcvNybuvFLqi3LC430Iq3r9yn3AzZqi6T7IyVcl4EbZqDeLAiNYV6Xql+r0Kt1/wBN955ZdRMfOLpz63HVhH6L/u+MbMWZ27YyfpXE+LlxuJ5/jV1d/wD8yuOUk7FUeX0kUilVnG4BLNKzHwjl68KXQ3+rsuPQdONjmtFWkFudZ5p5Ibv7CHn1n9IVVplpnqpSajgXRI2+31IqJ7jPcvzT8xs29zOc6+XM2opTtFtBPSTubbi6v9Bd8H4VQxMSnD4JNn6V9qnb6UKY9TarTqo69jyVQg10c61Xleu84iVZYYZ1JbmNaJYe1VVfWqnRGXhjk6W3sjs2Us1LeZDH644l95zMK8GqzM35keH6SycmOEU6CV82/wBaqpsWCm9m2mlpbzI09e/3jmvJZaUKB3kU2zUl86QRvemNV95xbEhw1vF61WH0Ld7j0vTm2/V7XNQv/ElwtX/dw3+u89Nb0PUK0GiumbBe2faGVgcnnI/16wuRJCnoRE7DwndU/DcZvBKJNbLWGW/XeCeq2V7mG1ltJVmcpnAuAzF6t4s5hxZqi3w9G9FM1H0AW+csHt5JCcm7QzM+kcvTWWsNtYcteNzpS5LyvmNLdv8AQXaCTpr03S7QvVRy+OWpbuKktEi3LDHF03dPVdcWNkS/QdFs1+Lh6Cx3BOkp5qGNnZ2EuXjAyp3Auk679HfvA7qvd2dbux1l5eobNs69xfLT6N1y/SmXYeZtflXLdwwXd69nX7lVMTjt+/8A2d3oOjHZceIff7mv0S0fcRW4pEisVT2dhpn4wPF61odjoNTfkY8PXaVL8JzEh3oi7ounM9D0j/lMrWW9ocVIes3SpF25Uiea1tXf1a2/pPnSDTTNP1Jx2dVuKZiW+NWuT9F3ZcdUXMWne1+nauWH4PGrfUCWMn7uJ5roKaZ0oz8xIwuM80t9xQxaXapLqrfUHPPVa4mqd5BYyp6qFpSNF9Uq8cMPWcHR7fVSoRwzHn+7d7jPaDTDaOgPMQs81AqXe0xflPutfp9CWX7j22NpZZl2Sp0k/LOX6jj05hxLcqot8PRvRTpXO4D0lQxqjLNOYa6G9oZHEaDu7h0gyc3S7IUenUaYqVTmEl5VybR7EVF8KK/V3Zqt30HslD7uW2NEplqLR23p1KkJWQejlKfGykWq/ONKrdya2/OBU39Ricpj9m/udfpyzfcC6QNRMbZ2L0+MBv4Atu/s794F9o9/KK2st5MvSr9Cp0u8ymvG39K77+2+/tPTqb3ZNYfkW4n6RT8W+JF3r0KqHNu6ntRdPo6cMd3xDwep9wLbvBXxdTn/AKzaGZNJ/J5WsmJBpx6bp0i6t98viYmpvX87pvz7T2etd2xaiV129j07ZycheOvy38ndnedRoq7paTt3BHFNUhvHavWLC1tXNctbfl1nNHX4zHw6/sdv7YPnmd/J72vp8oj0lO06emN/ElO33BulGbgR2NinS0UXyXDMO67dyei/PtPtab0+SaSv8SpP8YS9LvuU5+PT7VtZdekSet9byu08J+p4xNU3HQ7P4vk1O4F0n3fo794Gy13Auk/DTyd+8D6ah7o+psVKNvZNP3XexAnu6jtBLzUbbNIp6tpddvXqQ9I+oYTF08Z6app82QdwLpP1U8nfvAn+ALpP+zv3gfRK91VaW/yPTvSpkg7qyrpCmNSKfidO9T1jrsa+Hn2I9PnRO4F0gXcds7F6fGBC9wLbu/ydTn/rNoZn0M73VtosRcGkU/C6N5uUruo6xPuoy9SKfi9O8n32Ppjsw+Vp78nlbuYmo3MGnMX3cXtDLcWMh+TstZwRvGqNOYd33t4mJdvX87pPrOf00WidlkjYZpzDapub6jLZ7TvNS7cDc7Tm35lFXXcZ5K71uu7Ljyn6hj6Y7eL5Knvye9vafK41MnadPOdDJSwdwbpWm4cWZYp0s9FymuGYd125PB6N1y9p9vVrT6wiRYFI/jt3hejd6rjn4NP1W1fDpElrfW8rtPSOvx9PLnjHji+RoO4E0n6qeLqc/wDWbQzNpruBNJ+GniinfvA+sPh+qnzRTjHH3SFUl4lbwacxd8n1F+/x9MdzH+L5Zg7gTSfqpxNOY+r2hkN/AF0n/Z37wPpp7uqLRMOK2zTqc+0mTl+Zhlu6ktPPzsTOyKd0ewff4+meF+XzX/AF0n/Z37wNV78nlpAmHYnHqdTn3Vzc2hmfXsOny08MKJsinGSHT9WbuOpFOxOkz/UtEeJlO2+L5j8nZbvFi4mnMfV7QyLOQ/J2W74I34xpzGfF4mJdvX87pPqie0+1ThUfE05jLi+rcWEh3Q8rISkD05Tm35nfruM8ld+67suNf1HD9oduOvGofItS/J/6SpdjDZepz7cOTnWVLPcC6T8NPJ3T/rmH0+b0H11Uu6ejmZ1xyl0m9xbrvQiGjF3S1b1l4TSJLG/OxeV9F/ZcPv8AH0nDH0/LVuy7tkKrTXHqjgOzEd6t9V6nrlpbXy1m65SafLTvDplxtEmmfoiS9PUqHhdStBMzU++7N89FFen9D8z8OqV7j3CI1c6zrnVGc8pyfjntNM0P0y1mkNp55jg1FmuOja4Zh6rcKXR+D0XxpEvadHIyNo7G6SpG1T9RwOBrg06HExNaXh8GFjW6daFEi7TzfR7MTdLl5dynP49XmVVJWX64dZUVj+st8X9Y+sNFuiSpT9kJ+q1SblXYX24opajx/GZGbRVREb+jdev3nz+ovX+9uPdnz/TTctXI0vugrHNQUudkp2ryyRuOS73KgjWJVWFfuy7D5jtVRK9Zydgps4w3LTEvFqxNM8lL96Xfeiovad5Yu2dqNF9qoqJiSbyVWow8Ljcbx2r0REVG0/MiTJV85FU7HSHo+sza6bm6tFUXWIoY1WJt5zEiRU3Lv6r03J0JcnQYx2XEPmTFeHldobRzj9Bs1SJ1+Sfl2ook4K7ykvciXf6b+01bb01il2lmXJZhuWZ1GVhaa5KcVBfd963r2mjG7To7XycnTHsdxtyGFHOvI7fTDRH4ZqBJnn9RvW/sQ3eq4642eIaeXvTHCnYnfO9246ayVe2RIzUXVGhzcyzwd5W+pE9h39hdFblrKOtpJvyNSUi4Z/1F6qvrvJ3Eto2rnUtdbFiZpNOx6k01As051okEN34bj3zuU5SoVJpuYaZwIIo3Ew+pUciRfWinF6MrW0yy61C0i07HSVRYYXOuS6PVcel6C+6BlLQ2jmZWZZwJOKJVkm+qFd6e05Jz8ryfUM3JuTdnXaU5TsdXoVhmXOtFVbvVceH13RTYHRNZmeRt7vRhr7nBdudaqu+W/rLevaXem3T4xopsvFOT/AuFvQrwbF5XCfk7/wCrqn5oaSdME9b63MzXqlh8Om44FdwuTrQwQwbv7JmOkzz8xl8urTjlhPK3rfdY1OzMnRmaTSbRzk6stG20+w1yURIU3J2HKpoKolvLJyVfsjV0gjk2kSpyNR/Mi/N1PpVLl7TzK2lV2ujEPXd7C2sbblixWLJM0eTWdjhuWde5UV+9L/uRbuw+trwnHCIv4fS7mStr2jCtWdemGpiF2BxmTjnrneVcirq9l1130XHPw0Cpt0aYnf1qNuemFFPRErz717kzE3E9EqrErXJ+i7suOo0fWlcYmKjTJryHU4UWZ/pIiInsOiM6inPPUZRNOEpETsVNl1e53V3jPWa2g7FMef7t3uOgnWm2Jt1tnmYYlSD+j0eo11zLycs7crVUhStjzOt1GzPSm0pqOZ8+71Iie4yuctRSUvcy9stk2WbKWvk7QsL/AByVRUiT6ej1XD6XdJ9WtCxDKucqKJV9K3+8qZmp8Hfib6rvYU1Ye4RBE51nnx83L1jPKvlu6MbRu2Qqj7j3OPoiL6D6S0e1XbDDCecsS/iU+TKHKbQq0sz/ALXvPsTRpQe96nyc39Cr61Pm9ZVeZfufp23Hhjfp2MzRNV6JPoT2FvZhng85C31GxFUNqLwrz0RPRu9xcUSmcIWFzr/5n5HKcuU1L9fj1GcRFO3g8ktfcvtUwS0pw9mFn7/abkgzweUbb6r/AGmvNTfAH4nvu9hw5cr+XDlv28p/U06nZ7grKteb7955/X2eDxON9Vx6C5anaUatdhUVilY0EUfWe8TlXy8JmZ8y8/o3+s/cU7HlCP8ApHWus8Hcib6injol9WcnfPu9SInuOmOVfKcW61zcJZ0nnUHlqrgsQwdRYU2S2g/wjz/du9xP1e3NPy6ym/Emu32qbJqU1ng76N9RZTPPRdnsPGYyv5cc5eWrO0zhEojnXec9GzweJW+ovXqnwd2JvqNF57hDsTnWavL25co8qGZ5+Ls9hWTPPxdnsL6a5+Ls9hXTFM4Q9E51npEZe3k1WqZwhtHOsJZng89E31XewtJZng7MLfVf7TYg5KFrL213a8Ut6f8AE2+32mZczUpPOoWkzz0XZ7DHbwn5h6RmwzNM4RIwudd/tONrTPB0jb6jqJi0uz3opfzPfv8AeYJ2LvglEi8+/wD5GfMfEu/H/jDy2r5S39JfabL9T4O5h9SJ7ELidkdmzUct5l3rS/3lc9KcPdiZNxy9pT//2Q==;" vertex="1" parent="1">
          <mxGeometry x="950" y="480" width="400" height="400" as="geometry" />
        </mxCell>
        <mxCell id="ftl8LwkWCeDw0nH-mkyN-9" value="" style="shape=image;verticalLabelPosition=bottom;labelBackgroundColor=default;verticalAlign=top;aspect=fixed;imageAspect=0;image=data:image/jpeg,/9j/4AAQSkZJRgABAQAAAQABAAD/4gHYSUNDX1BST0ZJTEUAAQEAAAHIAAAAAAQwAABtbnRyUkdCIFhZWiAH4AABAAEAAAAAAABhY3NwAAAAAAAAAAAAAAAAAAAAAAAAAAAAAAAAAAAAAQAA9tYAAQAAAADTLQAAAAAAAAAAAAAAAAAAAAAAAAAAAAAAAAAAAAAAAAAAAAAAAAAAAAAAAAAAAAAAAAAAAAlkZXNjAAAA8AAAACRyWFlaAAABFAAAABRnWFlaAAABKAAAABRiWFlaAAABPAAAABR3dHB0AAABUAAAABRyVFJDAAABZAAAAChnVFJDAAABZAAAAChiVFJDAAABZAAAAChjcHJ0AAABjAAAADxtbHVjAAAAAAAAAAEAAAAMZW5VUwAAAAgAAAAcAHMAUgBHAEJYWVogAAAAAAAAb6IAADj1AAADkFhZWiAAAAAAAABimQAAt4UAABjaWFlaIAAAAAAAACSgAAAPhAAAts9YWVogAAAAAAAA9tYAAQAAAADTLXBhcmEAAAAAAAQAAAACZmYAAPKnAAANWQAAE9AAAApbAAAAAAAAAABtbHVjAAAAAAAAAAEAAAAMZW5VUwAAACAAAAAcAEcAbwBvAGcAbABlACAASQBuAGMALgAgADIAMAAxADb/2wBDAAMCAgMCAgMDAwMEAwMEBQgFBQQEBQoHBwYIDAoMDAsKCwsNDhIQDQ4RDgsLEBYQERMUFRUVDA8XGBYUGBIUFRT/2wBDAQMEBAUEBQkFBQkUDQsNFBQUFBQUFBQUFBQUFBQUFBQUFBQUFBQUFBQUFBQUFBQUFBQUFBQUFBQUFBQUFBQUFBT/wAARCAGQAZADASIAAhEBAxEB/8QAHQAAAgIDAQEBAAAAAAAAAAAAAAIBBQMEBgcICf/EAGMQAAECAwQFBggIBg0HCgcAAAABAwIEBQYREzEHFBUhURIjMjNBgQgWIjWRobHBJTRDUlNhY3EJJFVlg5IXGEJFYnJzgpWio7LjNlRkdHWk0RknN0RWpcLT8PFHV2aztNLi/8QAGwEBAQEBAQEBAQAAAAAAAAAAAAECAwQFBgf/xAAwEQEAAgIBAwEGBQQDAQAAAAAAARECAxIEEyExBRRBUVJhFSIyoeEGQmJxI4HRkf/aAAwDAQACEQMRAD8A+0XnnZh2Jx7rVzFTIUD5j6CVzJTIEyIXMAXMgZMiQITIhcwXMgDM30EBczCBbSmYVcxUyJLalXMgcDIhMiFzGAJaEyIXMFzICgAABkyJEAtiVzIGTIhcy2JTIhcyAFgAAFs8QKuYwGWgmQCrmADCrmAAAAAAAAACrmMBbSiAOKuZbUi5kDgZCDJkSAGOPpKQTH0lIABVzGADaAyLmQEtCZEgAUq5kDirmBAGSDooC5gYwHABAMqZELmBjAcAITIkACUVcyDKmRC5hWMBwAQBwAhMiQABVzIHABAHFXMCAGTIhcwEXMBhVzAAGTIAFAYAFAYVcwlgAAKBVzGABAHFXMCAAAMcfSUgymOPpKBAAAG6BnmWNXfibxse67nOO4wrmGUAMmRC5lpbQMmQoFotK5kpkKBlUrmQbkvqGDDj9b2m8zsvCT4RwPs+BaS1KMmRdLsu/rpx/wC0a6K/cJFsu/5T9L0u8tFqkVczLOYWsR4HVbrvQYRSgAAUAAAUAAAUADeltQwYcfrd9/pNiHZfJT4Ox/tOIpLVIF0my7vNAs7svVE5nA+z4Ci1OBEGFyeZ6vsN+W1DBhxqdju773OO8UrRAuW6nS5eBG9kZf6Zh/1ewFrNLv8ANH9pif1u0UKYVcyydrNMxF+CDQmHmph6JxlnAaXJvgZGMZMhQAlcyAFXMBgBMhVzAYVcwLKTqWry8Df4luv63pZ9oSlaBdJayfl0w2cPCTLC6PcHjnUwqlAtp609UqEqjJSwQuww3Pdb2gZBVzJTIxOdNQHApp20uz5mOX+Zd60v95uyU7tCWgmPn3+pbvcFpuAImQyZBEm0zTZ+YahcZ6pcjRj6SmVvoIBsLmSmRC5kpkVKQuZKZEirmaKC5kDJkSCiDJkSBKUAAFSgAASyirmQOAtSAOAtLIA4FUgyZEgS0sq5kpkSAsoq5kDgLQgErmQLaKuZKZEgLAAAZAAAACrmMACAOKuYSyLmMmQAFKuYDCrmAAAAKuZX2g83eksjHH0lA+Y7b6/41R4PVcqC79VD2WweLseTxutuW/8AWUz16maxVX3OPJ/uoX9BZ1elMN8OV/eUNN1czJB0UBMiQyVcxFzMoAbADJkSBCZELmMBbEJkSAFsADJkKuYsAAAtLAABlQAAAAABKAABbUAAESgAACwACrmCguZAyZELmFQAAEsAAAsAAyZAtjXMgyLmQC0JkQuYLmQEAAAaAq5guYAADJkKuYAKuYxjj6Sgc9VvODvd7ELWlfEGu/2qc3XqlIS9Vfbe61OTf+qhW1DSzZ2ybMpLvVHAddVUVvheqmuJyeiQdFAXM06VUZWr09mcknseWdS+BzjvuX13m2ZSwAAFbYFxtmmfkgZKzTLvNAS1KBdbZpn5IDbTXyNI5rsCqUC62zf+9El+l6XeG2PzRTgtKdMhVzLxKxu80U4haxv80U4IpkyAuNsfminBtj80U4MqcC6SsbvNFOIW1mrrh7Ip24LamAuNv6xzmFTmL/k+AbZ/k/0XR7gqnAuPGzV+b4B45z/yPVdgFKuYFwts6neHjnUwlqlMhVzLpLZ1O4VbZ1O8KpwLWK2NTVfOOB9nwFW2NTv87gpWDJkWHjjU/wArirbGp3+dwNEZMjb8can+Vx0r9TmExMbHv+U4gaQbM1jnOJtrWKneKtYqd4SmtsYZKNP3cz1XYZtsVMNsVMFESj1O4Nj1MiOsVPlKRtl35bre0FG2PUzJDRqpyU+Dsf7TiYdshtkFM+xqp+SCdj1T6HA+z4GnG9rESucTGuYKWkFk6nMwo584nxMqZULmIuYVeJYyp3ELYyp3lGAFytjXb+e1LE7cXpd5Hib/ALOKcALjYGr83tGnMXfJ8DC5R/LX4XpxWizvxRAPCPCdsnrDcbnjRTmL+TzfDyUPmSm2FkKpPK29a2nYksyqr+tf7z1bwuei396exD5nTpzX+re87xj4cpyfqdYOj0uKxlG+HW37pWBMRrorcl246BKNTLvO55HoJ/6I7Nf6uv8AfiO8m5uXp8mj078W3nGfVuIXy0amX+dw2NS/yv8A7nif1u08+ct5S5qNZakyrs9FDkzJtYcX6RztS/0JcNCzXarCkE05KUeUXKSk3cV1tPri7VXP6r7iNOjSs7jE5WfLU8la8HDTE/Ajn4nv+lqEPK7+Tu9Bhd8FzTA84sarTr1/083xcuUPXFrO8pKjWfxxzu9iHFS3gy6YmWIYEqNOYRL+b2hlv/kl9pk/ar6U5jnHqvTsVc+cxP63JS/0Di1ydOtZ3kbZOdg8GPS7Lwo2xV6DhJli9Lv5qL2mRPBp0qXc9V7O4vb/AOsEcW+ToErO4taPWfLhOQb8GnSdyE+F6V+i6PdzIy+CxpOf5zxnp7F/ydy7v6qewcWbd3PVn8aj7vYhmlqzzEPf7TzuLwQbfvriPWskMVc/JUzNeCdpIl20bZtbIYaZeSo4pb0PbIbZPP8A9qrpN/7W0/8AVUyweCpb/kpjWtp+J27lHEt3e2StnLWavMRt8LvYc3D4KNu1hRfH6nsfZ6ny7v53aYXPA+tZMRq49pEbxVzwW8OHuh7BxW3ZS1fkJhmFx7rVvv8ASYJi1lMlnom+By0Hgb2o5Kf84f8AueJ/W7TC74EtZmHFce0ic6ufwf8A4qewcVt1K2zpl5KWzplxyX7R+qf/ADE/7v8A8Y2GvAfqmGn/ADif93f4w4sW6KO2dM5Sgls6ZcVDXgPu4aY1s8d3tc2fn/bBF4EFy/5eqx9ns/L+2HFeTbqdsqXgqUcFsmuTzPVdhYftHlX/AOIc5+ip/k93PDJ4Dy3f9IdQ/o//ABhxXmrFtnIX891vaYo7Z0zlKXP7SBU3fsg1JfukE/8A2X2mw14EEiraY9sqk+72uK3h3/zewcU5Kim2ypeOXy2ypd4zfgZUyXgRvxtqO4iLwJbPTC4j1ra7iLnhL5PcOJyNBbOmclB0tnTLjD+0fs2mVq7QL/Oa/wDEl/pMsHgZWcl4Ub8aq/u/hsf8BxXkWO2dM5SkpbOmXDftJrGzHOP1qvvurm5y4d/6qXeg2WfAzsLLto2tVtFenBf8NfaSjkxN26pcxAkr8337y0lHWnpeCNnqlvu9JgkvBEspITKvMVa0OH2Iq/8A8p7DqI7OUCyVNgpMm7MPTUvffHNLe4vKVYt/63ouFFqZMiQ8r930gMtAVcxgA1Kj8XMdN+JN9/tUyvdbEO30EAyJkA0HRQhcwEXMBgAUSd+KIOuYq5hLfIXhWWZfqFep0w+xgSUaeTNcbkuX1oqdx4NRdHU/aOsMStCg2vBLR3wJxvW9fWqn6CWt0fy9rJ9t+dp2PLNKi4nG5Dp6XKScjIMy8gzgSjaXQN8N+/13nWM6hji800cUHSLLWKplNmoKZQZRqGNEgRvHmYL44l8pPk7770XgqKdhTbBsSr+s1CdmajOLvcmZmZx2Y+F0HZclyXfUdOmRJzny6Qwo00yiQM4GEmWrtYUHdD2f8b1FXM2BVzIPSvHOmB450w4EVczfJji75bZ0y8jxzphwQDkcXe+OdMFW2TV/M9V2HCAOTVO68chVtlv83Y/2nE4lMhVzHIp2/jj+aBYtImrrh7JXccUA5JTtP2SvzSvpD9kr80r6TixkyHI4uxW3GsLibIzI8cvzQceA5LTrltlv80B45fY4H2fA5EByKdd45B45HHrmMmQ5JxdYtst5HjkcoA5JxdStst5HjnP/ACPVdhyq5gORxdV451MVbZ1O85cByOLpltnU7yPHOpnNAOSU6NbZ1O8jxzqZzoDkroFtnU7w8c6mc6uZKZEtql7HbOp8pSpnZ12oTMcw91sd1/cl3uMIq5iyguZKZCgZVK5kAAAACrmGeRhVzIALYAABYAVcwBQXMAAKAAAAAFXMC32ZrHOcRVo0/fzPVdhu7fqcxznEVaxU7wNVKPU7idj1M2NsVMVaxU7wMaUep3E7HqYLWKneG2KmAbHqYbHqYbYqYq1l2/nut7QMiUep3BsepmBazvKG1OkFizEpFMTtRwJZE6vgbjCcv0pbp0o1Uu83Y/2nEdKNVLvNB4Q/4VlEbdihlqtzKLdD7/XeYl8J2lzC4m1szXaz+mf/AInJ70tGql/mgZLJ1SYTEwcC/wCT4HgX7Zel/lYZPCWpd3XY/wBpxJr1bM8qnGmeb35LGVO4PEypnh0v4QdnZhmFx6o4Dq5t8Dca0/UfDTBdx2uxzibnXF1Fz/0nN7GtjKneGwKnL83wOHs1bpq1DDTzPVOX3dyqnuOkch5MaocpxyxnzDXJbJZOpzCYnEZLGVO4pQMtrlbPuy64b3WpmSlk9YTE/Et/0vS7ylAC78Tf9nCrQNXXD+DtxTABdJR93nGnMfZ8CFo+/wA704pgCUuNj/nenDJR93nenFKAKXK0ff53pxGx/wA704pwCrjY/wCd6cGxpD5art4nbhdHuKVcwAutjUz8rhsamflcpQAutjUz8rhsamflcpQAuFZpcuuHtfIj4L/K5TLmSmQZ4rlNl/TTj/2jXRX7g+DPziUq5kBaXK7Mv/fEZNmXfviUgApd/Bn5xFi2Xf5ucf8AtHekv3lIuZAVd/Bf5IDadLl+b2RkUgq5gXu2aZ+SA2zTPyQUiZABcrWaZf5oEWs0y/zQU65gBtAAAAAASwAAFAAAGFejN/d7j5Q0+y+1J51v/NokX1IvvPrOa83zP8U+T9NXmisfx4f7qH6X2Jox3bs8M5qouPv9nGcvLz2zcxYuaZactA/Ovurejkq1J4kKXKqJdF27kRe89Hl6Jop2KzOy1lqi8zGkXJj1jAvuVUXyOzei/fn2ngLHUwfch6vZL/Idv+K5/fiJj7S2ZZzjNYxH2S3X0OzdjqlyZmTslL6tGq8jW3MR3cty3xdu9F7riot7O2Xs5XKdTPEGgv6xCseI70lu4l5o7/yQkf4zv/3Yzl9KtB2xW6LDrWo33893n7PZ0mrLo8eovzUS8uG/nnONejjq1phlatiU2SsLSpGWaVYIHmejuzu77zq7BWcoNUo8rNTtKbimXFjWNWujujVEu7kQ5+0WiKk06QWppb2Sn6lHesdMd6UF25EXnEzREXLtOg0EQRNylahjgbbiRU8lro5dnlRe0+b7F2d3bOMxFf6dN2Xai3rdAes/YxJGKSXZEy8qp/LeUu73Ht0o9FMSzbsbOrxRQouH7+/PvPnGsfJ/ykHsQ+iqZ5tlP5KD2IT+o+h1aMJ2Y5eZTTu7vimyAAfznH9MPb6eAAAaLAAALACrmALC5gMmQAsoAuYyZAsoq5jLmKuYLQAyZEgsgDgCyASuZALKuZA4BUJkSKuZKZBLQuZBK5kBSrmAwAKALmAAAABtAAFoAABaSgAAKUAAChhc6anh+mezO0J+dmPnpD6oIU9x7saNUpTFfaWTnadjy2WJxPp9N1c9Nsx2RHp+7lOFvkCyGgrxocmHvGKSkcS/8Xd6UN27f991/eehUvRDP0SzrFFZm255phY7phqTxIY+VGsW6Ltu5V3cenzGgWyrj0UUDM6xCu/DanHm4U+6GF2FE7kMjWhWzEu2jeznH7vlHqhMcpfv8pfafV39b7N3zOU4ZYzPr4tj0eZyVEdsFLQQPU6dfcdvRXGae9yVvXs5LUSehSrthQpisNySSVIc1mKCNedbdbizXOFyGGFPQeypoto8umGyzOsNpk2zUJjkp93Ow+wn9iGzsxzj2Lirni1CY5Xf5UXtPVn7Y6TLpvd4ymPFejjr6bjlOd+r4andGdqoZx9I6RO8rlxdTyOTn2cjd6Pae06IrNTVlLGTL04y4xMzESpG290k8pUS/uuPpGCxNOlqS1TsfHprd/IlcSJy69VVfKi3rvVV38Sq/Ygss95cFH5MK9muPN/1Ydydx5PZ3tTo/Z+XLnOX/Tru1d2Ktwk5o5q0zQ5WpY+oU11yFYI/p7luVPSip3HtUvKQyMrLsQM6vDA1BzfDyUW/vz7yooli5WgLDDJs4EtB0G8SJy7fevlRb1335l67FynFU8ntH2pPXZZVHiZ8M6dHa82QAA+DHh6Z9QAyZELmWkQADJkWgoErmQKAAAKAKuYLmBkAAAAAAAAAq5gMBCZELmALmQAFpsAKuZBGUrmQABoAAq5gMAoAC5gBmbpmsQI5xA3JpnV34m8Zt+67nGuiu7sMC5kAatLAAAssAACywAyZELmLLNJfG1LdymSExFiPVHAdW69vgcdaK0EhZCmzdRe63k3r3IfMNa8MBqWqsw0zTsdqGK5HOO4x3K+DU+l4xM/6h9kxs0uXiVva+RGzKXMc5tfM+Jo/C1n5iJXGaRzS5DQeE5aOYhRxikTuEuWF0e46Rtn5yx25nz/6+yZllqXfibZex2kuuc47jAuZ8dx+EtajlL8EVE3JbwlrT4MPwQ529b0s+0vdn5Pfj0e2cYmIfXzfQQY+UJfwqJqXZhbnKRO6ynTwuj9V3dcX9mPCkkJ+bRl5lxh2/e290k+85Tui/h/8Zw6PfnjlljjPj7PoyPpKCZFLQK81aakS9SZ6p9Fu7olh9xcNdWg5X5eLOM9eeOGeNWlcyCVzIK1ONTTZp2oaxz3W9pcO7M5a/HOzquj3FAmQ6ZG2VuuzL/3xFXZl/wC+JVgFpM5hazHg4mFuuxell2m5J6hq0GNrmLvvwujn2FdH0lFJZS7TZl374ixbLv8AlP0vS7ymAWUtp3ZeqIUsGFyeZ6vsMgGSigC5gCgAACirmSmRC5kpkEQuZZyVS1eWgb2dJP3X8470l39pXAFpcbY/NFODxs1fm9kU7cUq5kFtVpP2n2hLYOC2x9m10U+4pm4eTAiGUCJRAJXMgKVcxkyAAFXMBgAU2Gqnq7aN8DXXMANoAA1SUAABRQAAFFAAFXMyU860zwbXpDVP+bu9O/3ngdS0YTDbHJkvjOZ77pT62S/jIUlqPi0p9yHlxy5ZzE+H7fp+o/DfZk7dWuOWXxny8ks3Yety7LbczTpJ95FXlOO9Jd63X91x6xZPQq7WJBybfZpzDriLe3wu3e41Kd5+l/vh9iH0DSMv0C+w+jGrGv1Pg4+2eqqLy8/6j/x89zeiLxRkpuo832rzWNyd3Dk7vQUNIkJ+fs4xVGerdVxE6X7mOKH91v7O09OpdMtLMSU44z5pVx3D/Xi5XrvOBrLMcvVqW3H005d/6yl7OP1OU9dnlNzl6q9mnOzTaOvdbFff3LcYnaNzinb2Q62r/wCpR+1TnIehB/FT2H5jqoy1ZTMS/p39M9Vs2aZjKq/06bRTVdWqD1O+j9+/3nrLUPJgRPvPJNGf+UlQ/k2f757FN/G5j+Vj/vKfT6XZ3cYh+S/qbVrjqqxnzVsQAB7Zipp+JjLlFgAA0AAALYAAJRYAAMlgBVzGTIFlXMAXMC0WAAVcyFmFXMgZMggTIkBVzDQXMgZMiFzAgAAAAZMiFzARcxFzHXMgJYTIBVzAKFzAAA2gADYAAAAAADJB0UFj6SigShSWnpjFo5OKVY+Oy2+Lv3p6lQ8wr85VqfTdXjp2PE3emJx3ntQHLbr5xUeH2ui9p+76exvw543frX/rwGx9ZdxoMZnAdvW9vU3nLt/zody9x6xJ2/2fLQS+z8fkJ1mz5jffv950wGI1ZRFcnTP2h0uWU5Ror/v+FC1pA2gzMs7J7PyfMcDzGo0LaM89WNb1HV15Gr7PmPIv/RxZ559p7YKuZrt5fU8k9T08zfa/f+Hjuzp+lUtuXZk52eaS+NJhpuJuGPlKsW6GJEVLr7t6dhWwSlUqEODshz9L0u892TIDy7uk7sfqfc6P+oI6PXOvDV+/8OK0ZWeds1E5MvM4DkyiorfDs9x2qs6uqwfXf6d/vADv0+jsREXb831nVZ9Z1E78vHj0ZIOigsfSUUD0z5m3hiKigAAUADJkSWggErmQQAABKCrmMmQAKaoq5gMKuYsoyZCrmAGSirmSmQ6ZCrmWkAq5jGZumaxAjnEtNMCZELmb0FGn+SmD1XYOlHqdwpLV6ZELmbTtnnZdxZp7rIs+7cajsXKcVTKgVcyUyJAQCVzEXMJQXMBkyAKUDImRYytN1hiFzaMkxffzbvSTf2gLN4WsR4OJhbrsXpZdprrmC5kGwAAEtLAABSwAASy2WR+NKXUVTkJeLDep2O6mbnEoAFlLxazTL/NBG2aZ+SCog6KCx9JRaM8481MTEbjLOA0t1zfDca65kpkQuZWkAMmRIZIBK5kEtaAABUZ5Cb2fM4xbu2h1pxXfxLyvpulu3byhAIu9s/7OFWs7/wB7imAcmqbE09rD8TnN77uq6OXYbcrU9XYhb4X+0rACLjxsn5fm2eqTIPHOplOBLWm89ah2oOxMvdb2mk9DyXYkIApZQGAyWUBhVzIoFXMYDaUQzN1PV4Eb4CCrmS1bKVncQtZ3mBMiRaUmN7WIlc4mKPpKEfSUEyMllAcVcwqAAAlgAFXMKFzAZMhVzA2gAZMjaWUCVzIJSAAAqAAAlAAyQdFBY+kopqyjJkKApGVMhI+kooFWzJkSIARK5kABKWwAAVAAAEAABKasAAFQAAEpbAAAsoAKuYGSguYq5jAC0JkSAG1KuZKZELmQZS0rmQAELMmRC5kCrmCjCrmQAUAKuYyZBKAq5guYBQMmQoAbQGYDbDCBkXMlMgMQGYVcwCDooMQmRC5loLH0lGg6KEpkOmQoYY+kopsAQa4GwKuYGEDag6KDpTNYTE4gaQG9sYNjAaIG9saf+R6rsGSj1O4CvAsNj1MNj1MtCvAsko9TuJ2PUxQrALVKPU7idj1MgqQLbY9TDxTqcxznECpAtvEyph4mVMlNWp1zAuksZU7g8TKmKLUoF14mVMPE135bre0UilAuvE3/AFL9L0u8NgavzfwduKtqNcyC92P+cacx9nwDY/53pxKYtRAXa0ff53pwq0ff53pwpVMBdJRpC7nqu3iduF0e4haNTL/O4pq1MBbLRqZf53IwaXL83tfIUWqhVzLlNl3ddj/acRvgv/TP0XR7hRajFXMvF2Zf++JKbMu/fEUWogLxdmX/AL4kfBn5xFFs+2fsqcx9nwDbP+zinAWyuktXq6YfwduJ2/rHOc3v+i6PcUgFapd7Zn/keq7BVtZU5dcPgUwApceOdTGS2dTuKUC2Uu/HOph451MpAFouVtnU7yPHOplOBEWy2zqd4yV+pzCYnEpwAtlrFTvFWsVO8qwAsVrFTvI2xUyvADeWsVO8NsVM0QA3tsVMVay7fz3W9ppgWxsrWd5G2TXAWNjbIY2sc5xNcCDMuYq5mMAHMcfSUhcwJYAABYAABYAABbVAVcxhVzFpxQAALWgACrmLQLmQAC0KuYyZAAsAq5guYC2qAAAsptAACmQAAVqwAASywAAUsAAEtAAAVAAAAAAAAAAAAAAAAEsAABQAAAACrmBLAuYABlqgAACgAq5kAo4EJkQuYLMKuZABQAAACrmMKuYZQAAFoAAq5goLmAAFAAAG0mQAA5LwADJkSOScSAOMmRLOLEBmAcziwgZhkyJyXg1wMy5jJkOacWuBmXMZMh3Di1wNjZmsc5xDYx2jjMXa8GuBsbGDB1fm+AvH5nBrgYapN7PaV4rZW0OtMQu/Ov8AUtxxnOpOC2XMDVbe1iBHOJYS1M1hmFzjf7TPM4MaZCrmbWxg2Md4nGvU4NUDcSjbiFo28Xj8zg1DTmKnq70TfAwWpq+wJSKH5n/ufLmm3SbPxRXs9Vel3oQ52zT6LqNv5Cnzjku91sF1/eiL7zWldKdLmJ1ZX5t3r3nwFU7S1SoTrkx8+71Iie4in2kqlPmMY1THJ+lUrNtT0vA+z1UeXsMp8aWI8IV2k0uWlHutb5V/fEq+89usHpT8aG2HvpL/AFKqe4zbrHl66A0m7jS0EfE3G6ZrECOcScsfm6Rg0QLDYwbGJefwhxnHK/RXgWGxhko24vKPi1GOXyVa5kFwlG3CrRt5ics/hDX5PjKpAttjDJRtxnnn9LE4z8FOBbLRt4yUbcd4ywrzl5bjBSrmBdbGDYxynbjEtcFKBcKzIS64b/WpmY49l8pTPexXt/dVgb0dTpcvErf4lu+l6XeItapl/nGnMfZ8DtGeuY/Uvb+7Jtn801H+x/8AE5CvpQhazP38zZeovtdjn4vv/tjzhMikqWv665gdVuu9CH5f8a/w/f8Ah646b7vYds1T/sjUf93/APOGSs1O7zHUWPs/xfd/bHkEti4MOP1u+/0mjV+riH41/h+/8L7r93tu2an+SKj/ALv/AOcMlZql3mlz9Nq/K7/Ki9p89S/VJ3+0sJemawzC5xNfjH+H7ufu/wB3vCVmqXeaf/xydtO/LUnne38chb/qw7k7jwxGdXTD4FpJfFoO/wBpPxf/AA/f+D3f7vX9tfY4H2e0chVrM/fzPVdnwgeay/UwlTUfjjnd7EMT7Zr+z9/4dI6Xx6vXVrLt/PaliduLUPK7zHHWfKXzd/SB5K11aGVMjX4vf9n7vLOupmLep7Z/2d/SH+FF7RVrO/8Ae7+kP8E8pc6ajQdFDpHtT/D93iy2VMxT1Txs1fm/g7d+cP8ABMLlsvLXzd/SH+CeWOdNRdpSEvzb3Wpmc56/KfNNRt+z0yft7s+Wxvg7+kP8E420WnDUpDH2jQWM+beqHlJ9/kw+w+UvCY0jNS069Tmera5N3fAi+8+ZKrXsZpY+J9HCcs8Yyv1b5vqXTJ4Rs/Up+Jpmr0rDvREwnMSHJMou08/TTrVJWFGtrt+SnyXR379x8+QPaxDicSFzPfj6QnN9N2Q8Ih2n1pXnqvJYt6X4vSy7T6e0f+EnIVpiXR61FBYdW+9t3G5Sb1z5O70H5fO9YpvWeruyKhyuFxTuP2Jat41PNwvs1ylPtRpucak5hyFezdFipf6B/HL/AOp6cx9ns+Y3f2x8EaJ9JvKblV+/+8p9F0TSBIVDkMvdb2nw+o6jZpmah1jzD2iO2XlL8OU5/wC02fMb/wC2OXtfpikLPsxwvWopzDsGbez5jduv+mNORcaek342eqWHcfHPhMy+r2jamuKexEQ56epy3fZvZj28YyXmmzT01Wqq4jNcbfaVYbnGqfFyV8lMuVFEvpU8bqdtsadcj2tmifJ4fYn7nsPMYZjWuU786KL1KqCx9JT9BhNYw+dO77O+dtlIYi41X5ztMa2zpl/XY/2nE8/j6SiLmdozY5vQvHOmFrR9KDVIihiZqM6w0mTbXRT7jyVczM30EMTk7xs8ej9BvBp00+MMozKbXqP7pPkfnL87f6T6Nhq2HDydr1Hj/wBXPzK8He00hZS1LTz3WTESIvsPvB22TWzWlZ6pYb0PzvU7s9WUzEPrdPrx3RH5qelQ1ryU+F6j/u//AJUXtK6r232Q3FFtevbvotX5Pd5MPsQ8mcr+sRq5xLhp6QmKO0491i8q/wBKnyvxTfHiJfXjpcYirdCmmWQiS9520T7va55O/wDV3eg5W1PhI0yzc623s617+MqJiNTjLcK/dDFvQ5uty7Uvy5pnqosu7cUTVQ2lAjXcdI9oZzFzDtHTY09npmlamT0izMYVZYxEvw5uoQ4ib+3k7vR2XGKZ0l0vHi+Dqi/lzm0Ht+7+Du9B5ZL0SfoTMM6zUcBqa3I3wu3e425Bl2XmeQ89ju5q5xv3+8nv+/4S17non1xeqUm3FLmHEc2RUd/5wmC6dr9LmHFc2Q5v+lqExyu84Ck0S9yGd+f7t3uOgWLlLecJ9o779XlnThE1EL9KzS7vNH9pE5/Wi3r3lbOVlrWI8GkSWFuuxell2nNz3xqPu9hDfQQz71ty8zL5Wer80+W3O2rkJeZjbesvTn3Euvc47jQqFsmtX5myNBw+zGk8SLvi7TG91sRXTPXxd3sO8dZlEONV4XVItl8HtfAdKY6XNtU/yU8pcjaW2e/zRTv6POcbpmsQI5xBWdXXD4D3vL5NOul7ZczDzVOY+zw8O7+b2FpK2y5iHq+3qujn2HISXxaDv9pay3UQ9/tPLPU7L9XaNdxds7NT1dqFvgYai9rEvicTzSb0r0unzEcv8y71pf7yWtKNLmG0c4nDtbJ/tevlj83YTHxGHv8AapS8TBL25pcwzC5xKOq2zpmvu93sQnb2fS6Xj812z5wi7vYb0x1q93sONSdaqCawz1UeXdu9xvy1T1dmFvhf7RWyP7V7eM+eTs5L4tB3+0sWeqhOKZtJISDSPPdb2mvUtJrUTF7PV9ha2fS32cfqejN1PV4Eb4GxMPaxIQucb/aeOuaS5DZ0GN1u+/0qUc7pepcvKo3wvM9vZPni6Rrx+p7KlT1dMPgJLPaxPROcbvYfNNpfCKap8ksuz1UGXfv95xtL8Jbnu8+nh0eU4xL4OzOs5h9vOdL0CnxtOeEt+Ny/3oe9aNtL0hWKek49UcB1yFb2+Fy3e46e7ZR4fJy85S9Hd6xT5/8ACKtxP2MjiiZ6p7kon6qFtb/T3S7PvTEONj8i7nOO5FPm7S1pjat1Jtqz1Ti3J3bvcdo6bKmeVOQtHaZ2ouuTL3WuXKvoQ5qB7WIcTiaj7eG6sP3ew14+kp+h1aqwxi/g3Gbec6amu501Ja6tDWmOuiPRVeE7jIuYyZGjH0lBMi01ydJI1PV5WBvhf7TsNHtrNXtFKN8Ik9p5hB0ULGh13ZFWlYuEXvPPu047Yp3jPw+/LS212RYiVqHzm1X0Kqe4+S9IWlDxkmZlz59yehET3Hc1TS7IVGx0VMe62BtUXvvX3nzm7G0465Ez1SxKqek8Gvo+1lfJ02be5jGNNlt3Gh5fG876yujOftnYesVpmq8tqj5Ub6a/ff6zzKPpKdzo2td4tuut/TJcfSjKvD42WdTMOOhV1U56LlO9v1fV3ZdxC5nb2pkdemn5j6S5fUhxD7OruxN8DpGTPd+xZX46vd7Dam/jEXd7C9otE+DWZ75/K9USp7jZSKQigmle627f6DE5J7zXinPU2b2e/jHe0LSzPyMMDDPVQZem88slphp+ejlWerSLd7T27Q9orpU9Ze1lo6t/1CBEY+/kp7zzbscdsVT2aepy1/mez6I6y7aBmVn3uteWK/uiWH3HuVW8zwfcp8S6IrcrSGJmVX9w9en3LFenqU+sW7cSExRZZx7rVbS8/JbeknnNP2erqYy14zPyErTKtMMQufvbFfyPTv8AXeQ4zDLxq3B0UOfmLZUvGi+EcD7PgctaK3rVPdceZex2t1znHcefs7I8U90bcadzM1PV34m+F3sMlPnpCoTGC91nafNtvdN2tU+OW4JceVS2kqfhZRGeqvW70n0sOhyyxibcZ6vGJp+i8rNUumy8Ev8AM963+8uqPWaXy4T80v2XapL83wPVdDWnd2Xcibe61L7/AEmJ9m5X6vHPUYzNvuyqPNTDKuM9Uqbikb6PpPJ6BpykJ+CBl7rL1v8ASdrLW3pbzEMfE+flq2YTONejzzxym7dDH0lEXM5iZtnTMeLu9g7VoGphtHGeqXInHZ9L5+U1lK/j6SmVvoIUzVZkMNMao4Dva3wNWp23pdHZWLGx7vlOJvt7PpTm6tvoIbTXVoecyulOlzTELvzr/UtxvNW5pcw2jnExOrZ9L0xt8ej886tpAqlQbVkrKXaKqU13F7yFo28yQWT1iFHOJ++46/peSNWcxfJbu6TapFGq/cYltzVJhcTiaCWMn7uZ6rsIWxlTvHb1/S3wy+boZPSvaKny8Euz1UF93et/vMkWmSs3891nac2ljXbue63tEjsZP8pcHquwx2tfydY5R8V49pktFiLg9V2GJdKNZmFxHutXMpFsZU7zHHYyp8pTfZ1/JuMsvmt3dJdUxFKidtM7UJmOYe62O6/uS73AljXbue63tMTlA1eNW+A7ev6XGduy/RruPaxGrnEU3m6N5CGaCyesQo5xOkY4/J5p5TN01WeqhL6nW4n6PJtybPVN33d6qvvK5LG7hI6Bq8St8DPDH5PNOGUz6MlQtM7UJtyYe62O6/uRE9xouPaxGrnE20o0/dzPVdgq2TqcwuJxOkRjHwY7WUmpMptCsyDP8GL2qa1Tkdmz78t8yL27/ebsnZicp89LPTvxble8663lGYjp8rPy3URonJ7ty+tFMc6+Btw7WNuLpNT1dxG+A1Ue1ifdc43exBXYuVHf9SewmDooau/LzRN+Vc71imdnqoSXutiM7Mvq7UM1873Dk1zYpz4mn/rtKxnq07/adbIWan7XST8yz1TaKqdxzTNlXZqDEe6xVVF7lVPcS3oibgiZCy3x6Lu9hcyujqfmJeFxnqlvu9JifsNVJd2Jvgc5doxuHuujXRVo90zWHYpqVDYNtZCFyKZmfp1WOKJtO6BYE7jiqxoifsbUn1mX9ZeaW5XfnIibl9Fxn0QaRrU6IJlxmk7N/G/Jf2lJ4m5fmRdq3F/a60jk/PPzDt+I7dFFe3h7+Sn7nsQ5Tm+P1H/HMy4mNzFiWLuEXMyOPaxGrnEU6Rl4eLu38FrIfFG+/wBqivTGsOxSvzfeYpbqIe/2llH5tg7/AGqSWOTmo7OarVnJnjcvqQ6C09dn4tG78kzruFAqomF0d6qu70lRH0lLCz1Q1OoYP06pCc7dY31FU87szR69aW0FPo9OxNrxwYkri9LkpvW/vvOopkrpAqFZqEvT6RO1Z6SXkzWD0WVREvVD1GgtS1gLdy03LP48zMwos1K8EuS70pcveb2k/TPWYaU7RLKy+wJFxVRyY+n5W+L1qqdxmeM+sPp6Oszz/LGLwao2uq7E6627iYkK3RYvSRbsl+7IwJbqqTCat8337zVcsa5iRK6t7kS8qJeKrvv9ZjWgauuHwPVjhrqPyvv4558Y8sE9WHYZqNHut3X+g0nKz5am65RvLUEsnrCYnE7ROMeKePLuTMtSB7WIUc4jpkbsFjJ/kpg9V2ELYyp3l/L8nLjsYpCuz9HmeUz1aZF3FpNqkS3lR4mu/Ldb2h4mnGdWuZunojXlXquE0l1S4sZXS9aKXYhbZ6pL7vSc1BYyf5KYPVdg3iZUydrX9KfmjxTp/wBmSs/Ldb2lFU7f1SoTzkx8+71Iie40Y7GVPlKab1n3Zd2Jt7rUzNcNf0ukYrZvSLVJeBG+BvS+kuqYMJzzdG8hDYbsnrECOcTPDX9LtGL9K5f8GzTZhmFyO1DbEa5ttSeJCn3RdpS1P8HNWJeedbplckn5FLsNx1vDiXcl98PZvvPpyW0vVSXZhb2dj3X85x3ldPaUbRTE1G4yzgNLdc3w3HyvfsZ8xDpOXl82J+DstPd52pxts/g7LT4UPwtTj3eo6XLTS7HI2gjCp+44HMPadLasORQM1ZMNMvxPE/rdp559qVNcf3dY1zMW84b/AAdtpuQnwtTjLD+DutNyU+F6cegfs+WsTc87judrmHh3/wA3sFm9PVtdVRWagjEHY3qeJd/O7TvHtDGYuYdo6aZi4lwf/J3Wm/K9OD/k7bTflanHHaZfDN0v2K1SVotWkuciuhxqezyt/Hlbzha14cmn2jQcqZq9OxuTDFF8Hy/aiKnqVD3Y9RExExDybYnVHl7FUPwfNYkGMV6r0/F/dbjxjSL4O0rZK0MhLTlXb1lpF5eF0d+9Lu5UOQr/AOER0z1mn6i9V2sVL0iwafL8n6rjyCraebX1yovTtoHsd11UxHMOFu+5ERPJh3JuRMj0x5i3TDfhxi4emVCxDTM69Ay9jtJFuc4mFLG7jz2V0ozr7ELkt1K38n07/XeVFS0l2i11zBqOA1uub4bkNMz1Ou/R6k7ZjZ7ivHe6MtDE/pVicVmoyTDUCbm3ekl27efOVN0gWgqD6Mzr2PLfScTrajpatHZWjSDFDmtRhbWLkPcz2xKq9Lfmq5h48usxiZ/I+gLSeDJVLOyKzWM2/dfzjXRW7geerYp1tVhe61FuUpbJeF/pKkHm6ZUKptdid5u78X337i7rFAtpVrTS6SzGrMOQcuFryd3KS9ejuzVV3cTz5beM1RHW4/Q046HsDW5z6k9h51U7V7Uaib+tU9ZsWppVpaLNzEnVOrbiW/v3+85SPFxZXE+IcryfTv8AXebjjMXb5+/d3fFUFh5Kqhru9YpbWjl2JdyOaluoihh5PdCiL67znmpjWoEd+d/7G7eSPHhvN9BDNB0UNRvoIWEt1EPf7TNs23pOp6vLwN8L/ab8lOeM87K0rAwOTFdrXG9b/Vfd3HMTPXxd3sLGz83s+pyr38L3k5O0bKiqfRtmtBzMjKuP1B/WWlgRZd3it2/0LencUkzorqtSmHGlp2PvuRzinZ6gnvCPmLAMSbT1F2rJRoiQw65h38fJ7N959K+D/pVs1aOntWhjoviVG2kUKzeIy5jeUqdKLevDeePLqJx/ta96rxT5VmrAVSyL8Utg4GJcmHwvQySUvUtGU7K1ODUsNyLDmMbpXRL29yn3jP2ksxU7QS1A1baW1IVj1ryec/V3fVu4Hm+lfwdrMVGzjkxS2cCrMLGsTfC5Vu9Vx5p6i/g+R1HUdyZingFu9Gdm46btGnYePMQo6uF0b1S9bu88ssvQZpm0TEE1JbSlEj3U7/Ofr7su46KrR1ihwRyD3WMqsK+1PUqFFRqjVGKtFNfOVPUlx6sdtxHh5Ynw6TS3Z5hita1LSupMxI3yZf6O6CG9PTeci7Fyo7/qT2HcQ1R22NqaVT3utuVFKvSfYbxZqitfMiRfSiL7zpzLXNhKZrFEm3OMEXvOMkomEnHJJj47BGvK71vT1KgkMXKhRfqQR6b1B+We+v3imJyd1NaN36VQafXpmo4D8+sSRN8OTEsCeqFDprEaCZ/SDVIZdmryWFHddjdLvLOiVDxkszSXv805UHpjiX3nqFndDlsKPQqlUbK1t+lVdzkuScT2DgJCqIsV3K3535/WeHLfUzFPvdN1PT6sY5T5ND+DttEsMKsVanYSpeg6fg7LT3edqceU6V/Cw0w6CXoKdFpOplfqkCQo7SYKPLvpKxRQpF1nbfekX1cq7sPP4/wimniOLlR2rbbiVEXktUuXbhT7oew+nhsvCJp9qN+GUco+L223ngKTVmKdFMTtXp2sol8fu9Vx4JUNEuzJx2Vxm38Nesa6K3pfu9JUW38PLS/a6lrTqnXcdtEuVzZ8vvvPJ5DTJW1mVimXsd9Vvicw4W7/AObDuTuPTEXFvbjv11Fw9hcsPq8at8DDHY3ylONZ0s2iqDULLPVdhWT1sbUQzUafd7DPJwnq9cT6PS2rG82h0ln9F+2IG4doyTF9/NvdJN/aeBsaRbTy8/E3tHAuu5vhuOplrd2gkGIamxV/x2PfF3bk9SIat5p6nG31lZDwK67a2QYmZKrU7Vnb+R3RKi+tFOmd/B22lhjVNr04+UrE+F9ppp1Xk6VT7Y7KlI4uS3FqbLl167/KibiVd6rmp9Z6OtMWlKhVepTtsLYbepsTcEUvHs+X8teQl/7mHJb0y7Dz7tvai6ezT1OGz8tIb/B22mWBPhenEr+DsrN/PVenYnaXTPhaWvnUVmVntWZSKJIG9nw7kvX5u769xWVHwmtI8hNOOM1bmt3J+D2eH8LefMn2jET+l9SPZ+WccuXqpZz8G1aKYmI3GavTsNbrvQWUh+DTmtUb1y1DbEzv5bbUniQpvW66LFS/dd2HeaPfCBtdaiVienKqmsRovKvbhgyVUTdDuTciHa0/S1WJWUgaelNedhVb5j529V9WXccZ9q4xP6XSPZ0/HJgdbwo+T9SL6hSsoGLseVxus5K3+lTYdqeruK3wPzOdxlMRPh8eYqaaNbpmsJE5x/4HGTNG5+I7xXtYXE4lbOfGI+72G4nw3HUcYqnmtqmdXZl2+C+8sqZTNYkGnOKL7S+nfjMfd7BINf5KYHVdhxmMr9Xvx3/ljw+b/CvkdQoco99Z5VZOg0m2tiW02jq9SZhjWNvh5UV3quPaPChmHX6Vqz/Ww3X96XnyXT49jTKrwU/V9JPcwxxfH6zf49Ez1n4pebdajex4oYrsTiVzzOruxN8C2qM9tKccmfn3epET3FpL1u6isyXzOV64lX3n2ImvD4fcynzagluoh7/aI71imSYh5L0SGM6RLnPKZ9UJkZpj4hD3+01o+kphj6SinSMmeltYcxKTf0EXK9Z9E2G000p5qOKrVi7yEhYkcLD5Col3Wdt6pf3nzYuZcUSmawsLnH/iefdqxwjlOS8n1DI6SJG3cnMWXmIeS7NIsV2Li7uzyu3dd7DwHSXQWrOVNWmeqaiSFPQhXzjmyJiKLhd7DpLK1Rm2Mm7T5+nY7VypLOcV7fXeeWNUz55M25Z2obRpzbX1XGOzlP1qe1b/ADReV6fK95FYoL1mak/TZhnAdZVFVvgkSJEnqiQ1UyPTE8YpG7aeY1quTLnFIE9ECJ7isTIvKdTNYkH3OKKUDUjqGqvfw4v7ynVmlvJWO2vZ6q1r8nqielEU0KDS8eqSjnzlRT0mqWj1rR47LcN3rOTsjQJiq1lIJL4yqQ+xDzTtqapXr1RSQq1CZoT1Rkpd1qC5W3eknK8rf6R6XoMotSsY1TGJqnOT0biuxT/0HlqqQ96Xek8w0l0l2xdTlFmav8MPLDiyXzNycn0w8le89+0KaO6vbGOkNVmb2XTJjnZKocz+LTKRKiJ5W/fdfv4nzs7u/m805eXQy0jNWLl6RXJqBtuUkGVZRGeityqnKT77r+84l3Tg/JO1aYp9RwJSJ5IoG+F6Iq+u8+r9OtnpSpaMmWJya12akmlgdmPJ5yJFVFXyd3oPzuqkTUVQfweqSK5O7cc9WPcyp87L9Uvp6n6T7FaWJFij2ih+G1gSGGe1PE5ar0fK7bkuTuOft14Ok7ZWmxVWXrHKYiTlQLh4e7+L2HilCjmKQkFQkvjMW/0Ld7j6Y0ez1Uthohn5mrdFtI1XuiiT3HvrHHxbHJ82NTTtOqbDr0/gOpHcs1xuX3Zdx09vrU7SkZZrXdo7kTWfn/8Atl3HZUGU0dWtgmGa552l79Q67L910d2d+R5tbBmnS0/MtUr4jCqJB0s7k5XS39LlZk1588uK26GTobFa0cxIx8dl1WKL9ZVT1XHGVCJ+KaXWevSGFIu6FET1XHX6H5rkzDkX0V7X6y3+8fS1ov8AEKYSd/ztUc/WRF951nPjNM0yaPbVz8kylMZ6px1IU71v9597WQkH7JWWk3uZ19JWKJMHr+Qqqq3+n0XH56aMG8K1kpDgYHlQrrXG/f6su467wxdJtSik5axVNnZxmRihgiqMw10JlVhSKFE+5FRO48E4csvVuNWE+ZhS6crU6A6pW6rMwWXtBXbSuOrrLkM5ho3GiIl/J7MjlLD2K0XaUrKwyNKm5+zVp2EcVx2ozOPC75cSwJyPqh5Kdx4S+kULqwxMuMLCiQ8h3pXIlyKv3pv7zqrE6U67YuF2UktT1aNLocbpb96396qfZw0Z8IiH0sLjGIiVvXNAlVodVlkiq7MSwpF5Uu1hQKl63KkPZ/xOFesC7JOuPPO47nLW+PjvO7gtJNT0OPO4esuKqx4PRz3Xd1xWVx7WIpdzip25zHiT3jKPDJYiwtpKtA7N0Pq2UVXvuQsomHKnErTvWIqwxfem4vrC2tes3PPt097Z7r0KJMOfTpclyei5O4K66y9VX3JdnV2olRUb+u5L171vXvOfJ5Mt2VuYdstIU1xXXutzU25aJqJiFWeq33ek21zNKY66IvI7mXzYJyj4s3Lz/wBCvK9B2dUtnt2iNfXDyfRu9xzLNM1hqFzibUnZPWJ2Vc4xe88u7/kin0Ogmc86yyp6doXhn4adCjPV+Vd+sp69T6bKzEpA5OfGVVeX6Vu9VxWWHsxVZClSj1J4Lj/devuO0k4kinFWH6r/AL7t/rPy+yeOcw/qWmZjXjEefDbsmy1LzEDbPVJl6T0qY+IQfd7zlaXTNYdRzidlKs6vLwN8P+J8HZGU5zNt937P/9k=;" vertex="1" parent="1">
          <mxGeometry x="490" y="20" width="400" height="400" as="geometry" />
        </mxCell>
        <mxCell id="ftl8LwkWCeDw0nH-mkyN-10" value="" style="shape=image;verticalLabelPosition=bottom;labelBackgroundColor=default;verticalAlign=top;aspect=fixed;imageAspect=0;image=data:image/jpeg,/9j/4AAQSkZJRgABAQAAAQABAAD/4gHYSUNDX1BST0ZJTEUAAQEAAAHIAAAAAAQwAABtbnRyUkdCIFhZWiAH4AABAAEAAAAAAABhY3NwAAAAAAAAAAAAAAAAAAAAAAAAAAAAAAAAAAAAAQAA9tYAAQAAAADTLQAAAAAAAAAAAAAAAAAAAAAAAAAAAAAAAAAAAAAAAAAAAAAAAAAAAAAAAAAAAAAAAAAAAAlkZXNjAAAA8AAAACRyWFlaAAABFAAAABRnWFlaAAABKAAAABRiWFlaAAABPAAAABR3dHB0AAABUAAAABRyVFJDAAABZAAAAChnVFJDAAABZAAAAChiVFJDAAABZAAAAChjcHJ0AAABjAAAADxtbHVjAAAAAAAAAAEAAAAMZW5VUwAAAAgAAAAcAHMAUgBHAEJYWVogAAAAAAAAb6IAADj1AAADkFhZWiAAAAAAAABimQAAt4UAABjaWFlaIAAAAAAAACSgAAAPhAAAts9YWVogAAAAAAAA9tYAAQAAAADTLXBhcmEAAAAAAAQAAAACZmYAAPKnAAANWQAAE9AAAApbAAAAAAAAAABtbHVjAAAAAAAAAAEAAAAMZW5VUwAAACAAAAAcAEcAbwBvAGcAbABlACAASQBuAGMALgAgADIAMAAxADb/2wBDAAMCAgMCAgMDAwMEAwMEBQgFBQQEBQoHBwYIDAoMDAsKCwsNDhIQDQ4RDgsLEBYQERMUFRUVDA8XGBYUGBIUFRT/2wBDAQMEBAUEBQkFBQkUDQsNFBQUFBQUFBQUFBQUFBQUFBQUFBQUFBQUFBQUFBQUFBQUFBQUFBQUFBQUFBQUFBQUFBT/wAARCAGQAZADASIAAhEBAxEB/8QAHQAAAgIDAQEBAAAAAAAAAAAAAAIBBQQGBwMICf/EAGQQAAECAwMHBgcKBwkNBgcAAAABAwIEBQYRMQcSExQVIVEIIzIzQYEWIjWRobHBJTRDUlNVYWNlcRcYcoOVouMkQkVUc5KlwtMJNkRiZHWCo6Sy0eHwJzdWV3TxJoWTlLTS1f/EABsBAQEBAQEBAQEAAAAAAAAAAAABAgMEBQYH/8QAMBEBAAICAQIDBwMFAQEBAAAAAAERAhIDBCETMVEFFCJBUmGhFTJiBiNxgeHRM1P/2gAMAwEAAhEDEQA/APteXqU/Lswts9UmB6bYqZggfMe+mdtipni487MRq491q4mOAKNH0lFAC2oAALYAGTASPpKLEgCYAZAMmAoFtKSuJAAW1AABkAAAAAAAAKuIAC4gMmAq4ltKAABbUAAGUoAABQKuIwAQmBC4jAWxCYELiC4kFsAABkKuIi4nqKuJbCAC4gWwAAGQAAAKuJBK4kAZoAASwMmAJgOmALKKuI64kBSAOACASuJAAAyYELiBAAAAADJgEsoDiriFQADJgAoEriQAq4geiYELiAgyYAACriAwAKAwAKALiMmACgMKuIAAAAq4kDgEsgDgFIKuI64kAQmBIAB5x9JSD1ADwXEg9lxEXEBBVxPUAMoC4labrDELm0ZJi+/m3ekm/tPRaPv8r04tMqVMCFxLxKNIXc9Vqdpe0wJplqXmIm2Xm32kuuca6K7uwtLTBAZzpqCYGVKMmBIAKuJA4AQmBIDyXvtQEAvl1C/n+t7Tzi2XnL78/NdHuLSWpQLn3M+0Sum9FrEeh0mi3XaXpYdpaRjgSuJBloCriMKuIEAAyYAKMmBC4ntIahrPPdZ2geYF45svPX3O0/1nEX3L+aC0lqNcSC8Wp0uXXR7IwKqdeamJmNxlnQNLdc3w3FpXgAAZSwAq4gFC4gAAAAZTNT1dqFvgBigWrVZ5tPc6Sf8ArHekv3nqlY3eSKcWkpSgW0dY8ZfcinFZOPaxMRuaFti+7m2uim7sIpAPSQm9nzOmLZ22ec4q/uL890u8CjXEgvUtlu/g48XK/rEauc3v+S6PcBUAes09rD8TnG71HkAq4kpgJH0lIAmPpKQAq4gWKYELiQBbSjJgSIBbVK4iLiMBlLQmA6YCgFSuJAAAyYELiQASwAAWyjJgQuJAFsoAAGVAAADJgQuJAAAAACriQOBbSkJgSKuJBbVK4kABlKKuIyYAAUAAAKuIDCriAyYCriAFsAABAq4kDgBCYELiMACASuJAAAAAq4iLiOuIi4gZoAAAAAAAABKADJgQuIVAAMmACgOASiAOKuIVADJgQuIEAAAAAAAAAAAAAAAACriQSuJASwAyYELiFQAyYEgIBK4kBLAq4jCriFADJgKuISwAAFAAAAAAAq4kEriQAAAAKuIi4jriQSxmLiQXG2aX80f0gMlZpd3kj/WaT9btFilAvUrNMu8kCrWaZf5IFpamTAkuNs0z5oGStNXczSOa7CqpRVxLzbN/8ESX53pd4bY+yKcBRDJgXe2PsinBtj7IpwFKBcLWN/kinBtj7IpwFOBeQVjxU9yKcQtY3+SKcBSAXXhXq/N6KnMXfB8Bktlu/g4JajAuY7ZeMvk4lLZz93M6PR9mi6PcS1UoFtHbJ3OXTdb2keGQsVC4kFstst5KWzn7uZ6rsKtKgC48M6mKts6neEVsHRQhcSy8M6mMls6ncBWpgMlM1hNJxM9a/U5hdJxEWsVO8JTE2MMlG3HutYqd4i1ip3hSbGDY0/8AA9V2DbYqYbYqYWglHqdwbHqYq1ip3htiphNTbHqYyUep3HitZdv57re08o6z4ygZmxqp83af6ziMlGql3kgqHbWau4rfA8ltlvJZqvfBOqTHOaHQX/B8CUsdU0Tydp/rOJQbf1jnOIbZKtNg8Dqn80CrY2pqvU6D6vgU7b2sQI5xGCLbwMqYeBlTKdcQC0vILGVPNQSOxlTzlKYVcQi68DKmHgZUykFXEC/Sxrt3Palpe3S9LvPOOgavErfuduKM9IOihKGA9WWtnw6Hq993nKGOs+MppMjyfMsUvKwN6GSYuv5t2oQ5yb+3N3eYyE5OOWJ/nPc/f9oG9GNm27ZDbJqC8m/LCi3XUT87OqsXfuMhrk25YVbRdoWeY+rWJY7u/tGhbbZCs/uk2Vus+Ihy9eTTliVfK9nf+vzS+s92uTVli0ae69nf+vzJdVt0lazvJSs7jncHJqyp5qaar0nS9ui6PdzJ7QcmrKdmp/8AFFOY+r4fqp6hqW3/AGyG2TQvxasp3/i2neYPxWbfv849a2n6VcdyjVNm+6bWOc4gaInJkyksJo2bW07RJhuGTkt5TXkz1tbIXrwhX/gNTZuLtSkJdxW3utTExnLWUyXjVv4pp7vJEt9MOK49b2RYcXFvMi3eg8YuRzayJb3sobek7dFJZ8PcvaNTZuyWzplxPhnTDSoeRLaeYh0n4RMfs8b8R+0//mJ/R37RPUSktsszlFpcu/E3wu9R6sW5pcw1C5xNTXkP1m/nsonOdvuf+2PdrkP1TRp/2if0d+2Gq7LKtWypebEUbVsqXo0LGDkP1TNT/tE/o79sesPIgdzU02UNdL2+537YaGzAgtk1mpoeq7CFtnIX891vaWach5VT/vDnPzVP8Xu54n8R6L/zDqH6P/bCl3LSLZUvSQllVsotLl2lb4IYCch6K7/vDqH/ANh+2BeRBJItz+UGpq723QI2n83OW7zik2FItxS5hxHOKl07bKlo4phS3IypjDMLfhlUnrr/AB17d56LyN6Wq/3217810e4UbMlLZ0y4VbZ0y88oeRvZ67nrWWh0nbvBeRxZu/dau0Cp+Uz/AFkv85dTZi1TKLS5dpW+BjSFuaZMSkDnG/1qWK8iWzcwukW1lod/+ND/AFUu8xlMcjGxcu1C2/W6q+6mLjq+Mv3jU2a9M5V6XT3opf4l3pS/2nguWSl3m1LyN7C3+Vqj5w/ElsJMc5pqi/f8JfiNV3ar+GSlnnHlkpecpuEPIyyby6aN1KgriY3r/wAgXkS5MZjnF2iirwnMz0dhKN2m/hkpZ4T+WSl6sb7ByMsmcvCjaJPqicXc/wBN289E5HGTG7ftBF+idzPR2F1TZyD8KLUxzjPVLgR+EuQ+G63tOzQcjjJjmp7n1F/6zaGI34nGTH5pqP6Qe/q7vMTRrZxFzKXS89SJTK9S5ecVvhcdxTkcZMrvJFQ/SMx/aJ6j1g5JWTGXhRvY7u75WoTGd3+MvrLquzlUGWSl5qAuWSl3nWYeShkwu/vX0/1m0Jjf/rU9R6wclDJlmpdZNE/+YTH/AOy+sas25JBlkpeah5OZd6XLxq3wOzQcmLJpLwo2llIbk/y6Z/4nonJpyYom+yaX/wApMR+ntGq7OJ/h+s58P1vae8hlzo1QmdCz1XYdl/FpyY/+Ek80X9bf5z3b5NOTPMS6ycPmGqbNLp1Raq0m3Ns9U5fd3KqewzYOihuDGT/J7k1TSSdEgl3ndyNoi3oUFYiYjqT0UqzoGFuWFvhuT2kpYm1eKuJ6gZV0tbZ0y8PDOmHPwN7MaugeGdMFW2dMvNBAbNU33wzpgq2zpl5ogDYpvXhk18D1XYHhkaKA2Kbwtst/k7T/AFnEVbZb/JBpIDZNW6/hE1fm9kYCrlL3+SDTkwFXEbJq3L8Jf2QKuUvf5INPAbGrb/wl/ZAfhL+yDUBkwBq2xcpe/qdB9XwI8ONY5ziaoKuJbNW1rbLeR4ZGqgTY1bV4ZB4Zz/wPVdhqoEs1bV4Z1MVbZ1O81cBZq2ZbZ1O8jwzqZrQFNWxrbOp3keGdTNdFXEbGrYltnU7w8M6ma4A2NWwrbOp3keGdTNfAtmq+W2dTvI8M6mUQGbNV2ts6neHhnUyiXEguxqvFtnU7xFtnU7ymAbNUtltjU1XyjoPq+Aq2yqd/lcqxVxGzK12/U5jnNNp7/hOIq1mqX+UdB9XwKwZMBs1Sw2zVPncVaxVL+u0/1nEwRVxGxTOWsVO8lKxU7jAAbFPZ552Ydice61cTHj6SjCriFQAAZFjB0UG2ZrHOcTN2/U5jnOIq1ip3kGJsYZKNuMjbFTDbFTA8Uo0/dzPVdhOx6mOtYqd5WVe2ztHgWJ6o6B1MW+Bm5ntjFiw2PUxko9TuOOV3lPSFJqr8o9Vudbzb++FF9pWR8q+mZy+6x3jjzr9spbu+x6mSlGql3k7T/WcTgi8q+mX+ViPxr6Z87GvB5PRuNfV33Y9U+R0H1fAZKNVLvJ2n+s4nz05yrqXnrz2n+s4mZLcq+l6GH3R0GPN8N5jXvVTf+HOcneFo1Uv8kDwWTqkxCjmh0F/wfA5dZLLo1a96Btl3TtRrcjnHfcdBij0i53FLzE4ckeeKbLNLHVNE8naf6ziT4G1NfgtB9XwKoBbS18DKmHgZUyoXERcS2q2jsZU85R4LGVPNQqEwFXEyLrwMqYq2fdl10b3WpiU4AXHgnrHOcRksbu/wL870u8p0wAC42Bq/N+524VbKawuk9zt5UgWxcJQNXTR7RpzF3wfAVaPv8r04p1xAguko+7yvTg2P9r04pQAutj/a9OFWj7/K9OKcC2LZaPv8r04eCjSGammq7el7dF0e4pgILhaNTL/K55x0amZy+65UriQBcwUamZqe642xqZ87lIAFytGpd/lf/Y9J+t2kbGpfzv8A6vR/q9hTiriEpdbGpfzv/sek/W7Q0NLl+b2vh9Xo/wBXsKQAq79y/ncPcv53nfzPR7ikAC6XZl/XVF/6ziR7mfaJSLiAF37mfaIe5n2iUgFsXfuZ9ojJ4O3c9tHS9pRAQZAAAAAAEsHFuUnaPZdAglvlvFO0nIst/SZ/k1Pq+ycI5Opjjy+bGz5Os3K2bk5ybarm0tKl0TOzeKpf4/0bzomTWXsfVHXm57J3t2Zlr1iqCVJ7nUvvh5mHciol0O7G6/tOQznvx/8AlIvWb/kg98T/AOT7D6nU9dzdPzZ8UTFYzMeSbOlwTFJtLBUZWjWJkrOarHDmzD0k3FEm5F3q54y7+PquLK2NuH7F2PmlmZeg1N51IIYpp2nw50fioiX5u7clybuBQWI8pzf3lnammMTFAqDk772ijT1H6jpel946eOeY+Vvm55ZbT3cfrmW6vUtFlpKSpUjLPwwpA8zT/F3ol93feZeTGVatfVpiCpyrdQnmfHcmWW9HDHel6XQ9lyKidxaz9g8mVUkpiaetTq9YZbSJum/JxZqXefcvea9kXjecygQq+5pXERYc/iibofQiHzvZvNM9ZPDOMeb2ZZeHhE+bvtmqvRbPyz0NQomqtNoqS9V+QXtTvW86tYGqrWrJyU4sObpFcu+lEciRF70S/vOLzWoay7p+tzlvOoZJ9FsSf0HVZyXH2vbnRcPFhtHm58PN4s1Tfm+ggxL3TT8mH1IIfyjP90093l2C4gMmAGCygMAUoAuIBLADJgAUoAuIBLAAAUAAAKuJA4AIA4q4gQAAAq4kHqmAkfSUBQAZMAlvNcQHXEgKUBhVxAAAAAAAAABVxAygADVAAAMpQNDyuyL0dno6jT+tlUWCY+5d6ehUN8POPpKezouo90545qumNXxHZ2wtlalaGfgqla2VnqkTMWp6S6JYUVfG7d6qdMsZk0boNMqiNWjplQbfiRIZnRstzMaXfvoYnIVS7BN2CIdmrWTSydoKm9UKnTtPPPZukc43QpCnoRDETInYSXTWtkdL2bj9R1ftb2Z1cXlhrlPn8+5o0NbBT9lkhmGW5mqtZqRJDLScLjy3pf0oYlRe5R5ml1S0kjC54NVen596aWYp/j7lu3+bzXHRWMm1k4moVZpElouzTdLvMiDJrZjNT3Ipxz4fauPDxTxYcnb5PPPT3N2+VZvIxaqHKpKzmoOTNNjfgzHXW9HEtzcKLfD2XKip3Hjk5o0dCtHVUjZ0EcE09e3w5yI+q2cllmGJ+Oa2Q3413U9Hcl249Z3J5ZiamY3dkSXjXdd0tyXbzzdJ1WPTdR497OufFvjGNuUWdo0FsJ2anI3tQkKbdDNOfLxKl8KeZUTuOt2Lp0dKs1KSzjOrrCrkSN8IYnIooV70VF7z1pVkrP0h1IpKkN6ynyPR7i/WKKJb42dBF8nwO3tT21l194xjX+3Lh6fwpuyN9BBgA/J09cwAACFAAAKAAAyAAVcQ0YVcQAtMTIAALRsAADLYAAAAAVcQlmFXEgAoABVxLSWYVcSAIgAVcRkwC2AAVcS0mxgFAjQXEAAAFXEYVcQL6TpusS8Dn7i339b0se09tj/aNOY+r4FOBqxcbH+16cYcwzq70Tembfu+Ea6K/cYYGUsznTUUAClXEBhVxOsZT6QACntFaCQshTZuovdbm3r3IfNdf5YLUs480zTtO1DEqI5xPPM4X3hcvK8Ymf8AEPqwZMD4sTlez8+mhZpHNdh4O8oG0bzixsUnmlwL3+UrGMz3/wDf/H3RLahoYdNUdA7vvb4bz3hplLmE0m18f8j0n63afBv4frT/ADRO/muj3GZL5fbUaGH3Jc/O9LvNxlT2Y9B1WURljj2l90ozS5dNHtfD6vR/q9hhzGi0sWhe07XY5xPj2jcpCal1hbnaRO6ynT0XR+i7uuNxoHKLkJ+paF5lxh3de270k3dpnxMWPdOe6jCbfQ7nTUUp6BV2q9SJeeZ6p1Fu7olT2Fs30EF28nLGfDyRx541ZgACrMVNAVcRgDATA9m+gh4gGlzKahq8Om1zS779F0cewddmX/wiUYFtnVdLsy/+ESum9FrEeh0mi3XaXpYdpiLiBbZpMfSUgAMukAAAJYFXEFxJTAFFJk/fi/8AXYC4kAtdrU5CXXRvU7Tupi5xFWs0y/yQUwFspcbZpnzQV8081MPxOMs6Bpbrm+G4xxVxIUz2anq7ULeztPd8JxMlus3wJ7kSX53pd5TAClytY3+SKceUdY8ZfcinFWBbTU809rD8TmhbYvu5tropu7DyGAjRQBcQABVxGADKTAAAAAACUAGTAhcQqBVxGFXEtjmGWGDa7EFP+Lu8+/2nDa5kxn286Fnqrku8x33Kn1sl+UhRWq97yv3IePHPbOYmKftun6j9N9mTy8XHG2Xznu5HZqw9Ul2G29nST9yrzjvSXeuJ1uyORV2sSEc2+zTmHXEW9vhct3sMGneXpf74fUh3umVPV1VvgwvqPpRx41+58HH2z1VReXf/ABH/AI4NNZIp+yMjNVJnR6LeqaLTZu7hm7vMa9S5CqT9nmKp8qrifvv3scUP77f2dp0ujyVpahT5uYZ8kxuO6PujiSL0opoFaZjl6vS24+mmff8AzlL4WP1Oc+0eomb8T8MejU52a1l17rYk3924xGqN4vevrN3sf1lX/wDRR+tTXYOhB+SnqPzfVRlxZTMS/pn9OdVy8+G2ddvt5tmyWTmz6i9L/E9u/wBp1pl7WG0c43+s5Zkz8rzHd6jqjXQTv9Z9DpeTxcYh+V/qjj4/e51nv5mAAPbMVNPw8ZbRYAAIAAANABVxAAXEAAJQAACgAAMlXEglcSA0AAAyAAA0VcSBwCWQCVxIBYAACgBVxAJYXEAAKAAAMoATAC0lgBkwIXEtJsgAAytgAAKpLTyjFQlImWPft3jez0XHLLQ1erWdp60+OnaeJm/nON/je07cKuJy5ePxIqOz7fRe0vd+HwOfDfG786/183z7Y+vuzD0DjzOgdVVvb1N5y7f8aHcvcdbkrf7PlW5fZ+nzE6zZ8xvvW/2mzgYjiyiK2dM+v6XLKco4K/3/AMULWUDaDMyzsns+b5jgcyqFC2jOu1jW9R1dc3V9nzHiX/8AHHvO1iria0y9Xjnqenmb8L8/8cdcp0/SrMzcszKTs+0kSRpMMtxNwx53jboYt6XX3b+BgrKVOoJCzshzow9b0sExO5wdFCThy9L4sVb7fR/1BHR8c8eHF+f+NIyZ2WdpsbjrzOgduvVvgbukWdev0gB24ODwIiLt+d6zqs+s6iefLt28gAAeie8vDEVFAAAi0AAVcQoXEAGTA1qllAFxAUWAADJYAACABVxJTANIXEglcSAlAD0g6KDpgWi3gBlJTNYTScTwdZ1dxW+BEeS4kHvBTNYhRziesFGn81ND1XYWkYYGdsepirRnb+e63tLTVsFcQHeZ1d2JvgIZQAABoAAAXsnqGrQabXNLvv0XRx7DITZl38IlIBbZXnuZ9onlPbL1X4T870u8qALaalb0WYmh6rsGADLVAAAFlXEZMAAKVcRkwFXEAlrKVqchLsQtvU7Tupfe5x3mQlZpl3kgp0wAFrjbNM+aDFeeamHYnGWdA0uDfAwQLaHd6xRAAtrYAAMlgVcRgLShMD2b6CHiBBcStpdnsQy/7i8S/relvW/f5xo7ZeMvk4pQNbJS48Mv5P8ANdHuMGZqu2H4oeN3qMUBaByX1WNWvi+3eKC4gZQq4kpgSAaoCriMAUh6QdFBFxICWz2alPy7ULbPVJgem2KmVgFspYrWKneYjzzsw7E491q4niBCnvBUp+XhRtnqkwHSsVO4w1xILZTMWsVO8Ray7fz3W9pjDJgWyiuvaw4rnEUmPpKQZQAAyYBbKALiKuIVmAAFpgAAEbAABaSwAAWkAABlbAABaQAAEQAABqgAAWigACriWkMAoyYC2gAAZAAq4gAwCgEoLiAACgAACwAq4kBTgQmBC4hKC4kAAUAAq4gC4kAADJgQuJAAACriASjCriAAoAABWUAAdKYAABmjYAAFaoAAAoAADUoAekHRQFxDFvMD1TAklFvEDITANmaxznEuq7McDI2MMlGn7uZ6rsLTbFAzUo9TuIWj1O8UlMMDNSj1O4dKPU7iaqrwLDY1U+btP9ZxDY1U+aBqK1cQLRKPVLup0H1fAnY9TJQqgLNaPU7yUsnU5hNJxFJarAt0sZU7iFsZU7xRapAtfAyph4GVMUiqAt0sZU7ifAypiltSriSmBc+Brvw3W9obA1fm/wBxbvlel3ilUq4iLiXvgprHOe528PA3/NwoUaYEl34G/wCbhksZu8o05j6vgKFAuJBeR0DVolb2vTvFI2P9r04UKQC9Sj7vK9OIWj7/ACvTjIoVxGTAu9j/AGvTg2P9r04JaiXEC7WjSF/PVdvS9ui6PcRsamfO5aVSgXiUamXeVyFo1Mv8rloe+2PsinBtn6qnMfV8ClXEC7MLrbP+bg2z/J/muj3FOmAEs1XHhZq/N8A8M5/4HquwpwFtrjwzqYeGdTKcBYuPDOpjJbOp3FKBdhcrbOp3keGdTKcCWzqtlr9TmF0nENsVMqQFpqttsVMVaxU7yrAuxqs9sVMVaxU7yuAbNs5axU7w2xUzBAbJbMWsVO8jbFTMQVcRsrLWsu3891vaRtkxQGwyFe1hdJxAxwJaW9lxEXEQBaBcQABa0AFXEgWUcVcSAFlGTAhcSAFqAAVcRYYVcSUwJFhAJXEgWAAAyAVcQXEAyAAC20ZMBVxAC2MgCEwJMpRkwAUApgFAJZgFAKYATAAlgAAFgBVxAKYATAVcQGAUAGAUAlGFXEABYAACgAAMgBVxIC0cBABaVxIAAWAAAoABVxAYVcSBkwAEwJFXEgCVxIAAABVxAAXEAAJQAVcSUwCpABVxAygGTADOy0UBgGy6lAYDO5oUD0TAkuxq8hkwHAuzOpAHAzuujyXED1GTAuy6vAZMD2DZmsc5xJuurHXED32L/wBXDJRd2HoO8RjMeZqxgMrYv0egNi/R6BWPqasUDK2MGxifD6poxQMrYwbGHw+rWjFAytjBsYl4+rOjDXEgz0o24haNvF4+q6sEDPSjbidjC8fVjVXgZy0beSlG3EvH1XRgAZy0beYFUc2O0sXA5zmuqRVxNUfyjyDLsUD1R0DqYt8CEtzS5hNJptPf8JxLsU2sBaLOtVCmszDPVR513dEqewsYKZrEKOcTE8n2a1YAFhsYZKNuNxnimqrXECzWjbzV7Xz8hZhmOYeqOgdRL1b4bjHiGrIqc3s9nTGk2jyoyFKkVjf6xL7zjWV3K7J1STfbkqv+6cPQfNdRqb9VYWCZe07yquc5x37vRcdYm4txnKpp9hU/L/S4phV+k6dZa3TVp5Vl5nqnL7u5VT2H5sNS+qwI18X27zdrE5Q5+zGiZY6ttVu71Vfab1Td+jMcObFcCYHy9YHLo7Up5tp7rcFPoez1rJCqtNQPdaqb/Ocpyqadoi4tdgWbdKaegSNnqlwPRKNuNxEz3NcvR57Y+yKj/wDT0f6vYJFWd/kmo/6n+s5CvnQ4dPVmf1tzQ1HQNbrm+G48qjbd2j0F+J57TupCt7nE/KfrGX/5/n/j63uP8nYp23+z5mOX2RUfEu/i/al/y30nkmUvd5IqP+z/ANsflxlqypz81aiZdZqOgaijhub4XQohp0WUuqXpzun3JznHcfe4+XxMIzrzeLLj1mYt+tczle1d+JvZNR3Xfxfh/LDSGVnX5nQ7IqP+z/2x+Qz9pnag7FMPdbHj3bvYe1HtvsesS0XCJDezjPZ+zTVd0zaR7Ic3/K6vnd+9fWNtj7I//HPjTJXlukJqkyMs/wBbCiov85TuNPrLVdk21Z6uK+7z3HyOo9pZcEzGl/7d44ri7da21d/BH+7/AFd3mJ219k/7Zo/1ew4tPS+qzUbXxbvSl56S/Uwnlj2zcf8Az/P/AB093v5uxLWt/U6D6vaOAba/62icRmuvi7vUVU118Xd6jX6v/D8s+DXzfQK1nf8A4F+dqHjd4i1nf/B36Q/ZRes4MzqGih0/W9o/NfAdV2F/V/4fn/jXgfd3XbP+bv0h+xDbP+bv0h+xOQSPvWDv9ZcyfveDv9Zj9Y/h+TwPu6FHazV4lb9zt32h+xJS2W7+Dv0h+xOXVjoRFRTOv7zzz7Vyv9v5dI6b7uxuWy8dfJ36Q/Ynmtst/wDB36Q/5J6jktSqerzrjfC71Ia7PvaxNuOcbvUhf1PL6fyvun3d78M/tGnMfV6TSXf6XaKts9/lenHFJHUNVg0/W77/ADmUmiu5jquwfqWXox7v93X1tlv8rU7/AF39Xd5iUtBrCaTa9O3/AORzDn62kS/zHLZbqIe/1lrK1PV2IW+F/rJ+pZejcdN929rWt/lenfo+Y/tiPCvV+b2vTt32fMf2xok+9rEtpOJQynvyL7zn+p5fSnuv3dVjtj4y+69O/R8x/bEeGP2vTv0fMf2xz17rF7vUeS4nSPaGUx5PBl8OUw6P4Y/a7f5qnxZvdnLEvnUVbY7/ACv/AEec9g6KHm501Ne/5ejyTzVNU6N4Y/a/9HmNULeyFPl9M9V+c7fc858uJzjLdbhij2Xjk2PfrcK53fvT0Khri6vk5cqp0jl7eToVpOUXS5F51jwo0GZdzez8N15895aeUW1PojLNcnX270ucZb0cK7uyHsPlms1N+sVOYnJnrnIvG7kuT0IhRTXXxd3qP0WF6xa+J9nVpvKfppiKPa9R33eoxH8quz5iWe2vUcfacvMd3rFO8eTHifZ9oZPOVuxSZWVlJ2r1HVm0X5HtVV/fb+3tPo2xvKFolp6dLvS1XqOhcvzfe/ZEqL6UU/KFMDecnVsPB+aah+IvtvOUx3dY5Ps/VNbb0t5c/a9R3/8Apx4LZNZqaGrVHRdnvc+TrG5ZpCKnSyvdbct/85Ts1nLV0usUaXnPlM70RKnsPzvU8/Jw5TUW9MYXFtmtflikKAzHC9V6jpYE39Hhf+93eY+XcumXql1qShTTVF+9btJxN4y8yVLqFn3X/jw+pLvYfClYZal6k+2z1SRbvMfT6Xm8bGLinCcqmm2TVtmnn4o2dJoluu03Sw7TEctl46+/fzXR7jTo+koi4n1dq7PDln3ltjlsvHXrPzvS7xfDI0p7rYhDrHIm7fm8ourwI3w/yzR/q9hvmTHLjs+tSMv+7fEj+CqD2bvW/dm7u3sODpgZdNm9nv6Y5T3m3pjk7R2frNZa2UhaCgSc+/pNK9Ct+lqExnblWHf5i/ZrNL0UP/8AQmD4J5P2Wx+kuJKP+8m783vVVX0qp3qPKaxX4lilupj6PqX03n4/q+TquLPKcc+1v0XTRx8uMRLj9Wy5ajaWbY+JEnqRSvt9lg2vZxIeKL6z53tfV9vWjnJ75ZYfRAiewoHKnq8at8D6nH0GM4RcuOXXazMas+pTevTzz/x19lxiLiVcy9rD8TnG71Et9BD6uHHrjGPo+flzbTM0uG+ghlNdWhWNQaNJOH+MqsPpVDfLWZO/BCyFOqW2PfaRLqPxPGVPTdf3ininl7+RLJV3ZExBFwOyUDlC7JgblPk/bv8AafMkLeihSHNze277946VPV00fA8/N0mPNHm9mPUdo7P0dyb5U/Ciz8k98pn+iOJPYb0rumXP4nwZkyyueDFmW2fk0j9McS+0uqTymJ+J29nq71u85+cz9n5RlMRL6OOeM4xL7WXExXutiOK2M5QcrMU6XcnffK52f/OW70XG8tZRqXWG0m/lPZu9h4cuHkxmqePLnrKYps7nTUsJP3vB3+s1Nq2dM0aDfhFpcvzfAx4fJ9L1Y54zETbfJfqYTIgqerwo3wOauZS6XnqYdSyrUuQY0xPB5PRu8fV1957WKfC5xv8AWUvE41+MPS5r9zcNxeU3LFTIZJtNo6DHm+G9SeByejpHJjHzbjP++3O71IVr3WxGtVTLJS9EvPaf6ziUzWUel1iBIeJfC5PR2jLGY83QW+ghaSfveDv9ZzuWtXS5VmFr4t/pW8taNb2lyGsvfR7C+HyfSumM97dFleoh7/WQ5U9XjVvgcoXLM1Eqqz1d63FfNZZOfi7vUTwuT0a1x9XcZes8zCYszWefi7vUcCmsu8hLvxNvdal1/mNLtTykGpeaebZ6pLrvMhr3bknvTE6+r6kdrPOKZUu9rDMLnE+GJnlLT+ni0PVdh5fjCVSY5zifQx6LKcY7vznLl/cy/wAvvhrq0PNzpqfJOSvlCwTFTblan1aLv71Oq5QctsnTZGJ2n+9M1Mzzb/TeT3XKOzwz3lt+Uebn6fQZx5nqszd5j4XtXbx2anZmWe62GK5Td5/lG7RmZ9r6E/3UOJV6r7eq8zP/ACyp6ERPYff6bpcePGMpN67Hcd00ax8TFd6xTBc6anmuJ9HVd2XH0lPKPpKQ30EPSapmsSSOcby2zux4+kp6N9BCvaZ1eBG+AxNXaJ7NjpFT1dyFvgfVOQK0mz7Nxvf4sf8AvKfHLfQQ6Fk9yl+D8rHIfIovpVYvaeXm6fHlinsx5qiIpvmVTKrPzVWnpZnqkVET+ahxScm3Z6Zjfe62Nd/qLe1VtNvzj8Xx1T1IhqCw5qqheDpfB+bzTnc2zo+kpvGRqydEtZauOlWl6qdbWKn/AJSJcv6yKc4LSztd2RP53A7zPd87LP4pWtsLMTFkLTVCUmetYczf9G5Fh/VuNcemNadid+N7Nx0KpV3wil8/46Xebd7DValRM1hUNbMeN9lRB0UM2X6mEw6azPy7+jZ6pF3G8N0yGYpDTieUVRc/zrd6Lhs17zXyavtPV+b4HUMi1tPddmR+IvrW/wBpz2ssvy9JRuZ65L87zrd6LitsxLx1RuWbb9/SzyLK/k518XpVTx83Fjy9n0uDqvD+K1TnQxb4Is6HiXVip+q0u1cjU6T/AIHCsL/3Kt/qU+mcvXJtsbSWIqjJTTFPmI41VJaXzcyBOxEzd2Fy7u1VOTWdyFVK0FDqleo1W8WjKmm+5URfUdPGiO1PFPWT88Wl23pyT1Vm6rD8OqRr99yIvpQ12TizpeFfv9Z12mR0+OOYV17TuZiZznFc1Cgel2pd2OaZ6qJd3cdI5e3kz77/ABUNmffqG9WwoNWqFkmqv+4tm01Ikg0vS3qqrf3qpW0yY1p5HfjezcXdpKhr9nm6Z8RFTzqq+0mzjPU3N04rKOwvsI5Bo82JVXmujiuA64my0TJ3MVCrSFKkvfM2kcfmiU3qy+QCcqUnUqtUKg1QZumZ0EczOdF/gjf0olyfehvd9LDO8YlyADaG7D6BFg0zkxdFEuld6UV6qt//AA+i4WOxvjKb+Gfk9cceUxdqeWqerswt8L/WWEvayfl2YW2eqTAzW7G+IhkN2N8RDH9v6XWOL7sRu2dTzEPF22dT0iln4GirY3eNeP6XPwsvqVS2zqd55R2gdmIlce61cS3Wxu8xXqBq7sTfAtcf0teDl9SlmHtYeic4nszUp+XahbZ6pMC0go3ioe0Fk9YhRziZnw/pXwMvqUy1ip3nu1Wapo090dB9XwLPwNGSxu4lcf0usceUR5sNu1lUl4Eb02nu+E4mDNWzqeni7vUXK2N3kpk61hNJxNRhx/S38UfNQeGdTGSv1OYTScS4cyaeOoJYfV00fAa8f0l5erW5isu6aLTdb2mK49rEaucTaHLG+OphvUDV3Ym+B0ieOI/azrlPzUJkNdWhct2T1iBHOJlNWN5tCXj6PDlx5XKpZqertQt8CI6z4yltHY3xlF8DTlOOM/JqOmuLtROvaw4rnEQ2JLG7iFsbvN3Tzz02VteLaDZOyWrvKW/P863ei4yFsbvM+z9C2BUdc+lFNW1ycHh43bWG87MTP6RmMzGsNQyvxfabla+U2qzHV/lkT9VM3+qaGzFnNov0r6zE5Pn7POcl9VmI2vi3elLzHXEyXOmp5ridIdY5O3kZrq0MaY66IuJOmaxLwOcb/WWtIyc+EizLm0dBoUv0fDcZmXaM+zSo+kopskpZfWZ2OV02nzVzdJxLSoWF1WX0XxfbvM+LXamqtOSK3M7YO2shOy1IatBLxorT9InOjMIqrvb+lPWin0haPk72crNnYbU06kO0J6fznlpz3SZXOVFT7r0vT6FQ+YKTZyYlHUmJKZnJGZl/G0zXR47jp9k8o1oqrIuN1C0rlQYRFh0TvS3bt/mOc5W8XNx6fFahqFKiok47JR9JpbvOl/tKea6+Lu9RdzlUlWZpyCVhzZuZW5U9BUzVPfpb8UtM9dDdFF/pJnJ6FQuz5s8jzb6CFxI+9YO/1lIuJnyvUQ9/rGzHiMl7rYjGc6ansYr3WxE82NsvVvdrrR65OvvaZx/OSHnHekt0KJv8xe5J7aSFDl5zTVHQOzEKorfDsNEtDIs06uTstLQ5su26qNp/i4oYjfQQ82OO8Rl6vRlltMy2S0rrT0w+4y9p2oor0c4mvs9Wnf6zKl5jWGYZX4vtMeYl9Veia+L7d52iKcpyC4kHq95Ph7/WVbfR85qi2yWbq2wJ5Jz6bzbqva1+2bawv+8o0RIe7cvpRTnMhR1rc5KyUfWTMWbL/ffd6zr8lyY7YbPqFDm2IWH9GjyzUbWjYVFhSKHSudqoioifQiHnnlqap7cer1iI1aH4O0mS5mDow+3f7Txfo1L08t9/tOb1mmVmjVSZkXn4plyXj0auxu6W+7hF2p2J9CIh7UWp1SXSYb4J7D2YzcQ+th1nwx8L6jsdkrs7a9+ntvVGdYcj3K2z0U33bj6Vp/IVsxU5Jma2tUechv8ANu9h+W0lWapr8PujOsc/DzbM5o4U+6HsPs1qqWjoFinqyzamvT7UctCqU5pzSQyt0KJekXbfdnd558uSpeiOq+z6OZ5A1mNFD7rVEyIOQNZjNT3WqJ+Y0xylcosMw8klb20UtLJHEkDWuPN5u/embDuTffgWdl+U9lHmLR0yWnbZ1V+XhcTnHqhFnLet+/O3+c7xMzDrHLcXT9J/xBrL/O9RMOY5A1idNFpqtUdL2mHYTKXVq7RpFY65UX444N7mk0l+9f33abW9V6pC4qaZx/DnHekv3nyM/aGmU46+X3eiJuFXK8gXJroIdM7UX3d97muaO/f8XsMGd/ueWT+YmY3GajUWGluub0mku3fG7TbZa31oqezDLs9VBfd3rf7SlqduKxMTzrj1QnWHVuvba6KbkwPNPtTv+z8ukNfc/udtkkjXQ1eo6LsPVr+53WX0ae69Q85hV+2Vos6PQ1ao6Ldd5jXm7ZWnzE916iP1T+H5euOC4ibb0zyALLy7aN7XqO49U5A9l7vK9RNETKLaeXTR7Xc3fK9LvNTykWwtfsOKekrUVpiZjReblJzRtJdu3Q9mHnvO0e1O37Py37r93aPxBrMfO9RGTkDWYu8rVE/N62WXLKjI1NGI7fWiYihiTm9oPbu397u8xlv5Ysp609ud/CJaLx0+cJjs3ew+rhy74xlXm+ZnlrlOPo/Qupf3P6y7DKzO16jv/wDY4HlqyA2JsFdA9Xqi+60qXyvC9EX23958i1bLplAqLatPWztE+5grm0JjeaRPW3rr005HOzkxPTK3Z8xNuROOx7t18UW9bkuTf2Ih3juni4/N9B1qk0FxZaKShchlr/ER3pfTf33hN2Tpcw+rnxkT1IcOp9s6nqbff61PGqTtUqDSzG0Z1jP+Da6KXbt3mLTnPW449tPy7S7QKZLuK3wNgyS2Zolp7aTlKnajoJeHNTR8L4UX2nzCxtTRJzrj+POO9Jd/abNZuu1SkSz0Wtajci88Keeesuf2vu+uckmzDNLSbpL06/FEiqjjXRX7jj1osm0VBddkI9JnM/K9Lel+/wA582SOVa2UjNK9J2unVl7/ABFanNHD9N0PZvvOqWOctbldpsbj7jkw7Ci31J1zSROXKqb4u2667uMzNPRHX4xH7Pyt9gSEvzb3Wpic/wAoU7J0+agl5L3xAqelEX2l9K5H7QO2jlYp2o6KWuiTW/jXKqejDuKq1mR6cpDLtQlp3aDEUSrDM/HuW5fMqKnceaer4sZqZeHn6rxe1U06atC/MPLKzPXQomd3oip6LivehzXYkPKKB1uJYXusRblLmy0ptCYmWfo9h03ie8PnUoHesUhMD2rMjs2pvy3xFT0oi+0x5H30p3jLsrNZ6qEzWanq7ULfAx5jrV7vUKmBmZdIybRYJva9pFh4qnqQ71N2TpNJkoY08pTKXR+pPRcfMUjNz9PmleZ6rsO5ZE+UNWaRVGKO4xQWKcwvPTVX6SpEucuZ9O+7uPNyzpFt+NXybjZvk0Wgr0u9PyvUPIsUPdu9hr9YyAWgs/DHDO+9oFX/AIn0tKZcsn9q35mm0Wegn6jTYIY1aaZ0cKxLCkS3O9qXr3YdhX2K5RVStRaifpMFAkpZttUgfmXndLEsOal18Xbuu+7A8PvVeeLwc3Vb/DT48r9GlaE6wkr77gXedQslaChWhs4lHtMztCbggiRtvU9JoFVVVFzu3cqL3n0zaOHJ9WKdNyLTVIqVQSHx4GevYVUvvXz3/dcfNFoMlFWk3Xpikyjc/T1iVWn4PfEXFF+5b0T6EQ9Mc1xdPm7OdWiyct0l16Np7WG774XNHo70xuzey7DuLPIkxPStvGmpb3u/CsL/AN2BS2jlJqRddYnWX2JmC7PbmOmm69L+67uuKuj0/XI0e+QXO9J6o1mLtLbplXsdI0S1tTWne9Eihih+9YIVi/WVTQm4s6BFNgq1q9pwyzXBc3zLcb7UcmLFWydyVp2HtnzsjDGkTny/jxXJ5rk7jE50uzRK9SltJG64udnMrfFnY39t/eausWcq/Ru824+orJWKioUVfsrp3LQU2NFigde6Td6ZyqveqnBa9QmGnH25Z7WGYI4oYXPuVUVO5b07jlx5fBj/AIajk+yjp83qE3Kvf43tNitDPbSqz0z8eGD0QInsNZbZ1eBG+Bv2TqyT9pHkcf8AeTLUaw+db/Ted2dmpR9JTCTyux+UhkvNMMzD7ct1ELsaQ/zlv9N50awuQ60lsaLIVqhyMlMtzk6kk8870mUwvXzF2x9V3fRORGj2bdstS5+uU6SfcZSOJlx3pKqORYmjcsDLs1WqZHZOiMtsTrqQ6w2zTvFSFIUzbnv33i3fdh2HI7a1OpZNqrO2aSvtzWz3FbV1noqq+MqJ9yxXdxxu0FpnahV5iYee07sebe5xuhRPYeaeK5u3WMbi1Qw6rzSRL0kVYV3370W72HoYM09rD8TnG71CJge3GKiH0ce2MQtZSq7An5ab/wAa/wBJ0i1GWTbdn25HhBcchXE9pCY1iZ1Xh7d55suO5d4yV8zHpH44uK3m1WBp785PwPPsaCSYXOhmuPH03obBk/yWvWxtrJNyHWspfMfdinouOk2qqlDyQSk8zLrtadmr4IpL+LLddf3495jxoj4cYt6seTt5NpsDl1Ykp5ulyz+ssM3Qwu8b96+lVTuPq2yNX29Z2Tn/AJVIvREqew/K5h2J+qMuRpmxRuLFdwvW+4/QHkvf3sSP5Mf+/EfF63g8GPFvz7vqcH92od0l+phPCpdQJM9fGeC4nw977t5ZazOPo1WsUzWIYnOJRy7Ory8y3wQ6A501KGpe/XO71IaeiOr1itXOqBTNYqcTnGI2uv0b3LmfyfYWkFM1iFHOJSWzq/g/SM3aOgzEXm+HaduKfEnV6sepuImnwJl0Z1e2E43wjg/3IT3ybVCkybjjNTZ2g2+masHyH0+3vN4yu0qft1MTddZe07UldCjnHxUOKU+Kp0WYVeC53n3+0/WcU1xxHo+By815z2+bdLWWCp0nOPzNJe1iQiuiac47kzk7or07jRZhrQvRQcDOnp52pTUcy91sd1/ciJ7DCc6ansie0Pk5TlOUzb1ZonNQz3x/Zu9h7JFnJeWlnK3dLvSXxE9e/wBpUvQ5rsafSXZYyeLvWKCYER9JTGd6xTrHeEszvWKWsVpdn2aSX+I561v9pTpgOmBy17rs7hS8uWzrNSVK2dp9C31nG9c72jWfy1aWorKbIkvFX4Xpb9+/zmu5MMlk/bSkzU2z1cEMSp3Kqew0qqRO0CoPyD3WsxXL37/afMxw4uTkmJxZdjygpSa7JRzyMtsVJ5PHba6KXJcl3ciHFY5GKQjiej6V5jx1nxlNvslal+fkHKY/7ygRc3vVVX0qp9COOIioGr6xrXO/G9m483uulvv9puUnk1ftBKzMVmX9O+zfE/K8Ex9W/vNGelHpF2OXmGNWebVUja4L/wA8e86xrHzF3azqZb7kKaY61fuT1DJ0pT7/AGlpaDpRfkw+pCUHstZJ+0k3C4/7yZW+H2+m86RZCTspO2tcl6n0ZTM1f781FX03mh2DtL4KMuvfxi9PTcbNk/p3hRbZ1/5WKFfQiHl6qPhcpyfSNlrPNVetzc7RGdoT1QhhkJhv5CHNRIV/moi95qtuWahkEtXA81Ka/BNQ6PWPjKiJCqdyoqdx9C5F8mtJoy6+nlKKG+P92aPDDxezdcaVytnJNyjRRTPXYRc5pOzd43buuPz/ABzvlOL5mf7pfLUNunZupVF55nQOuRZyt8Nw9icsXgJVtc1XXtYiu0OuaPDd0ezA0FdFnLoeqv3G3UyyWsWdl6j8pneiJU9h9vHjxqPiY1dklMp9JtFaJlyp2Kanm6usMCtzieKxciQXtvfvlW6/6FW7sN8yk8lezFOoe1KS1UmInoEcRtXdLm3phndqf+x8ussT9RbSmM9VBeid63+0+hsgbMrZawtbpk775jRUj771T0Kh55xi/wBzL55qtKiodQekY9JnNKic70t6X7/ObPR7WsWbsurbHv16GJIv5y3ei42KrPTOTG0+0ZCV16SmY4VeZ+i5Lyyt/lKs3XKeuzaDqz8cKXtcFu3+nf3noxnGIjuj/9k=;" vertex="1" parent="1">
          <mxGeometry x="30" y="20" width="405" height="405" as="geometry" />
        </mxCell>
        <mxCell id="ftl8LwkWCeDw0nH-mkyN-11" value="" style="shape=image;verticalLabelPosition=bottom;labelBackgroundColor=default;verticalAlign=top;aspect=fixed;imageAspect=0;image=data:image/jpeg,/9j/4AAQSkZJRgABAQAAAQABAAD/4gHYSUNDX1BST0ZJTEUAAQEAAAHIAAAAAAQwAABtbnRyUkdCIFhZWiAH4AABAAEAAAAAAABhY3NwAAAAAAAAAAAAAAAAAAAAAAAAAAAAAAAAAAAAAQAA9tYAAQAAAADTLQAAAAAAAAAAAAAAAAAAAAAAAAAAAAAAAAAAAAAAAAAAAAAAAAAAAAAAAAAAAAAAAAAAAAlkZXNjAAAA8AAAACRyWFlaAAABFAAAABRnWFlaAAABKAAAABRiWFlaAAABPAAAABR3dHB0AAABUAAAABRyVFJDAAABZAAAAChnVFJDAAABZAAAAChiVFJDAAABZAAAAChjcHJ0AAABjAAAADxtbHVjAAAAAAAAAAEAAAAMZW5VUwAAAAgAAAAcAHMAUgBHAEJYWVogAAAAAAAAb6IAADj1AAADkFhZWiAAAAAAAABimQAAt4UAABjaWFlaIAAAAAAAACSgAAAPhAAAts9YWVogAAAAAAAA9tYAAQAAAADTLXBhcmEAAAAAAAQAAAACZmYAAPKnAAANWQAAE9AAAApbAAAAAAAAAABtbHVjAAAAAAAAAAEAAAAMZW5VUwAAACAAAAAcAEcAbwBvAGcAbABlACAASQBuAGMALgAgADIAMAAxADb/2wBDAAMCAgMCAgMDAwMEAwMEBQgFBQQEBQoHBwYIDAoMDAsKCwsNDhIQDQ4RDgsLEBYQERMUFRUVDA8XGBYUGBIUFRT/2wBDAQMEBAUEBQkFBQkUDQsNFBQUFBQUFBQUFBQUFBQUFBQUFBQUFBQUFBQUFBQUFBQUFBQUFBQUFBQUFBQUFBQUFBT/wAARCAGQAZADASIAAhEBAxEB/8QAHQAAAgIDAQEBAAAAAAAAAAAAAAIBBQMEBgcICf/EAGIQAAECAwMHBQoHCQkPAwUAAAABAwIEBQYRMQcSExUhMjMIFEFRgRYiIzQ1cZGhscElQ1JVYWNlFyY2QlODkqKlGCRERXJzgqPTCVRWYmR0dZSVpLLC0ePxJzfhR1eFk/D/xAAbAQEBAAMBAQEAAAAAAAAAAAAAAQIDBAUGB//EADARAQACAgEDAwIFBAIDAQAAAAABEQIDEgQTIQUxURRBFSIyYaEGUoHhcdEjYrHw/9oADAMBAAIRAxEAPwD7XSsVO40Jp52Yfice4q3X+gxAeY9AABkg3UAxgTHvKQAyYANBuoSAhkg3UIADKmAq4iAWxK4kpgKBA4q4kAEoABjj3lLZQj3lIACKyQbqCR7ykAAq4kpgSACriQOADt7iCx7yiLiSmAEgAFsKuJBK4kEAAAAq4kDgBCYEgACriSmBC4kFsSuJAAQAAKuIDCriMmAAKALiACriSmBC4kAbYGSDdQkDEZIN1CQAxx7ykGUAMQGUAIg3UJGTAhcQIAAAAGTAkBAJXEgAMce8pmTAhcQMIGUAMQGUAMQGUZMAMAGZcRFxAQVcTIACJgQuIy4gAgDgAgDgAgEriQAAMmBC4gIuJA4yYAYgMi4iLiBAq4mRMCFxAhMAAVcQBcQACWFXEgcBY3QLtaPt8r04q51nm8zG3pm37rvCNbq7OgzoYAADEAGOPeUyt7iAQBK4kAMmBC4kpgbkvzDRQ6ao6B3pb6i0NEC4b1XmJ8LjfBfzuWktTpgSWkWq85fDaf6zrK+Z0Wni0HC2XegUrCuJBvy/MNDDp+L0m8z3OaKHTc90nTot3sFCkTAkvfvY+0TXd1NpF0Ok0fRpd7tMWPJULiQZZrRaeLQcLZd6DEGQAAABkwFACVxIAAFXEgs5WpyEuxC29TtO6l97nXtNmCs0zNT4IAoVxAvlrNMv8kGBytNZ66GkeC6AKgDLNP8AOH4nNDoL7vB9WwxAMmAq4gacxU+bvRN9QWm0uJBEu9zhmFzrMgKQmBC4guJAQyYDpgbsnaafp8vBLs8KC+7tW/3mbuyqfzjoPq+oJasFXEs1tlU7/K5gctPVJ+NWdNp/rOsFtFcRFxHmIXYXoke4vSYwoAAAVcQGFXElAAVcSUwFCxFXEgDOwAAGIAAAAZMATAkBVxJTAkC2AAAtpQGTAUBamFXEVcSBYlcSBkwJMWPEgEriQGQAZMCFxAgAAAAAAZMCRAAcVcSBVxAWPeUgyJgSBX1LgHgGUupz8vaVxtnhJFBd+ih9Eub6nA21s1rCqwzHy1h9SInuDJjyUvOzDWke4qw7T0GDd7VKez0nq9tqX+Qnt2+8vXuIvZ7ApBVxBcSAwAyYCjJgEpIq4jCriCiLiQSuJAUAAAAAACriMmAABtgMmBICASuJKYAKA4q4gSmBJCYEgAAAAAAAAAAKuJKYEiriAwCAA4EJgSACriC4kAAAAAAAAAMmBC4gQAAEsAABQc7VvKDvZ7EOiOYtlgz5wtrimeItdvtU3EwKOiVu7MkvkJ7dvvL5yHNjVAnJhj3lIMoFoImBC4mQuLNeOp8HafbxOsiWogPT5mior8U7qnbGiepLvccPaGLOrEwuh0G74Pq71DKmPJTLiQZI95RFxMLZoABkwFpZQHAqkFXEdcSCWN1MCS71zS/mj9oBrml/NH7QKKJcSUwLvXNL+aP6zSfrdIa5pnzQBSgXiVmmXeSBI6zTM5fggCoTAC4Ss0y7yQZIKy1mpoaRJaPo0u92gUK4gXkdY75fginAlY2eSKcBSpgBd64+yKcGuPsinEtaUgFytY2+SKcPBazm0KN6op3elKUK4gdB3Z/ZFOMcdf5xErmipzF/xfUEUYF1rn/RwyWr5umj+DtgFGBfpbOfu8Do9H0aLd7BI7Z1POUCjAuu7OpjJbOp3AUK4kpgX3dnUzHHbGprEvwjoPq+oCoTAZMCyWv1OYXSabT3/GdZHdXU5fwesdBd8X1AacFNn5iFHGeEuA6UaqXeTtP9Z1mWOv1SYiVzW+Ii1iqX8bT/AFnWBGpqp80BqaqfNAa4qZjjrLucum4vSEpsQUaqZqfBBPcpVJjwmqMTV03OPCdYq4hW53GVP8joPq+o8Wy9UC1UvJzLdM4iIl36KHqzm+p828qzxOPzJ7ELSW5Lk02LtKuVuGeq3lCPidiXQ/qoh9r9ylUmlid+Uq+pbj83eTX/AO7skfoSuJlxRddxlTFWxrt/huZaTp0u92nJTtbY5zHIsPuvzsF2dKye8l6XppPouVF8ykN0qfegSOoaKFhf4Azuwf8AyuK/Sqktku5ygc3mI2/B7LuFu4dB0FHin6HTWdBUZJhp+9Ebd3k2qm05KXZYl2YW5ZjmzKbrXV1+lb17Qj3lMUp6VKy8MqxA3rdvWSXrHot3at6XdioVNclH5/PZmatJab8bS72Gy/suOOg3UJLbHis2rPc1gRrW9O7337R9T/a9OKdcRVxMaZrxLJ84TSa3p20VaBzddHrenbCkAUlL1KPs8r04ZLJ84TSa3p20oAKq8joHNolb1vTu9HgsnzmFHNb07vigFXElDOMmB43Dk2y65qfekn+0Jf8AthvubZdf8E0/2hL/ANsbOLG3q8xU+bvRN9RmZe5w1C51njlSyH5Z6g1KzD0pJSLkarfLu1CHOhuW7bmrEm26/YvSWa5BMuCXaHV2juS74Q+gcU5PTXKlIS8atvcVMTGtYpl55TMcnDLPMvROPau0kWPwgYF5LWWJ5c/WNPYv+L5+q3Dicnr6VimXCrWKZeeTt8lLLEsCLren/wCv/wDaX2j/ALlTLAmxazTUXqV3P/W0O0cTk9XSsUy40apWWtEuh4XQecw8lbK9mp8NUz0p/Ymy1yUsqUTaK7WKarnSqf8AhPYOJyW8dZ75SNclcnJQynXfhPTmPq+oheShlOv/AAtpxODLksFtZIS66N7ipibFOr7UxMaRnhLgU6cj+376aR61tP0q47B4eSXbuXTR91tO2F4ryd41WfBwkrWdpwqckK3TyZ/d7IMX/FpCq3Gdvkc27igRUyh0/tks/wBfSOLDk7aCsyGamm4vSC1imXnGJyOLW3eGyhU/S9PweMnI3tQv/wBQ2/zVP73sHE5O0grFMzUHSstXeB4XQcUnI3tRd/7ifs//ALsPsM8hyQrT0+Z033RP2f8A94cTk7dp7nDaOdY5FOsnNWKk25OdqOtpli/PnNHo9JeqxJ3t63XIqJj0DuTHOo1d+V7thgzKAAAGCf8AFjOar3FiAWneJwdvtU20wMTXDQcBwEACVxIAAMLm+p8w8rSU1hUKYz/in1EuJw1s7CS9r6nC3O+LRqiepELaU+M+T/Iz9NysykszKuzzcCrczJ723b4T6NvouPuxLNTlQ/fE78DS0f8AAKb+Pdsuc891/ablGstJ2LpjFGp/iksirB/SVY19cSm4ZcimGUk2KfLwS8tItU5mC/Nlmd2G9b1XzqqrEv0qpsJgKKuJgqY95RFxGADWc31NhnhQmJzfUaDdQBo95SBkwMTm+pLCOVPm8at9RruVmQz103F6TwLlASNpZu1ElL0WenW0mY4IYZBqT0kMxsRL0i6bl9h3tI5Its6lTJaan8prlNm3YEijlHaf3zXVCvhE6LugziLS3X1S1lLl2lb6jTo9sqXnw+coXORLaeYjVz7pWnv+M1fj/XGu5yH7T56/+okl+dp/fdvhi8WPJ371fpcw4rnXd7BNcUw4prkaW1lm0bZyh0/Rw4XMrB+rfFd6VG/cd26/+4ch+io4nJ9NrbOmXh3Z0w83AnJlT0juzpgq2zpl55yBeScXoa2zpl5HdnTDz0ByTi9C7s6YHdnTDz9MAHJKd8ts6ZeHdnTDz9cRkwHIp3cWURphdGzTlfaTBzrEXKVt8kr6ThxVxHJlTufulfZK+khcpW3yQcOA5FO3+6X9kB90v7IOIAck4u0iyl98vwQL90v6nQfV9Rx6YCriORxdl90sVcpe048ByOKwqtT1xPuzn5S71Iie40lxEAwZmAEwFXEAXEZMBRkwAVcRVxMgAImBC4mQVcQlkAcAWhMCQFXEFhcSUwBMCFxChcSBVxEXECY95SDJBuoQuIEJgKuIwyYAYVxJTAaPeURcSULijV7VCwxau093xnWdBFlNzlv1QcMKuJnE0lO4XKXt8kEplL2eSDhQLyTi7v7pf2QMmUvZ5IOCAck4rMZMCxW2NTv8rh3ZVNPjtP8AWdZrplbRTANWc48J1m3FX6pMLpNY6C/4vqDXFU/Laf6zrKrWSjT93geF0ELR6nebWuKmKtYqd4S2BKPU7jLBR6nmoTriphrl347i9IKGp6mGpqp83af6zrFWsz9/geF0CrWKneCmZKNVLvJBOpqp80GqtZdv8NxekjXIVsrRqpf5IJSj1S7g6D6vqKOqWu1BLzc5/i3+o+fa5ypp+TqswyzTp19qGLY41ursTAyw17Nk/kxmY/ZjyfT/AHKVOY8Jq7T3/GdYyWOqd3kg+aqHyt5WYzJWdZcYmYd9t3eS9b0v7Lj0az+WSl12Btfl/wDU3djPDztjjCcnp/cdU/mgdLG1NU4Og+r6jnWq8083DGzwlwNht7nECOdZpmJvx7La4WxlTvDuMqZUjJgYslsljKncMljKncUy4kAXfca78dxekZLG7P4F+d3u0ogAuo6BzeJW9Y05i74vqBKPs8r04pQAu9T/AGvTg1P9r04olxGTAC71NIfHVanaXpDU1L+d2/zW72FEuIyYBKXepqZ87hqal/O/+56T9bpKQAUuYmaXLro9b4fV6P8AV6CPgv53KVcQBS7TVf5acf8ArGt1fMH3u/Hax0vSUS4kBV797H2iQup7/A6x0XQUqYEgXHwZ9ojJ3O3eG1jpeko1xIAvfvY+0SF7mL/Jzj/1ju8vnKFcSALyLU1/gaR4PoI+C/mgolxGTAC7+C/mgVdV3+SCkXEALr4L+aA+C/mgo1xIAu1qdLl10eqMBkes7MJpHqR4VcSiFXEljfTAATACpQAABYAABRkwJMS4jJgC0riSmAoBUriIuIxjj3lA8my0uc8hSkf31dH6EQ+Xrd2h1TWUk9XafQrDBpOeaO/vU/F6D6YytfhfTv5mL2HyFXvLU9/PRe0/Qei3Z+l+k/UdJU55TXmPb92icvL0uyNr7J1d5qn1OwzE/PQoiOTDNQ8PHftS/wAyKieZDqqlZDJe5OORRVC0FhKsqIrTMDmkSJbkuTO6b9i9p5HYH8Jad/Ji9qnXuS+tMock3/ey3+/3nBpjPrN0a+pm5n3+zDbn28bdTQrMW6kKjNvUatSz6XJo465xZlLkuzfp6OwuKRlNygUFxJGu2PnYI2lXPRrdW9b0VPoVFRe0z1qY51SJpzrRU9Gz3HgVWyh1azCMM0yozrDjccVzbW6l8Srs9J2eqel6vTpxrK7/AGa9O/uzVPrWhZbJOYhglpqUckH4d6Xd3oL1v2+fHtO7o9rGqrFDAzwlwPh6lWnrGUm1sm1XXoX4nILo3E8ZW5LkzuxEu+i49VsHYaYszUtFT6+9T5SCNVglZjfcvVVVF7VXsuPO1ehz1Oud2Of8Ll1HGZin1asOatwi4lXZ+J2Kjy6vS/NXblvb6u+Xb249pawbqHzOzVOvOcJ+zrxnlESgAXEZMDQyCYAAq4gC4jJgKMmACriMmACriAwq4gAAKuIwAYlxJTAyCriBKYEiABK4kDJgQuIGKPeUgymOPeUCUwFXEZMAAxriQOuIq4gIuJBlTAhcQFTAhcQXEglCwTACVxIKAAFXEJRgBMBkwCsa4jJgSuJASgAAFMmBC4kAWhx+UuyTFpKLE4x46yirF7vVcfOlMl7NytYn2rZSPOYn7oG3ruaaG5ERF03xmHZh0H16mBhn5SQqEtoXuL0nu9D6h9JhOvPHlH/NNM4+XzXRsnMvR6Y9HZ5/uhYmUi0Tt8C6JL16Ye/W5b029RV2OsVOWeq85DUHucTcK50bnf8ASl6J3/fbEVE29XUe7TuSaiT01G+ww8xOx3Z01J8RdlyehLk7Dma/kbqOdHo59ioQdDVflHWHsPxZmX7+L6M/DYmCIeho6vRr3RvnL/DDbr7kVbzy2UPOKQst84XyvrPNafX8lEclMSFqKPO6/l0VjnzW7GsPew3eaFIU7D1Sr2FnJKCKmTtma0/LOd7pZWoQTrTN/TDpe/VNt/fYYYHldueTe/Y5xqpU+0DczKTa3wS1Qahafh6FSKGHYm2+67ouU6/VOoj1OYyieMR/lp06e1N2pMnVDlKzlIl0kInIpOXvibV7eux2nuNain4tJoeEi3J2bCkyZ2VdsdTUcehbhdfhW9Gt3FcC6mZaflJR5pnhTDqXdp9p6Rqjounx73mJiHDsyy5z4euZFdL3MMabiXOX/pxHbNbnavtKqy9Jdodn5GSe4rbecv8ASXO95cwbqH5L6hnjPWbZx9uU/wD17Ov9EFAlcRFxPMbDCriMmAACYAAAADJgQuJaS0CriMKuJFAAAAKuIwAIBK4kAMmBJCYEloKuJBK4kFoKuJA5jj3lMRC4iriMAEJgQuIwq4gQAAB1Hcb/AKOK2ck9XzEcv4PvLuFu7Uv2ek1kwACVxIAAlskG6gLiKmBC4hQuJACriAxlkaZziaVzrKK0FoJCyFMmqk9xc29exD5ptDywWpZ15pmnadqGJURzrMOSYTzmsYmf+IfZblGkM9dNUdA70t9RjWjUy/yufDbPK1n5htHGaR4Jb7vSP+6ctHMeEYpE7olw0W72GcZNk4T/APr/AOn3BqamfO5VzrLUvMxtsvadpLrnOvYfGK8pa1F/kiomZvL5aeuQJ8EOeA2+G3uvaXm6Y6PblFxD7Uk6ZITEvA49UdA6t97fVtNhKNS7vK/+56T9bpPjOW5TFZiYh01IndKl6Lot3Yt2wvLNcp6cmJ1JWdZcYloV4bu8nTtHd1R7wfRbp8Y4zP8Ah9Yampfzv/V6P9XoNKvWbs7P01GXp3nzty3snI2SrzFppJipS3BfvzexVhX1op0zu+vZ7DfHUTEePZwbcM9OyNecVbzusZGKdDzedpk1q9yOJVSW0ukzLlu4fRfdf9N511Opz9JkmpSZe07zad85otFfftTvejYqefEswOmPUusmOOed4x7Qs68YmitcNBgA4csuWU5T92XsVcRkwFXEZMDAAq4jABZSXMObQafi7b/SbCaru8naf6zrKNcQAvfgv5oMU9qvmqeB0H1fUU4FtKDeizE0PC6AXEAIoAAAAAAFXEglcSALaRtNP0+Vgl2eFBfd2rf7zZS2dTuKAC2LyO2dTzlNWoWndqEvoXuL0laBbGJqHNbRPOC4kx7yjwbqGIxgTHvKQAAAAKuJKYCR7ygmAG8AJgAAAAEoDJgY1xAKmPeUgZMBVxA8zy1Qa3pTVP8Ak7PTt954JUMmGjls3tPoHKpxpL+UhQ2q8XlfMhy45cs5ifD7To934T6dO/Vrjll958vIrO2H5u023q6SfuVfCO7y7VxPW7IZFdcU+Oc0NOY0iL4PquW73GpTPLsv509h79S9Bt0HjugXO9Gz1XHfGrGv1PF/GuqnzOXn/iP+ngkzkin7IyE1UmdHotqpotNm7OrN2eg56lyFUn7PMVT8qrifjfixxQ/jbejpPSqVTLWTEjNuR+T1cdzP04r/AF3nnlcZjl6xS2499M+/9JTPs4/3NE9dnlPKci0anOzXOXXuLEm3s2Gm1Ru97V9p2tjd6r/5lH7VOfh3IP5Kew+Y6qMtWUzEv1L+m+p2b8Lyqo/Z1WSlnm9Qeb6j1dvd9J5Nkw/CKofzTP8AxnsM545MfzsX/Ep6nS593GIfIf1Rr1fWTxnz7sICriB2TFTT4eMuUWYBQIyMKuIAAyYACYAAq4gC4gAAABLMmAq4mSDdQkKxATHvKQAAKuJAEriQAAAAAAAGOPeUBlxEXEZMBVxAAAZMAFAFxFXEAXERcRgA3UwAlcSDKgAAGIAAAAAACnthRGK5RvAeOsIqxe1PVceQ1e09WkKRCxHTtPE3nJpOvap7sBr24c4qPD3ei9T+n09jfhzxu/ev+3zpQK+7MLJOPReFWJb5Hw3ed8vydm3HZ1ntDFv9XswS+qM3MhTZzOYcx273TidGBhGrKIrkuz1Dpcs5yjRX+f8ATm57KBrCVRnVP7PmDzus0LWNSerHO+Y83uh5vq+Y7y9E9uPae0CriZdvL+5xz1PTzN9r+f8ATx3V0/SqW3LMyk7PtJfGkw03E3DHnKsWyGLal1923qNFqhVSrtpDqhzb+V3u09yTAZMDm3dJ3Y/U9/o/6ijo9c68NX8/6cnk5sg7RZKJXmdA4iKqt9W1VOmYizmkX6V9pnA6On09iIi7fM9Z1WfWdTO/Lx49mJcQMoq4nRM3NuKIqEJgAAYsgAAAAAAAABaSyriAwyYEKKmAq4jriIuIUAAAKuJA4AIBK4kAAFtI2Zn6hKwTDPCjvu7Fu9xlWxlTvLSWpkwIXEuu4ypmKesw7T5VHnuL0kVSx7ykpgS3FnQIoLiBAq4guIAAq4guJAAAAB1H3sfaJWznNecR8y0nNtmZpd7Dbf23msmAGViI95SBgMQoyYAASwAAFBlkeYc6XTcXpMQAXrlTpcvErertPd8ZzzR3/wBHoMa1ml3+SP2gUwFtKXSVml3eSP6zSfrdJXTjzUxMRuMs6Bpbrm+rYawFspZytTkJdiFt6nad1L73OvabMFZpmanwQUYCyl4tZpl/kg1nay1pF0LOga6G+orkwIXEWUyvPc4dic6zEuJAGKgBkwIXECAAAABVxAC2krTT9PloJdnhQX3dq3+8yrbOp3lMmAFtKWy2zqd5ru2odqDisvcXpK9cQIrK7DmuKggoAC4gAAAAKuIAuJAABkg3UEj3lIAtpRkwJEAioj3lFHFXEBFxAFxABVxIHABAJXEgDdAUZMAAZMBQAlcSAAJQAACgAAJYAZMCQpAHABAJXElMAlhMCFxGFXEKgBkwJAhMCFxBcSAAAFXEJZgBMACgBVxAAXEAAAAZMBVxAAAAAAABVxIHFXECAAAAAAAAAAxx7ykEx7ykAAAACriQSuJAG6mAAMmASygOAUgGVMCS0lsIGRcSC0WQBwFIhMCRkwHTAvFbYFxIMy4jJgSi2FMCFxM4as5x4TrMUa4yYGbUwamLS2xAbMFGn81NDwugyJR6ncWi2guJBYanqYanqYpVauIyYFklGql3k7T/AFnWTqaqfNApirALVKPVLuDoPq+odLJ1OYTSdYpkpwLpLGVO4nuMqYpLUS4gXa2Mqd5KWNdu8NxekxLUqYCriX6WN2fwL87vdpC0Dm66PWNOYu+L6i0WoQLtaPt8r04jU/2vTi0qlAutT/a9ODUt/wDG7f5rd7BQo1xJTAu9SyHx1X8L0jJRqZd5XFJajFXEvVo1Lv8AK/8Auek/W6RVo1Lv8r/s8UqjAvUo1Lu8r/s8WJmly66PW+H1ej/V6BQpALr4L+dx07nbvDPadzpc6zFLc9HvKQX8Wp85dDzzR9Gi3ewRdWX/AMYgtRgXfwX9Z+d3u0Pgv/LPzW72AtRLiQX3wX9Z+d3u0yQdzmammqOgc6W+oFs2uPsinCrWdvCpzH1fUUi4gCl4lZ2fxcTrn/RxRDJgC13rn+b/ADW72DJayfl00bPCTAogLZS+7s6mKts6neUYFspd92dTGS2dTuKIBaL7uzqYq2zqd5RgXktLvuzqYq2zqd5UJgSSylmtfqcwuk6w1xUyqXEgxRaLWKneYo6xU85TQAtrSygrFTzUJ1xUysAto346xU85SNcVM0QFsm9ripmOOsu5y6bi9JpriMmAti2NNzjwnWBqriAtk2FxFXEwgLSjriSmAqYAYlJXEgALZQAVcQLahcQAVcRYyJgBiAWlHXECEwJFqBVxBcSBYDHHvKZAMUoiYDJgQuIi4go64iLiAq4gowq4iLiSmAKbwCgFC4jJgKASjACYAFAAAAAAEoAABQAAAAABKAAAUAMmBC4hKQAAFKuIyYCriASguIAAUAAAMmACgAwCgALiACriAwq4kAAAAAMmBC4kAAAAAKuJKYEmOPeUBlxEXEAABVxGFXEBFxJTAkANsBkwAx5LRQBcRkwHIoJgAAORRVxAzQbqGu9xYic14siYAaq1Pm66PqMkD3OIUc6y8kpkXEDK1w0HJzXi1wNgCc14tcDYKqsVPm8ETfUZcji21xKyctNIU+Yjl3uLBdf2pf7zw3LNlkn7PwQ09nhMql3amd7zwG0WWC0VYcchZ4Sol3oQziGuZfc8tbqlzE7FK/Ju9l5eo408iRs8JcD83qFbus02pq69xb0vPf7E5eHWaZLQPcVL7/0lLRb6jA4GymU3ugk2Ivl3+1UPQJN3TS0EfX/1NU5U2RjcFA3IKZziFHOsnUxnE4/K8GkBu6mDUwvH5ap5RPs0gN9KNsJ1MW8flay+FauJBYrRtpKUbYYfn+0J+b4V6YElhqYZKNsHKPu2RirRVxLTUwamJzx+V4KoC3SjbCdTE7mK8FHHvKQXa0baSlG2DuYnbU8G6hJcamFWjbSd3FOCpFXEuUo2whaNtL3MflOKkXEVcS81MMlG2E7uJxUAF5HRu+UjUw7uJxUgq4l7qYNTGPexXgoQL7UwamHexXgTX/OPCauqL9/xmr8RVrG3yRUf/wBej/V6DyZKzP3eB4XQar1Zd0sWm4vSeDHqtx+j+WvKeMzD2CKs7fJNR/qf+ZyFfShGuZ/4mk1HRdHi/wDbHkMD0/MQo4xwlwMTmtM9S/in/p/LV3P2eypWXbvDUmo6Xp8X/tjE5azm8at6oqOz/N/7Y8jb0uYmn4vSeAcozKm/YtyOUkvGY81PTCi+8z1epZbZrh/LbE3D7CtLlP1PJLFqio7E/wAn/tj5ryl8pqfin5uSZZcYagzURt3NzkvhRdubFEnT0KfGlbt/W55ImZnjKl8Xal6epUOVccdejWN7irievGVxZyfUkPKOtFKpomeHCq3du0vLHcoO0ExWNJO+LRKh8bub6mGPeUzthOb9dLC5YIaxSZSGDdVIv4Zo/wAZfxeg9Bl69pmYY+v7RPxmstXp+jzcMTPCTA+msk2VV2aalZZ7ipei/pKcm7dlq88bbIy8Pv8AjrPfL4l+dqHfdpgctZzeNW/g7Z9oHhNKtNITrkLD3EuS86VmFqFiZRnhZuz0Hkz6plE12/5/06IwuLd5U7e6vl5t74Ow+cPo/movafHeWrLNPxVR1Wai2w1nJc2y5pIU2JhFdDf6DznlJ2tn7N16abZ4T0UKJ+hCeATLrrz0Tj3FiuVfQe1r3c8Iyr3cmWypmKet1i1jtYqLs489p3XEhvc67oUT3FU7WfCL4l+d3u08xj3lMMe8p1xs8NE7PPs9OirPfL8I05j6vqHgrPep8LU48pj3lIL3F5vd7K5SZ+z81DCzV6do4MPafXPJ6y0u2hWGUeq9O0tyovpU/NODdQ+jeR7+EU0cu7Z245OvHLxD9GXKrPtxrCzV6dosU43/AC7PQJrmqfO9O/1OYc/W0iX+g80em9XyEL3n9qnOu20znIlPleo9S2apmYx/l6WPTcsYyt7FMWkdp7sTz1Xp2k6fg+Y/tjQfymyETsSvWopzDvS3q+Y2f1x5vHOawpsEx8u/1Kqe446ty/N8+a+V7thrx9TyyiJ4/wAvRx6THjHl6paTlF2WsnMMy9Wta34VURjQ0OYchvXqivW/b9JeymVamT0u3MLXNPpEvRzVcTd6dHexbU2dZ83QQa5hu69hZycjaWmy8Esz5Jgv0fat8XrVTdHqOVezfHSY095eyv0uXdVvW87s/I0/vew25a37VQZhmGatUdHHfd4NlvBbt2LamHSeFU6mRzExpI99cTsKTZ7QOQzXX7thrn1TfE+JYfS4vToK/wA4hRzW9R2/5uTrn7XqP+7nJZ2dtK2cqfN5iNvqu9hPxHOfMw8rPp6yny7GZtZzd6JvTV5+67wjWbmrs6M3Z6DReyiyMu6rb2tdImOmnNHF2w9BzCPc4TSdZozPHi7PYX67Kfs5pwqadNUsr1Ll2NH8PbPyNQ73sMdNt/TKhJNzHwr39/FqD2dsVU25uzo6Di5njxdnsHapnOG0c6y/WZfDF3C2yav8DTqi+30OawmNpmbtlIZiaakOaXp01QmM7tOCVnm66PqLOS8Wg7faT63L4bIwuHaNV+lzECOaox+0JgfXNL+aP6yJz9aLavac/K8CHt9ppTlT5vMRt9V3sMPrcvg7f7uldrTWkXQ0jwXQV0za3m70TeqJLZdxd7DpKXTc48J1iriZx1mXw55ippYuWykM9dNSKdpekXuypnzRTihmePF2ewxl+qyYW6aC2VMzU+9enP8A1nWZEr9LmE0mo6dL3/F9RzMG6hts8KEx+ryV0jVZpejT4JpxkSs0u7yTTv8AU9J+t0lRLcCHt9prTNT5u/E31Xew1z1uV+zpjXcXa7crVLz1+9inP/WaPR3/ANHoKmdtZTJeZjb7kadsu9hWu1nwimCee5xKo51k+ty+G2NP7ttcTbl+DCfMlL5SFLl3Ub6i6Z5SzXP4tDw9l3oQ249PlOMPKzm8pl9Cmq9xYjl7G5S+6CmRT/5ZF9SrD7jlLXZYpCz7LkL3EgXb7THs5OaZ8sOVjK99zxyZZ+WiJ6YUPkHKVbruoqGn/KxIvqRDqMs+VVq1UCPs8Jxbk7Eu9x4285pnFj67vYfRdN08a8YylsjZUey2ehzXLvoT2Gm7xFNRMBI95T0KY9z9mZzfUxria8e8pij3lM4xTlbeTAv6BXtUQwRdV/tOTTAZMDPZGOzGqboy8Pa7I5TZ+Kuyqs8POS4+o6tlWdkLIyzz3EzFv9KnwhZKp83r9Lb6nPefSuVe0NJmLMQSv8ZQtQ5/al6eq4+ez01lPh1xtqI8PKMsdvO6qfif/KKiehET3HM2Rycz2Umss0uhePNtq7M+ZNqeq45J+GKF6NI969S7sBWe5u0Wuf70VIfSl/vPSwisYh5We380+GnVWHpWozLExxmY1ai88Pe+40lxPS8qc8xa+JubY8dfSGKL0Iieq482mpF+mvxS0zx4ETO7UvT1KhvjLw5Z3efYoGxTaZzh/SdZ0zFG/e8z/J9xOa/Ufs5NMDqLC2o7mKjDMdS3nHqzzdYm+pV9p2eTWwc7bi11JkJea5i08y45NPf5KkSpF60Uw2x3Yp6OO3HjD06b5RE/NzEUuzwkRET0IesZFLQO2mvde4rl9/Yqp7j45tK5JUOvz8hTZ3WEjLvRNszPy4U/6Ydh73ye7aXWbhkfkRr641X3ng9X01Y+z6DpuoxziMX1hUZfmtDga+TnetVU5WX4SdvtL+o1eQhlG0e4ujhv/RQ5ydrLXNPA1HQNbbm+raeF2MntRnjEe7MuJru1Pm7it9Rx09aTV8249ptPh4Tr2HnlvMsDDMb0DHjqImd6Eu9Vx149NlS97GHvEg9ziZ0nWdpI+KN9vtPgWVy71aXnYm495FLCYy/VTSxdnsN0enZT5tyT1WMTT9CJHxWDt9oj3FiPknI3lqdmHY3HuIt9/pPdKblHkKxJtwv8Vb7/AEqc09LlE048s8cpmbdu7xFNR3iKV0pWGoZeBGeFtu9JjerPhYjkmNmM1xceXusFxArkrOw2WnucNo51m+MMpj2c05eW0mBtM8KEp3KlIS8atvcVMTDHaymS0St/JNc47L/S2xs8ezrGeFCZpnxGHt9pxyWgamE0jPCXAzt1nvENUxsv9LPmtW930mF3iKaC1naItZ2mcTs/tc8xc23VxMce8pXuVnv1Gge5xCjnWdEY5THs1UsIN1DcZ4UJUwbqELUpCXXRvcVMTTMbL/Sq+g3UNt3ydB2+1ThZq1lMl34m/k3ewys2gamGoXGeEuBr4bP7Xo4Rjxjyt495SprHP8yLQ8PoNSGs/CUfZ7ECfrP77j7PYhOGz+11xjjXu/M5HucJpOs22anzdqFvqNJKNP3eB4XQZIKPU81D9G7ePw+Y45fDt7LZUZ+jybsmzwm0W7t2+856ftY7WJt2ce4ri7ezZ7ipWj1O8jU9TNU6cWPbybstPawnomfN7CKlL81nXGvk3etEUxSdGnOfS3PfFs73nSW3s8wwrE1LcGJIc3sREX13mXt4TZh28bc7IeMmef8AG4+z2IY34s51V+hPYEG6hshyxlflovcWImDdQ2o95SUwMuTLmxt7iGF3iKWjtMn5inwOM8Jb7vSpSLRqpeo5unGfEMspU+bzit9VxYzFZ8LF2ew0GrJ1OYbRzrIjoFTlolb+SY8sfh0xFw9pyT5FrPZbqFMJTa+9T7dSkMUTcq9wHEvW5E7Lu284Wt5LK7ZeqzLE5Lsy00zFmuNS+4i3Yp58fOqm/kftw5kpr8Nbfsvr11pcxXNYc00d/T/j+Y9Nyt5QO7B+Gb0Wg5wkMej+T3qbP/k5ssvLyeo/8czLy+nNOsybcD3FS+/0qZY5jnESyvyfeZHoc1xU+hPYYlxMol5vO/LZZl+atQtfJ9+0yc45x+9fk+8y0jiQmWp+POdnsQjHufs52fombNuJ5vYh67k0t13F2CnpTQaDPbjTnXM9JffEq73Tjd2HmTvEU6SzFEqtclXdU/wdFV/zY+wtnPJ43OzXPpyYf0/OdI5Eul0ejv2r+L0dXYWdEtRP2YWGYZ4SYHcx2Yp9qK5IuuvavckHL4nPy6ot93u7D3as1yyMMFMtPUqE/P1GnMrBIwPcBmJNl6edUv8AOql2Z47MYxp39J1OyMqiHzwmX+qOIkXYacxlYqlQeimPl+7Z7ist7VrSW7tdUa7VVZWdm44Vi5vuJDDCkECJ5oIYUKDU9TOf6bCfZ9FHUbK9nZzGVN2YkYZV7iQ339q3nMTFe0z0UfWV8dGdzl03F6SNTG+NOMQxnds+EzD3OHonOsVMBI6NP5y6HhdA0FHqeah148YiIpzTOyZtvS83zBmF4uKPb+fko4X2eH0HN6nqYyUep3HNloxmZlL2PSEy81NlEg6hVy/VO883Wj1O8ZKPU7jHsa/h1RtyiKp69T+UhVJeUbb6r/apsfulqoeNpRnbvDcXpIWjT9/geF0GmelxmWucsp+z0S0GXCqVCNyY+Xd6ku9xVUjLJVNIhxLlGdz103F6QSjbDojVriKp0xjcW9XXLvVJddH1GKPL9U85TzRujT+Ymh4XQC0ep3mE6dd+zCcso8U9K+79UzHHl+qecp5pHR6nnKSlHqdxexr+GHPL4ery2X6p6CHt9puNZfqno0PI26M7mJpuL0ix0bvlNM9LjMsOWXw9Xey/VPSxGjUsudUqDGhPMlo0/f4HhdBjjozucum4vSb4064iqTll8OvXKVVIVVDflcuNUp7EMv8AIv8AWt/vODgZ5vCjfUNq2fmPCM8JcC9nX8ML2PRIMv1TzUNZ7L9U9LEcEtHqd5iio9TzlJ2tfw2xnsevM0Cpy7ULfUbNGsjOV+rRSbHjt6JF6NnquOLgy2VR+Hm3yf8AydExbycsvSKfaJjx11Yli/oxLCnqRDfbtnfrv2enTXJ3tjJyUMxNU7TyipejnWcvMWCjkXomI2dBHBi31dJdULlvWiggbhqFOkphiYTN0ju8qJs2+gxWwtxaG1DUdUoFIb0KIkb2i3brtt3oOXHdM5zjlFHe1/Cgcsxq+NXjkLT13OmXZP5FyelEX3kz+UqpVuXuRnQX3wq31KmxfWhSv0l16RhqD3FcvVexbvcWcvLyOo2dyZiIVubm7DXd4imOOLOiVRoN1DdE+HBVeG/K8CHt9orPlCLs9glO8YNif8bj7PYgVeVW13NqRI078mq+uJV95lp8qxWphKex47OokcXYlyepEOWO1yTTer7SQvfShhty7cW2xsqKp6ZkzyVV6pc+mJXxpYcxf6KZqepEKKp2AtBT59+XqHjcEXf9u1PUqHd2+y+z1h5qQSW55zd1UR/RU7vbvoe/G92HQe25EsqFjbfVBZaUfm35uOGHOlZyU0raLd8rpvx7bjgnqpq+LfHU1FU+SYrL1SnxK8egZObIw29kJyUSj/CUvCqxz3y+lPQlydh9k2gyZ2frDjkjMsMSzyXZzUu3o4EvS9Loei9FRfOp8uZaMmzuS20z09TPEYFgib/QhVfXeaZ6i/s8jqOo7kzjTw+1tkX6JUUkpmLOeajuiXz7U9SoX1obBtsWJplXpm+4ka1XzpHFDB+okIlqLfVS1s0zMfkrvUiJ7jvpO1FUtrYqn0HTav51N36T8vdel3qu7Drx2XEeHDbxVtxxyBInd/Ds6PVcdxk+skzaSZ0lQ4TLUSy/n23+u85uv0t2i1qcknmebusurCrfV039uPaZZKp83loG+q/2mzkwtUPtPMzL7cxxYXY0XzZy3eq46uydkaraSzNccpPxNyv+a7/oUcy9zh+Jzru9h6XRK28mRiryVP4sEf75+D+d7FVVT+RsVNphOflnGTyKSaRmbVtPxVuXz9PrPQLPWEq1r2226ZK8+ci2Iz23HRSGT2lWqyawv0p/T1ZpM6OV6lvX243fSdlYiw9s7PUyk1dhjm07N3wq11ZsSwJ6oUXtMeePy9rp9mvXETMKiS5FuUyqSsE1BZDNgcvVE54y3gt27FtTDpNhOQ9lOu/BL9oS56blA5XVs+TvJS0nUKJJVWbhRM+F2c0cS53fJfDolu2RJ0nIJ/dbLTSqI0uTmnQ3JfdrzMx27uh2YnTjlceH0mG/XOMTTnZ7kPZQOapprJeF6fhCXPOrScmy0tiHndZynMW27lWX0kLmZel+9DsW++/Z1nrdT/utVpp5lWUyd05P/wAo85+tCzcp8/5V+VraDKLWY6pOU5ulS0ysN0m05FHC3mwpDsiiRFW/Nv2p0m/zTZG7X8MK2QnHVWKW4OEPv9d5HcZUyul8tULrEErBuwp7dvvMVQyuT8rL6JmnadpMHOu/aW2meo1xPsuEsZU7jcptgqpPv6E4OQyyVTnK/BPSdjRcrlUYSYmdDoM5OH1XJcJmmH1Wv4d/R+T5aqrRQwUynadxcHPA7f0tvpOwl+RTlRnmYX47L6eKP4znku3f0bvQebZOuXNaPJfNwKzRZKqtuRKiQvTmjiXauMPQfRlM5eGVKrS9Gn+4Km06ztTjWTaeSq5998SpEuj6O+RTXOUx9mcdTr+HBJyH8p134JftCXFXkP5Tr/wST/aMufTlR5ZM3RJnmEvSqdFNS8MEM0t134qXeq42pTlky81LQOMUhtW1v4U5mQ337bk6Nt5xburjV9nfpwjd7Q+Up/kGZTpmW0nclj9oS5X0vkQZT0dSR7m+Y5i8bWEPTt/F2dPQfUtT5bHNZ5xpLMyb6Q3eEdqHfLsTE66wXKW7u2XF1G2xokVdG05pIU80XSaY9QxmLpunoN8z4jw+T05AeU6FETOkovpec0kXbF0lNUeRXlPp845L9zrU/mXfvhqcZbhjvRF2QxbUuvu29R96UbL3IrDMI7SpxHEvRdEl8OzqKuey+TXN1WTpDnNr1zdLvY7b+280z6roiamW/HottVOL4W/ccZT/APBL9oS5sNciXKdMNo53JY/aEufZzHKNcYaSB+krpUvv2/Saszyo5xh6KBmj3tpdd6DZHqWExcQxnpa8U+QE5D2U+78Ev2hLmWDkPZT81PvS/aEufXCcq2pQpclI2G2xyr3Uah01I8J0myPUdH3lyThU1xfHv7h/Kd/gl+0Jcxxch7KfnL96X7Qlz66muVbOq/ErNHRW9l377zOj5PQWFG5ULk/HCy9SLnem5zP/AFukfiXT/LLtR8PiKc5BeU6YmI3O5LG7+MJfqGp3INynPzHNdWaqzfxtJC5dft3odi9h94zGXufgeiRmk+D2XegxSuWp2YnInHqR4VbrzD8T6f5ThjH2fGkz/c/cp8rJQt8/kqhmovgnd7bt2nMv8ivKfT3YpfuWbdzPx2pxluFb9uyGLamPSfoZN5dpCXk0bepHhUxKBcvjV66GkeC6DL67CfMQ55zxiap+MsG6htu+ToO32qaDm+oJgepT5KeXyyU6dmJSalZiS8Zlos713n1rk0ylO16zLU9XXpKnxOQRQxuO7z+bEsKIvZCidh8hR7ymxTvGDTt1Y7I8TS/m+X0VlMs9TKzSHKzSWW5eJ++5trdTN729PPm39p43Z6rPsMzFPmeM3fndu1PUqHS2frzM5Ro7N1DhPwrFLee9VX13nBT7L0vOOtTHFgXNXzJsT1XHPEcY4s4yWdBpWmtRKR9aRe1SvtSzzevzjfVEn/Cg9M4yGxW8IvMnsOmMvDC1SzwoTddok+tPgnmeFHfd2Kqe41Kbp+cyun8SzlzfTt9d56blA0HcVT+bcG5c39Jb/XeOQ8qbidigRXuL0noGSuxT9cqbc6+xoJJpc6Ga67l2+hb07DjaVKT9QflGWeFnbPSdxlDmKpZagydK+cEzvQtxjsmNkVdK9Tt9M0q0VPio6P8AOYm4UhlneuK7b6FVU7CvyeZPLZWPsVV3Jao1GXm31XwdNnNHcl65ufD0JdceBUCqutVHMe4kNyL6D6EyapXbSTFOo0lHJNyc3EsTM27vS0wkSokK+dEv7TytuvtR721TnUvRsj9cq1iLPtLXK1ON1SBI4nptlzSQy18cSww53SqwrCq/SqnSSuUuiZUpudolpo5dxrdp8c3xY4lTbEvnivXzXHXZX7JNUjIdEtUgbgqMEKwvo1urGiqixJ58e0+H5Cfalq+xMs6HRS8SRJzvh4IpqiOUW8rObyl6tlAyH2ssq/Mvx05t+nXpE041urCqIqXHDWTmKjTK/LOQM6CFI+H1bT6Qs/lTmLb5O5pX9XcylE0UOq8duN3becJXskNJptMhqcFon5GF5NJzeY34L+vz4+ZUOiNlRVMbc/byclbU5QZNic8ZWCBI/wBCG71XHI2jpLVDrUzJM8JpUVO2FIveVdVgabqkULM3z5pHoESY+XsT2Ydh6vlNslzmiyNR/KNQeqFE9xvjZ49mLyaPeU9Fs5a2QlsnU5TnuI2q39sSr7zzaab0L8UHVd7D1LJFk/m7WS2nqP4LNIqv/wApFUm3LhHIt3XJokZqerivyTGglo7sya6+hfQt6dh9nN0Z3VDWmf5y7ct7vXtX/wAdh5DkWrdFoFOhkJbxdnPRvzLEqp7Tx/lXcq6OhzMxYelsaBzvYkmuvOgSP/mu7DyteOW/OammdZe9s/KpslZKarjEdq8pLNlKasHhJJiS0j8UaQpmosXTely+ZT5KsBYeyFrrZVygztuH5ZiBUSlzEw3o45m+FFS+Ho2rd5jkLVWunbcTb05UH+czbt0MbvXmokCeqFE7Ckpj2qpqVj5tz3msWdodPoMVv3+0+g16+OMYy9jCcoxjy721vJ0tbY6emJN6T57FLLz1Jj5cNyZq+i44Gbs5WJKYjbeZ0Dq3OK31ZyZ3vPY3Mtk/aSmtSrElq9pIc1JfnPOMy7ZxOm/H6L7ug5upRuuMLE9xV2qb7n2lrnflE04Gis1OXqit9V3sPRXZR2oU6Bl7i3Lf6TqsmVpnJey1Ys/Ns6wodQW+Zb/IRJgvv7SjnZJunTMcsy9zhlu5IHP8W69E7E2dhjOf7Oed+VuQdsXmuRIXNNktXyTcv8i/1qq+83zTmONEX3Y93L5V0/ZmRqE25MPcSO6/sRE9x6jY6301Y+wrVIk/FpeFzM/pRxRL64lOCe8nw9vtKqY8Rh7faphONtsbMm/J2kdqFoX6q9xHokv7ESH3H0Dk4ntZScrM/Lv9USp7j5bpMpz+tMM/4yH2BYCk6lokkvyYV/4lPD62a8P0H02Mpwxn9odBXaZITEcu49xVXadjZWRap8w28zw7kuNGXqGsmYWuwv6HRJ+HMRnhdHpPmJyyv3fTR1GePh2U3Mc6k4XflJ7NhgkaZziVgc67/apvSTLsvKwNvcVL7/SYJm0ur34pf5F3rS/3nJOOEz5hxZbtszP5lPW7PaBIprr9yXHA1uLOz1PTY6rriJYes5m0VEzXXE83sNsXEeJYXM+ZcVTpfQSD811ovq2FLR5jnTml+VEvqW46acp3OJRJX5N/rW8q6fQe56Y539N51444VFwv5fhZas5xc51l1Q2eb5jfVeIzUNaNQzXy9no2e4sqXTOcOo51muYw+HFl7y6mT8Wg/wD7pMw0qzzeXgb6v+oOb6jt4T9nDlnUtafpnOJbSdZzys83VW+o6JzfUrZrjxdnsMvMeIlxz5m3/9k=;" vertex="1" parent="1">
          <mxGeometry x="950" y="20" width="400" height="400" as="geometry" />
        </mxCell>
        <mxCell id="ftl8LwkWCeDw0nH-mkyN-12" value="" style="shape=image;verticalLabelPosition=bottom;labelBackgroundColor=default;verticalAlign=top;aspect=fixed;imageAspect=0;image=data:image/jpeg,/9j/4AAQSkZJRgABAQAAAQABAAD/4gHYSUNDX1BST0ZJTEUAAQEAAAHIAAAAAAQwAABtbnRyUkdCIFhZWiAH4AABAAEAAAAAAABhY3NwAAAAAAAAAAAAAAAAAAAAAAAAAAAAAAAAAAAAAQAA9tYAAQAAAADTLQAAAAAAAAAAAAAAAAAAAAAAAAAAAAAAAAAAAAAAAAAAAAAAAAAAAAAAAAAAAAAAAAAAAAlkZXNjAAAA8AAAACRyWFlaAAABFAAAABRnWFlaAAABKAAAABRiWFlaAAABPAAAABR3dHB0AAABUAAAABRyVFJDAAABZAAAAChnVFJDAAABZAAAAChiVFJDAAABZAAAAChjcHJ0AAABjAAAADxtbHVjAAAAAAAAAAEAAAAMZW5VUwAAAAgAAAAcAHMAUgBHAEJYWVogAAAAAAAAb6IAADj1AAADkFhZWiAAAAAAAABimQAAt4UAABjaWFlaIAAAAAAAACSgAAAPhAAAts9YWVogAAAAAAAA9tYAAQAAAADTLXBhcmEAAAAAAAQAAAACZmYAAPKnAAANWQAAE9AAAApbAAAAAAAAAABtbHVjAAAAAAAAAAEAAAAMZW5VUwAAACAAAAAcAEcAbwBvAGcAbABlACAASQBuAGMALgAgADIAMAAxADb/2wBDAAMCAgMCAgMDAwMEAwMEBQgFBQQEBQoHBwYIDAoMDAsKCwsNDhIQDQ4RDgsLEBYQERMUFRUVDA8XGBYUGBIUFRT/2wBDAQMEBAUEBQkFBQkUDQsNFBQUFBQUFBQUFBQUFBQUFBQUFBQUFBQUFBQUFBQUFBQUFBQUFBQUFBQUFBQUFBQUFBT/wAARCAGQAZADASIAAhEBAxEB/8QAHQAAAgIDAQEBAAAAAAAAAAAAAAIBBQMEBgcICf/EAFkQAAECAwQECAoDCwgKAQUAAAABAwIEBQYREzEHFSFRCBIUMjNBgbEWIiMlNVJxkaHBNGFjFyQmQ0VTVWWDoqUJGDZCRFSCo3JzdZKVpLLC4/DxVmJks9H/xAAbAQEBAQEBAQEBAAAAAAAAAAAAAQIDBAUGB//EAC4RAQACAgEEAQMDAwUBAQAAAAABEQIDEgQTIVExBRRBFTJhIlKhBnGBkeFTsf/aAAwDAQACEQMRAD8A+uwAD5j6ANhqp8nbRvcYUyADebrM/wARMGo4DXU3uBaxVL+mx/tN5ogEptR1l3jLjdL1mGN7lESubzGBKVlTIdMjXA1YzLmBhAiUHOeoJkABQAAAAKuYAMAJkAAAAAq5gMBbCgMBAoDCrmAAAAAAKuYDAQmRIAKuYLmQWwAAECrmQOAEJkQuYLmQAq5jJkAEoBjj5ymQCrTEBMfOUgIVcyBxVzMjdAYDQEyAAAAAAAAABVzAYAFAYABMgAAAAABVzAYABMgAAAAAAAVcwAYATIAAVcxhVzAAAAAVcxgJYhMiRkyFXMoVcyDKmQq5ksIA4CwgDgLGJcyDIuZBQgDirmBij5ykGUxx85SWtoAAFoBVzBcyCLSwAANIAA2GujQDCmRJbS1MkJhmFx6o4Dq33t7tpl1NTP0uWktSAXK0amX+lysnGWpeYjbZex2kuuc37C0WwgbTPRQm8xTJCYahceqOA6ubfI8S7/F1ilUq5kHQJRqXd6X/AIeYXGaXLxq3rfL7PD/d6hQp0yJMs1hY8WC9jtbLnN+wxGQq5kDirmBAAAAAAADJkbNN5Bj+Wp2O71uby4d1XiL5o/5zD/d6gOdXMgvlqdLl1w9UZfaYn73WYXKzTOOvmgCnAyTjzUxMRuMs4DS3XN7thhAYATI1Xqnyd2JvcFpsLmAjT3KG0c3mVMghQGAlATIVcyylanydiFvdf3m1Bayfl4UbZ6JMiilTIVcy98M6mRN2nqlQlEZ9pKFGAcV2HY90vWAoACrmQQSuZAAWwAAFAKuZaSdpp+ny8Euz0UF93at/zNqC2dT4qEoUAq5nQLbOp3mKetPVKhKoyKFEuZAcV2HY90vWApbboyZCjJkVELmQOAEwc1AXMgC2lAZMhQLZSVzIABamTIhcyUyIXMWIFXMYDIhMiRkyJAQCVzIAAAAAAABVzJTIkVcwBcyBkyIXMDBP/RjwzS1aafp7/J2ejgVLu1EX5nu65nDW+szrB9uY9dU+Gz5BpQaLpx2oUyTmHulj41/ZGqfI9Y3HM2YsxyCWZe+r5nTxxcaK8MpTIATIAFXMZMgAAFXMYVcyWAAAoVcyCVzIJQAACAABkyNBRVzHXMRcwIAAJYxx85SDKKuYsbQDgUQmRIDJkAoErmSmQCgSuZAAAAADJkKAErmQMmRC5gSmRJCZEgKuZBK5kpkAoErmQAAAAAAAAKuYwq5gSmRT1vKMuEyKGv8AOj7O4LZrP8yD2r3nQO89ezuObs50bftXvU6F3nr2dwZsq5kDJkZpH6UoLa4HdyNFStyjd9Px8Dbib9t5TWgi40bnkcC65MPdclxrizyc2uYEJkSc5bMmQq5jJkKuZoAAACrmQOBkIBK5kpkWwoyZDpkbDXRoLGmuYi5mw90sRgj5ykCgAAbYF3rml/oj+IGSCs0vip5o/iBbFEmRJdrWaXf6I/iBGuaX+iP8zE/e6xYo1zJTIu9c0z9EDJWaZd6IJyFCuZB0GuWvxNIksPqxed2hrj9UU4tihTIkv0rGz0RTiFrG30RThY59cyUyLxaxt9EU4jXH6opxRSgX0FrOTQo3qineKLHbPxl80U4CjAuvDL7KnMfZ7jJBbLxU9HBLUIHQpbGfu8jq7C6jE5bKqJGvR/seb2AtRgXXhnUxktnU7iWWoxkyLlbZVO/0jgfZ7iPDKp/pcWWqUpnKExN46Uafu8j0XUbrlsqnx187mGOv1SYiVzW+ZSywUep8VCFo1Uv9HY/2m8bXFU/PY/2m8VaxU7wp4KNVOKnmg8x06WetUxZx2ZpdJncRU2YPN3bD0haxU7zxLhJVl3wdfxqjgOcXa3u2GqS3GcEOzlpKlby0EzVqS5rCOTixMbnbNkN/YiH1W1Y2qYLfmj+oncfD3A5e5RbiquY2PfKx+U3+Mp9o1Op8nlm29zcH/SgplaJYyp3dDgfZ7haXJVOn1mOX9RU+KIvzOYl5J+oNQzD/ANCjv4vYty/FFNxpliXbRuW6FOb8/jeZap6vT0qauzN9QwNieT3bEKicmKpMSvJcaSf4qr5R3nLeqrtOAXMg3yZ4r+OyNTeiWPye381zewxR2Nd4y43IsXrxed2lOmRJylta+Bv+zhksbs/JxTLmQaF6ljdn5OEjsb4y+jilAC48Df8AZwyWM2ekacx9nuKNcwMrS7Wxu3pac/8Aabx4LG+Kno4oQCL5bG7fycR4HT/4nV2F1FEAWl7qB2X8m9h4qZ4PN7BVsnPzC4jPRLkUgApcLYyp3h4GVMpVzEXMFG1yKtZ2niUOgPTrxU80/wAQlx04OGnWYTEwpJi/8W7UYeMnt4uz3HTgxb2tKzsNOp1nyKnlTPBq064abab/AMQM8PBp0zrCmNq7E6/OBninJ1DlZ8dQSs7DmP5tOmP9Xf8AECU4NOmK78g/tnMSLti6zPFbdItrOTrh7jM3X+UQI5vOYTgraVJhMR6o0ph1c22eansHh4Kel1EuZq9Cw+rFTxu01xW3o1KrP3g1296m1rk82g4KumFIU872f/3VM7fBS0pxQIr1p6Uw51ttIvFT2GuCcoeiJWdhC1nacAnBQ0nXf0tpxP8ANQ0gfjrW07E6y8U5O/Ss7B0e5QmJvPP04KGkm7yNradh9Q0pwU9J0M0qrb6nsJ+bRFW4cTk9Dg5qDpkalJsdU7BU9qn1iowVWpS9+LONoqQuXqsUNyLuhVE7Dc5RyryvrfLYZX5KuZKZEirmRaMYJ/6MZkyMDvSKSimvI/RYO3vU3m+YgjfMQyJkQpC5kErmSmRoooDgFIfO/CnlJ+oU+Jlnorku9yH0PHzlOStrYRLXqy3B0cS/fHsy7i2lPljgmyM5TbZVOWYZ1hOwScXGg/MXrei+5UXtPsuWok5yVmdqD3KJuNuHjuexERE7ERE7BbO2Wpti6NLUakej5ZFVv2xRLHF+9FEbsfOUtlFgi40KKQuYLmSmRlSgSuZKZAYY+co8HNQxu9Io7fMQlBhVzGFXMoVczA5U+Txq3uPE+EBaCrUaqU6Upk1yFyfjhgR73IdFTOC7pMqFPl5mC38m1C9AkaQO85L95qkt3tSrPkDQpNZkMVMbpb9pybvA/wBJ0w4rnhnTn7/xm81o+BjpOZcimfC2n7fqHBOb092stcdcHotlwmuTz6X4KWk6JmFfC2nER8FLSckS/hbQv2qeN2jgW7KrVnyanIVO1nJ2Vb3GtHwUdLqxLg12zr7XU5v/AMpe80ajwP8ATDMsrHrezt6/+/mRwXky0u2XlULl2v8AKHFc3nFNcELTFIQI7jWdf+03/CHuQsZbguaYJhmFxY6QirfsaXxc7thOJzdVTqz98HVMVnyUJ5K/wVdN+LFgLQla6lcm1gi7U6hP5smnVnxE1Vs/NVC6HsJxOT7I8M6YKts6ZeeaAb5FPSFtnTLxktnTLjzUZMjHJni9GW2dMvEXSLS5dcPceeCrmS1p6L4c0uY8pvFXSLS5dcPcefJkBq1p6B90ulh90ppehpyvtdTm889XMZMi8ynfLpK2+iBV0l7fRBwK5gObPF3v3S/1QKukvb6IOGTIVcy8jisq1U9cVN6cwcDE4vk910KJ8iuj5ykpkKuZhsDJkNBzUEj5ygQuYyZCgALmACrmZDATBzUIXM0AAAAAVcyCWHAhMiShVzIJXMgAFXMYCWITIhcwXMgWABkyEj5yi0tbUebkJCKF56nY7vW5vOnh0jNMwpAzSPJJkcGmQF5I777pf6oD7pf6oOBFXM1zZp6CmkvZ6IJ+6X9jgfZ7jz0BzV6ImkuQu8t0vWT90ulnnQDmPRful0sZNJdLuPNlzIM8ji9K+6XSw+6XSzzUByWlkmQ6UzlCYm8sEtlU7vS4q1+qTC4mt8w00dTBqY30rNUu9LiR1mqcZfO5KGqlG2DpRp+7yPRdRm1zVP0uGuap+lxQw6mqn6Ox/tN46UeqXdDgfZ7iVrFUv6bH+03iLWKneLGRKNVLvR2P9pvIWjVS/wBECa4qYa4qYoZEo1Uu9EDpRqpd6IMGuKmKtZdv8t0vWKGzqaqfognwUqkx5TVGZoRvcoiVzeQLFnDY6p8VPNALY2p3+iCqXMRcyi5Sx1Tu9EDpY2pqnQ4H2e4oFzMkHNQC6WxlTvI8DXfx3IsTrxed2lOAFxqDk/k/N2wyQWT5RCjmsacxf+L3FCuZBKF5HQOTRK3reneKSlH2el6cUQGqF9qf9b04NTSH46rU7F6zn1zAgvI6NS+Mvndv9lzewEo1Mu9LlGBKF7qal/pf/k8T97rFWjUu/wBL/wAPKQCi8Rmly6Yet53Z+Zbw4eyHqBdWX9NUX/tN5RgBcxeDt/ltY4vWPB4McVPSJQrmQSh0H4MfrExx+DHGX0iUYChd/gx+sQ/Bj9YlEuZApKX34MfrEPwY/WJQgKKdAngxd+URV8GL/wAolCAopffgx+sQ/Bj9YnPrmBCl8vgxf+URF8GL/wAolMmQq5gpeJ4MXflEhfBi/wDKJSAFXX4MfrEVfBi/8olKuZAG/BzUJADQVcyUyJABVzJTIkAAVcxgJQxLmMmQ4FGJcwMoAYgMpjj5ykoIuZKZDpkVdYrshR4YonukTMnmfGMWLIDzaLTRZ2KquSb3SwKiL2oi/M6qStvR3pWCNno1vu9527W2Iuaj/lLX4GrLTrVQZhmGeijvu7Fu+RsQc1DjM5RNUpgADcQAAAtgABVzMhgEABwITIhcwGAhMiFzAFzIAAFXMgcVcwIAZMiQEAcCWEAlcyChVzAYVczIZMhVzAAAAABVzIHFXMDfAhMiTQBVzGACEyJAC0AAAtJYAAFFgAFXMyWYxx85SFzAKwuc9T534QVpnqnaaWsjT+lehSKZ9nFRU+CofQ859Bmf9H5Hy3a1vkddtFV/7qkMPvbhP0P0PpMeo6icMp/Fs7Z7cW8NmLE0qq16GnJNSUjhucVXnZzDiv674eraetSmgm19Llm3LM2lp1QleLe01rD3/G88QjcxXHHPXjii96qp6Bojl2WJmfmqh0UUP3t7US5fjefW63qtWV6cdURx8X/s5Rnyi3cQO6XbFQotQs3MzrDf4+UcxG4uvZF17vailxRuFBDTFhlatKOSFQb2Oy7vOgv2pf7UVF7TkrG2rrlRtXUKbMVHAkoIkSBvcioi/M7+q1t2hUeGScbZqsg3esMM50a3qsS/FVPR0v0OOo6aepnKq/FOM9TU1Tu7Naf6XX2GovXv71Q9Cp9pGp6UbfZ6KO+733Hxp90yxdDqU/yqzUVPfmERInaZOYcvzUTxYer6/rvNSj1arVpz8E5lyZkWFWNmWdcxIkvW+K+Lr8ZVPzWHQ/cZzjoyuXfPZwwjKn3M09yhtHN454Post5ayZ5PK12z/Jo4VWGOZ3+Mt3wuPeGnIXm4Y4IuNCqZnzOs6fd0eyNeeJjs5RE0ABcwODtAABVzAYCEyJABVzBcyAABkyIXMtCBVzGAghMiRVzIJYcVcyAIABVzGTI0AAAlBVzAYVcxSWAABSgVcwXMgg21zAyirmaEwc1BpSU1hOKz7BUyJAu1s/yVcLWMkxxfxb3OS/btFWj7fS9OKYxx85S2L5KPs9L04rJ1nk8zG3jNv3XeUa5q7Oo1UyAtpTfl6ZyhmFzWOBf+L3G03RpDiJjVaSxevF53aeRaWNK33NKe65+dS74HzbUeFXPtMLCzTsdq9VRzfet5znNvXq2bp468Zn/h93rRqXf6Xb/Zc3sNZ1mly7it63yPgaX4RNo6g1DMM0nyUd93Yt3yNpvhH2nl4Eb1TkW3een4zWU1P+0vt+ZwsaLBex2tlzm/YYj41luEtajBh80TvX0XNz6izluEdaCXZhmp2kOcmiv6bnbFu2i246af5/6fWU9KawlUZPnXTNRtQz06n94SFP3EKam8MSnMv8RxnAjTNvcdlJ6ZbHaVpeCTncLlLmyPlnNzuTD+u67tPrfSfqcdD1E7Msb/AB8vPu055xxjGf8Ap4M1oetI/SG6jQ1Zq7bvGiekmenl04ypevtuv7UOjp1m47LWJR91H4XJiGNIkmOeipFEly+73XHu1O0SsU6Tbes/aiboLS3q23OdE7tW9E+q+8x1Og2iZZWCoUKmVVhP7ZS5qNuad+tYIvEj3XJuQ+vOOrqsp2YZ+Z8vPGrjFS8O0FWewJauTXrx3ltpafxqBBK8fjY8cMPG/MZJf8zrn2YZd6JuCUakIUyl7RSj1Lfg9kUHkY7804vUqX7bzmbZ2aq1Qo03MUyVWecjh2MqqLkl2aZpsP2P3mvV0H2uPzMfLxZaLmfLgrW8H6rUKUhra1OSrFNdagjgnHedH4qIqL/oqiw/4TPoRSGGoT6QYfFRLvI83LqPIJSkWgoc85rCS1fNzESpHLeptuT3pcvafQ2iKyztOoTbz3SKkcS/7yqfK+gaMMN01cT7prqMuOuIdbTrW+DbEy3+eYiT99T6aozsg9ZOmOPdLFLQKvuPmKlPcurrFJ/vUfG92z5H0XTG8GQYb9SHie7Yb/1VlpjZjGMXLev9kNlMK7yPR9RIyZCrmfzXKf6peuPgCrmC5kpkRQmRIAAq5kDgBZyNptXysEvq6Sf4l/lHect637febcFs/FTzRTjn1zILYv47ZeMvkqcx9nuMM9afl8qjPk/2XN7CmGTIgxJDxUuAaPnKCZEoKBK5kpkKCirmZRVzKEAFzGTIC2kLS6vlG5f7y8S/pedtVV2+8zLbLb+TihXMVcwlOhS2Wz8nGvULT8vl8Hyf7Lm9hSjJkFJBDxYbiRxVzMjfARMgNBwMS5gBlMcfOUeDmoSBEHNQ16j9HMsfOUxzv0RAPCtKFM8I6osr/dlhX3oi/M83rNgZ+oVF19mo4DUSQoje66FE+R7Vab08n+lD3IUlp/Tb/sg/6ITyY58s5iYp+66nrsug+n6tuqomYiPhwVldHjsxNQyr0nJT7qLtmHcbjR9e3i7NmWzceoRcHSfnqY2+yzR2Go0W5tnjY6bbtvG2+/quNnRj6Wf7O49Dr8xVn7MzsrS+kSJLu8+jGrGY/c/M5fV+rymZ7n+IeFWk0aVSwkpLQ6ulX8VVTEmOeu1c/wD3K405ygVSXk4YMFti5L8NnB4qX7dnG29fWei16iVqGlwJX+m4qYPtu2HnLUU2lRjkZ76TAqcb2Kl8PwVDXZx/uc/1Xqf7v8MTdk5WYpDbk79JXjcfm71u5uzK7IrEsg04nGZ6KW2p3np8UvyWykm16s4nx2nJTf0Zz/WOf9an5Xqt088sMfw/tH0XZj1nS4ZbMIiYiPNfL1LQ5Ncss607vSOH3RxJ8jtpfok9q95yOjP+hNO/a/8A7Yzrm+Yh9rVntz1Yxnl4qP4fx/6thGvq9sx/dP8A+lcmOURrK+r8yjqOjekvTjlRwMCpOXLHNb7kRE9yIidh0AHu07tmr83D4fG/Lze3GiGatNTpZ2VrDMU0yqqqzknA43ns8aHx12XZnNSFiLRMTGHUJRqeYhuTlFGmIGEi9kDvjpdltzVFVNioe1rmQfd0fXeq6f8AZTnt09yKtytnrC06XbbmnGptiOLNudchcdS5bvGih2L9V3Vcde020y3DAz0SZCJkSfM6zrdnW7I2bPlrHXxxiLTHzlJTIEyMkHNQ+fPmbdmMVcxnOeooAAAACrmMACASuZADJkQuZAq5gMKuYi5jJkAyZEiDJkBICrmQBK5iLmMACjJkKuYAMKuYCrmAwCDJkShuLmQMmRJRiXMDKAEQc1CQAtDHHzlEXMzgWhxFt7OTFUjampL6SyvGPMLZzNbnKlA7M07HeVYYYnOR4l9yIieN17EQ+hFzJTI4bdfOKjw/Q6PrezDTjo368c8cfjw8bsvNu0+ageepHlbkv83vf9uz3HoiaR8FEg1Tkn6PmC/XMlMiY6soiI5M7PqXS7M5z7FX/P8A4420Vo/CeQ5PyLkN6dNq+YPMobKarqbjnL9YbUXCw5hvq9XqPflzEXMvDL25/e9L/wDD/P8A48PtFXONJSkngcm4iqmF42y9b/623bfft3mnLUifrk6smz0dyXdqIfQEHNQk+bl0HLKcuXy/SdP/AKpx6bT2cNP+f/HP2Sobtm7PSlOe6RnjKv8AijWL5l83zEGA+nhhwxjH0/GdX1H3WeWcxVzYMcfOUyAdHiiKimIDOmRC5hWEB1zJTItAg5qELmMBBiXMyQc1CQAxx85SCY+cpAAAAAq5kFlK0yfmGIXGadjtLfc5v2mbU1U/RBaFSmRC5lv4KVSY8pqjMSdsxVJCUR7BwPs9xaFQuZKZENxOxQIr3S9YxkAq5guZKZAKBK5kAAq5jAAoFlK2an6gxDMM07Hajvuc33Ld8jN4G1P9EBLU4F0ljand6IFnbMVSQlEewcD7PcC1OKuYQROxQ3vdL1guYVvQc1CSIOahIAPJfS1MEfOUlMgOgi5Bf5blmJ14XN7BfNn6xKNMiS2LmLVl/o6ov/abyumsLHiwWXGGtlzbvOTZ1muBbG9L8gwocanY7vW5vNmCp0uXhRvVGX/5mH+71FQY4+cplKXmuaX+iP4ga7r1LmHFc1Rn9pifvdZXQc1CS2UmYwsWLBZwGupvcYyI+cpBFZEyJMQAZQETIAHAxLmAFvJ1Lk8vA395bL+l52fWZvCvk/k/N2wpoOahIF0lsZ+7yOrsLqFnLTuz8ojL2Hi7b8Lm9hTgWwiQ8VLgIj5ykEDACZCrmALmAAACrmMAGVqp8nbRvcSr3KFxN5rrmQWxmXMgxAWxMfOUgAMhVzJTIkVcwBcyAAAAVcwAyJkSYgJaUyirmQmQq5lKC5irmMKuYVvQc1CREyACVzEXMyJkSBEHNQkAAAAAAAAAAAAAAZMgFAcVcwIAAADHHzlMgARBzUJFXMlMgJAAAxx85SDKACJkKuZlADEBMfOUgAAAABVzGABAHFXMCAAAAVcxhVzAgAABVzAFzGTIBQGFXMlAGTIUCgXMBVzJTIDbTIAGTI1QEyJGTIhcxQgAGTIUllAcBSkAcBSWQCVzJTIUWUZMiRkyFFsa5kpkOMmQothXMg2kps/MJiM9EuQ6Uep3Ci2kBu6nqYyUaqXejsf7TeKLaAq5ltBRqpxU80ELR6pf0OB9nuFFqtMiS1SydTmExN4yWMqdwotUAXHgZUxVsZU7xSqkC3Sxrt3lul6x0sbs/sX7XndooUMfOUg6DwM/WNOY+z3GOOgcmiVvW9O8UyKMC61P+t6cMlH2el6cWhRirmXq0fb6XpwyUaQu8tVqdi9ZaS3PjJkdFDRqXxU87t/sub2GJyjUzjr53FFqFcyC91NTP0uMlGpl3pcUWoBVzOgWjUy/0uYo6NTOMvncUWowL1KNTLvS5C0amX+lzKqMVcy91NS/0v8A8nifvdYyUal3el/4eWktRJkBeLRqXf6X/h4i0al3+l/8vD/d6iFqRcwLxKNTLvS5OpqZ+lwWohVzL1aNTL/S4i0amX+lwW3I6x4y+aKcNBWPFTzRTihA1auiSs7OipzH2e4Vazt/JxRwc1BI+cosX+uf9nBrn/ZxSt8xAXMWlLhbV8nXD83bB4LZz/FTBw8Lqwub2FGAtV2ts6neHhnUykAWlLvwzqYq2zqd5TALKXSWzqdxC2zqd5TALKWy2yqd/pHA+z3Ea/qkx5TW+ZVALRa65qn6XFWs1S/0uVgC1pvxViqcZfLY/wBpvMa1ip3mkuZAspuLWXb/AC3S9YivcoXE3mBMiRZR1zFXMgVcxZRgMS5gLU65kGNcyUyFhxkyMYGQ65iLmAq5lsMAgFtKSuZACrmLKZEyIXMVMiFzFlGAQBZSVzIADKgAFXMtpQXMBkyFXMhQAABQAVcyAU2wAArJBzUEj5ykAAyZDJkYwAdcyUyMYAZQMQAZQIg5qEgAq5jCrmBKZEmJcwCUymOPnKPBzUJCsQEx85SAGTIZMhUyFXMB1zEXMAAAAAFXMlMiQAAAAAVcwXMgAAAAAAAFXMlMiFzJTICFzIJXMgAFXMYABMhVzGAlgTIVcxhVzKAVcxhVzJYgAAo2kyIXMYxx85TPJrikDEuYyZDkvFlTIhczI10aGVMhyOLXTIkyR85RoOag5HFhAzLmV9Um9XtK8OTNM0fOUq5y00hT5iOXe6WC6/tS/wCZ49pT0yah5QnqIn/Sh8z2l0z120T70cl9GjXxOxLl+KKaZt96pbOmXFrJTrVQloJhnoo77uxbvkfm1QNJ1ZotRVXulRb1Pouwen92KjyivdL41/8AvKWk5PqEDh7KaTfCCTYi9e/vVDt2XcZqGPeY5OkRcJAzQUzlEKObzNBRvFQ6Rx9tcGmBu6mDUxLx9rwaQq5m/qYZKNsF4+3KYyifhWgWepg1MS8faf1elYBYrRtpKUbYZ5Y+3aMLhWgWepg1MTnj7O2rALPUwyUbYOePs7aoXMguNTBqYncxO2qUyJLXUwyUbYO5j7TgqBVzLhaNtJSjbCd3FOKlAu9TCrRto7uJxUwq5l1qYNTDu4nFSgXWpg1MO7ivBTpkBcamDUxnuYnBSrmBcLRtoamL3cV4KcVcy61MKtG2me7ivb/lTAXGpg1Ma7uJ2/5UFY0oaohii1RUdn2eH+71HgWk/hSPyNSm2JKkOcpg4vS87mou0+LK9pYtVPRRsx1fxluX3pf8ziZqvTT0xHHOvY8yvPc37vhcZjJy5vraDhOWqmExI2cCJVXye426NwlqzriXxqdjucZL3N58ZOPcojVzeY1qfJ1w9xtnufw/XmyGmZ2vyEtE9SJ3Fjh24ODxc7tnGcRfeh2rden3oEjZsvUX2lyc+99v+cfjdZa0k/T5uF5nouo+j9Fumd2JZeSe6WC9F7VVfmePdvy1eeNtxk/QeGs1Pip5jqLH2f3vs/zhYqy7xlxqQ5i9eNyfjdvlj59o9Z19FAvrodOzL8lYmWvVh70vPkz9Wyia7f8An/x3jG4t6Y9bfU8U5FqjJE/tku31J/Vviu958nae9M0/FOuqyzydrjJc3iQuXbE/rQ7F7DyfT1a2fs3Xam2z0TywIn+5CfOL7rrzsTj3SxLep9jXv54RlXy8uWdTMPZ65ax2scace6VxEv7Eu+Rz0FZ8U8yj5ymGPnKeuMvDhOzz8PVkrOwywVnxUPH4+cpKZG+ac30ZY3S5P2XcbZZ5FhNrsxZzDi2rfth6sz6m0EacKpambVjzdtS70h/417z80YOah9J8Dn0/Mnl3be3F09eme54foslVdbTivauxc184f+EnXM/+J1dhdXnD/wAJ5dOTer5RHvb3nOOW040aqfltn1TZGcxGH+X1o6S4/c9qetW7LuxNvVGgsOpm27UPGT27E7jRf0i8ndib1vZ3Z9o85+9DsXsPLXJ3WFOgmPXv+CqnyOLrkvydY5r1vlsMfqeX9v8Al6Y6C4vk9wq2nmhWbgibnbcWdkJl7ZFL/fHi7vely9o9H0nyr1OackrZ0p+Wi4ywONScw5CvjLfdFiw37b+o+ZVg1yqpv2FnJSM/TZaCWY6KC+7tW/5m4+o5enqjosYirfQ0zpLkMeLGtdTsXZf5vmN3+uNyUtu1MS8LjNcbfaW+5xqnxcVdvVxlVfep8/02mOzD+I/0q5nYUmjeUhMfqOXpPtMXrrVsfJp53/h4+v8AlHlNbzu381T2eL2cbb7zhYGeTwo3uK+cqfJ5iNvdd3E/UcvT5eeisp8u6mrWcnmIm9bVHZd+T5fcV7+kWQl3Ym3qvUcVM/Jy7f7vUcfy7WHkTRmZfkr0TXq3fFLy/fZennnGpp2k/pVpdPlsbGrz/wBo1yfir7DDIaWaXUpSCZ86+Pf03J+NsVU2+488muni7O4drl+GmB0XUX73L0w9Ej0l0vjL6e/YzkLcPZDDsTsMrduKXMQI5512/nah43aeceV/H9L1lnSKZyhyFzeZ+9y9OkYXDvWq/TJhtHPOO39YPf8Abs9w+uaZ+sf+ITBQKzydcPcV01U+TvxN7ru4z99l6O3/AC6py1lMl41b847P1hMFfM2ypeNF5uqL+XlNeTDd+z1eo55Z7WC4Jijl+SxK16vz2l+7y9PPMVNOgW2VLv8ARDn7aqTDkXbF1kpbKmXeiP4hMHJvdLEarnPUfd5enPk7lLZNXeRpHk+rzhMDpbLZ6I/iEwcS10aG6z0UI+7y9NOzZr/KG0c1Rn+sJgypWZC7y1I8r1+cJg5qV6CHt7zXmZvkD8T3s7jP3uXp3jC4t0ztrGpeNW2aR5JMvOEwVU5pF5PMxt6oyu/KExuKF20PKnFd9b5bDWn3uUS2JvMffZenaNFx8rtzSX46+aP4hMFcmmaQSpuST1IncSC6/Crkw3DtRF2Q9WZxj/SxGCOmMTESuMfTV53y+FxuOsy9OsdN4+Xp66SmoVuZpFRwur8IJgyt25kJiBHHqRUcVc/Okw5+91nm8sy/LswtzPTJfxvfs+FxYy/Qwj7vL0dn+XpMrX6ZMMQuYNRYvv8AJ6wmNm0yLWaZf+Uf+ITByVN+hN9veptzUvyeSSa9a/4bDH32Ufg+3/l+W78PFdVPqTuNVznqaiZGJznqftoxfn+5/DYc56mNczXXMxR85TpEM8lhBzULijV7VEUMW45YzN8xC7Ix2Y1TrGfh7LY7SbPxVuUVno+Mlx9ZSdu3ZCz61N7pY2717NnyPgqyHp+lf6z/ALj6Z0q1uQSy0Ei90sDSX9qX/M+Jl0uNy9mOzxDx7TLb3wstK/MfnI4U90KJ8jlZyxlTZs/N2ncp2PZ9lYYX3N8VyIhzc3C1DMuIz0V+w9N0K2xco7dWok0/j0OoQXzMruiRLk9+fae3HDjEQ+bns/qnw84mkXFvwcBIoYYoW90KwoqfBUNdcy/tBTW5l59xljkzKxxJA1uhRbk96Jf2nNIzydMPcd4yqKeWdnn4bjfMQxuc9S1oUprBIGf/AHMi0kjq11yW9RE+KIvzNck738K2Dmodzo6t34ITTTnqL87zz+V6CHt7zu/uZrBovitrVqnqymwxRQysp/f1SNYVXsiRU7Dz7se74erT1Ham6euzXCP1o+rf1InwQ7/RJbLXs46vrnxaipFDDFDHx4YoUiRfqVL0Tsy7D6W4M1T5PJMt7uP/ANcR8Pd0vb81b9Fo63u1HF9PzsPFoLaf6XepyTUxyiBJX1b/AInROvcop8Lm+/vUpZyp8nlEb3X95+dzw2cprF+gxzx4w02ZfktQia9W74pebU1Up+XfibZ6JLrvccZP2s5PNuN7ru44K3Glhin4sux9NgRON2oip8FQ92PTZTjEr3sXtcm87MTiuPdKufuO1p/0Nvt7z4TldO9Wl52JuPnIpZPcI+qS7it7rjvH0/KYu3knqsYmn31IfRG+3vIqP0c+RNGmnh2rvMwvdKqrf71PfJW3/LZeBj6jwZaNmOUxTxZZ4zMzbqmejTt7zE70ilfKuYzEMe+/vEdqfJ3Fb3HKtkeOLw5T5luR85SDQWs7TZZe5Q1C5vO8YZV8OE5eWwmRts9FCVq1KQl1w3ulTMVaxTLy9rJ2jPw6OX6GEzzP0GHt7zlNctfiei6jM3WfEQ8sxsia4r3Fg3zfeYXekU043uURK5vEWp8nXD3G4nZ/a88+ZtuGOPnKaUdZ8ZSUe5QmJvO0Y5V8OXFupkbsv0MJVt8xBtZ8n8nuLwy9La6g5qG076Og7e9Ti5q1khLvxNvdKl1/uHatA1MNo4z0S5HnmNl/tfRwxx4x5WTnPUrKtU+Ttq3uNWGs+co+zuQJ97lE3G5vu7kOXHZ/a9kY41HlVzL3KJJHN9/eLTpfk8nBNetf8FUx1ep8ngib3FXS3uUPI5vU9mOrKo8OscfbpYJjlUKO+t8thvy3QQ9veVsn9MXs7iyeqfJ3Fb3Xdw7eSccfa3k/o8Hb3lpLdBD295wczWZDGixul2X+40nbWUyXcVvceadey/2txhj7fnrK9BD295rTPTxdncRBzUGP6Tb8LyaLvSKZG+YgzvSKWMl9Gg7e8cmuTSg5qGB3pFMs9TZ+Ymo3GeiW673Gi4y7Lxq290qZl5O8RcLGmzer38Yu26+xWKnLrOzXIZaBUaxvb/8AJy7dMn5iBHGadjtLk5vM0DLsvCjbzOA6mbe48843NvVHxD1bSDwc6zZSgSVWpTeuLPOw4rE7+cvW+P3RLEnYcPSpaKWdSZjZwI12K3uu2fI9n0T6XrNWe0SztkXqPU1q0xx51yeX6NHxY4kh4vsS5F+tFOEfdgmHYnYIoYoHPHRYMtu35nOc6ny+Ls21nMU1OUcq8r63y2GSCY5RCkr6vzNeY6aI3pP6PB295qJeWdvn4RBL8lhRr1fntMU/TOUS2JvN5MjWe6WI1yZ7n8MVg6TL0i08tUJ36NFGi+7Z8jv+E3b6TtPR5GlU9+mPSknDDxJVPpMN6JEvG9qqqp9SocRIUV+tzP3l9IY2r3ly5NOzMXJq7z4fFj9nV8LjEz5dI2+Ph4tE5iqkWBFLbETCjzS5Lvjn2nT2a0hz9mGGmWeibvu7VVfmeo6NqTS7O6VZGswVDApaNLBBBuvS6L43nTWxtHZzRpSag9ZmnU6vVipRuLNOVLj+SviW5YON4l/FuyOmzPHZjGNPf0nWZRlXF5omn+qRIimhNaaqpMTETm+7uPPX5KpT77kxDk5EsX9TYt+1PF2e4hGXZdMN7pUzMxo118Pt/dbJ88Xor2ll2oU+Fl7pNt/vORna9jTMce+7uKZcxkpnKExN5rs4usZ5TFszz3KHYnN5CZGo5Rp/jrg9F1DQM1SXhRvcd4jGIqnnnDKZu1pTa9qh/jbjpZHSxPyU1js9FsuOKTFu8v0vWGrZ+Y8oz0S5GO3rn8Mccvb1lvhI1RmBINwLwhKpMLibzyRaPU7zJAzVJeFG9xynTrv4a55R4p7bI8JCqS8rA3uv7zP/ADlqoeIQYvFTH6XrMTnPU889LjMuc5Zenqte04VSoRRv+vd8Eu+RVUrTHVEdQ87XMZKbPzCYjPRLkX7bF6Yi4h7H93eqS/k9xji4SFUl4lb3HkSUep3CRUep8ZTcaNfpznLKJ+HsKcJaqXGFzhCVSYjVzeeR6nqYanqZrsa/THLL09nl+EfVGGYW9xYS/CVqmFCeHNsuy8CNvdKmYsfOU5T0mE+WeWXp7a9wlqpixGlUeEXVJ+XwTx9MjE5z1J9pixyy9O+d0oVR5xY95YyWnGqU+Wgl/Uv+K3/M80b5iAtNn5hcRnolyO0aNcR8M8tj1aDT9U+KhrPafqnixHlsdHqfGURaM7f5bpesdjX6do2bK+HqkOn2p3FvI6fXeSwYyeV23+88Zbo3iIC0baY+1wk7uz09ld4R8/LuK2z0SZGm9wgnZh2Jx5L3FzPJFo0/f5HouowOUZ3jrjdL1mftcPyvd2enqj+mqfmHYnGU8muRzVW0o1SYqDrm+7uQ5BGeTph7hI+cp3jRriPhvv7PS0e6WIzs9FCapvS3QQ9vedXxEHR2bqfg5LPTX95RU92z5FAuZij5ykpbb7NZ84uLvW86hmzs/VIZOaZ6KdVYU7F4vyORpvTn0No6th4P2LZhwMDiQx/fW/x4l+GXYefdu7UXTvGyo+GlN6JLU0uzzEtSadj8WFYn3N6RKsXcpxS2Hcl1Vt1rAcRfGb3Kej6OOEzI0S1s9J1qoutU51UhSbk+dFeiX4n1Jl7EPq/R/ZyxWk+h8sprdOrEldFHBO/nPGXjdqKip2HD7maucW9nUdvGJp8UWSotKbrlPkqt/aoYpFj2xqsXeoW50WrZiOYYX8Sqwp7Or4H0Lpw0GOylPhtFTJtuRkW1VW5drmwcXxVu9qoq9p4HP6Q3alKoy89juw+Irm+7Z8jhr3d3KYp8DPdyymaUc3YlJbR1SLS0j0kwrsM17MWNE/duOcZRcOFV50XjL7V2r3nslnJnwtselndXY96RuYm/xolPKqi3gzzzWDgYcWHh7rtnyPZyrw5c3UaP6IzXJrzh0Uu1Est7dqr8bzjXYnon3+UdKjsaL7EiVE+FxcyFT5PKNt7r+9Svn3uUTbjm+7uQ2cl/YaiVWuVJ/VP9npzqv+zjKvcccsSRKt3Uty+1Ni/E9p0dzGq9GVdc/vMKp3p8iu0A6NJG3MdXk5n6SwixMe1fG+ZwnPy1zedWd+n/ANtz/Fc3sO9ldFNrLYTizVMolRqsi7dhw77kuX4opmouiS1dRt89Z12RxIpS91J/8wl3GSHtRUPStHFv9JNjJuGuQ2UnXLNU9yNh6Nqcw4YooYlh4yQ9V6pf2me9i+90WWvxbjP5qmkp7x2bFVGWaXJrd/7n2jJwUdIF3lrI1HF6z6Rrn8oLVtG1KgerVgHH0fTjYjtQ8ZYV2w3+TX+rd1nKSv8AK1UmSYhZg0d+LCqr6R3rf+Z+s9WO24iofoe5rj8PD6lwULd4H9Eqiec1jQ3XrP1J6QnJRyQmWbuPLu86C9EiS/2oqL2n03bL+VOk7TUWbl5KwvIZlYbsbWH1f6k+U6jwhZ+1c89Vag3hMTEV/ExMS67xedcl+W49ETcW4zljM/JlsNVJdcPcSlAqcumHuM6aZJHVTer+n296lLHpkf4y8pp2O9/Wc37vhcW3Kc8fa4gsm7MQo490q5lpJ6Op+Yl4HGadjtLfc5v2nNU7SjyiYxNUZl7UNPc/QGZSFlnAagVbm9228zyc52YuqoWgS2NfSCKSsvOvy0fMca5q7blu7bzoo+CdpKhiuZsjUcLqL7RT/KFzllYJWlsWC8JJ2K+GJ7XGBiXqqp4mFFdciome26/rPoPR3w4KhXLV1GSrVgfA6nU1lHJyc1piYaxQJHDDxsHbekSL2nOc/wCHrx366jw+X04KGk+7+iNRFXgo6QL/AC1kaji9Z9O2O/lEqZW5iOFbIcVMZyCFdYc6FI4kSLmpmiIuXWeirwyqY8nHSl3KqfQln9sH+WueefWebb1Paj4fQ06M93nHB8JVLge27mGMTwSqO0zUbgS6SpimtOMUJxhpeNc27zk8Zcz7IqXDZpsrOuNLZLbDd+UPqT6k7jrrBcJal27Zci5JyHCRV5PiYnE2+t1359p546/GYuln6fvv9r4ZmeBTpPkJKF7VG/vKJeDLpPZVYPBedfu/GNc1fYfpI5p7paSEP1LEnuVSmXhGtMLxGadjtpk5vOE/U8YmqdI6ecYqY8vz3g4K2k+YhRzwRqO0zt8FDSfxE/BGon325wkk46+aP+c4n7vUa8fCkSXiVvwZV67+ulQTadY+o4THwv28enwlBwUNJ/FT8EaiN/NQ0n//AEjUT7oXhWXL/RRf+IIbTPCskMJMaiYDvW3y9Nh2j6jo/MufZj0+Df5qOkD8dZGo4vWY4+B7buZiVzwRqPjH3bMcL1ph6JtmzCvtpk5rBNuw26Vwpkq7qQ6jVhV/F4mJd/i6yfqPT/3OfZj0/PGd4G+krlMeDZKo4Wy73FxTOBJpPmJFpzUTjF9/k3ZzDiTaucPUfoLOaeuJMRJqnd/bMPq9XqMtN01SEw/iPM4Dq5t4mJd/i6zn+p6PadvF+fU9wO9J9HlUi8F2H7vxjLmI+vti6/8A+XFD/Nr0nxbfBGp/48z9OKjp2pcuxh6ux7k6Tec/93xr8TSPJdRr7/CfMQ5TljHin52t8FbSfMQI54I1HabDfBR0gcRMayNRxes/QaPhH8niVvVORKcJWQu8vSfK9Zr7/H0zyx9Pz8TgoaSrvI2RqOF1ELwUNJ9/9Eaiffj3Coal3FbYsyr7SZOcsw7/APD1BJcKTl80rOo8D7PExLv8XWT9R0fmW44z+HwF/NR0gfjrI1HF6zVe4Htu5h2JzwRqO0/R9zT3xYlTVA0GnzxU80j9T0e1/p9PxOrjMnL1aZbkPoiReJ7tvxvCW6CHt7zYqMu7Kzrrb3Sot69qX/My0SUYqFXlmZ36NxkPocn5CyTEvyeQhmvWv+C3FU3McqgR31vlsPTtMMjJ01mz0tT/AKJBAvE7YlVfiqnA06mcomFc3qZ7lfgbdEslP2jWFxnomdqe89tsi9OUmz0pFO/RoeOnujU4ecn/AAFsZLQfpxI/3Ylg/wC08+ZquE2kG5V7zy7se7FNW9TtxYxLcVuUn6Mzy+F+JEfg/MJDdDf8L+09B4mkLR7HR6bZasTuoJe5VwnMCFOMvGjRF/GeNFFs7Dx6xdrJ+XibbZfx2kvuld23559p9R8HqydY0h2oR6akcahttqszKcsw+SRJlMcXquPFsx7WMRd04bdnOONPSaJbyWtLBJ0mfel35x9hYXHJtvDdVVvzT59aXL1nzhpd0RVGx0444zTm36SjixtuNc1b140V3aqmhp/pa2Ut3VpVZzASYmWooZnExOVQwtwIi8br2Ih7fZfSOzpC0Zu0qoSPIGqc3CxLPYuJeqpeq4fVtVTnp/o/r9vkTFTT57sBPQylt5KYgpHi8Xu2HSV+keHtvZqPBwMKFFw93iIb9r9CtVsCxFOLWONeiOouFhbIk4yeL1bF+ZymjybdnrZwPvPY7sUKorm+7Z8j3c78lOWdktXPOy35tyJPipjlfpq9ncdRbKiX1ObnfXj7ku+RyMlFxptV+s9ePGo8tPYrI2ukJazk9TnmMB1uQdvmt98cS/O7sOd0bTjU7XJFhmV1g3el0z6//wAZdhbWQsNPwSMvWZ55qn0WfvSByc5r6QxLBEjf13wqntRT3ixNrdH2jynUym1Bl2XbVYuTtvc6+KNYlX2KqqqfUqHzM9tZTDPJ9BaN5fktm2msHA4ra+T3XqqnHWr0YM1S0LNpqhNuTDTcKwy0vM/QpdclVz61VFVPadaukGkWbsnOVdromWlch9l15+d+mfhjWmtxaWZ1HHyOlRuJDHL4vH5eiIkKrh9VyoqfXceTX0+W/KZjKnq0xlrnlbouFLZeQpkg4w/bmkVGrQxLG5QGemdSLxoOxIVhu+q48esbwe5m2tgZSs2erEpVa4k1Es3Q3+fJpDEqQ3+2FIYvYqHI6QavBWpqCeagw4XeLfBhYXFVERFTi9W1F9uZvaN7ayNgazMVh/WOI2iQLq764U5/1H3cNG3DCMYi3042ZSpano6rchC9KzNMgjfmXXFiib5t8MSps9xzsUu7LKr7zWA4niK3u4vi/I9trVsZqupHHJXcmd8eDt2r233lbZ6q1KytqKRVoZXlzcHGgmGfqWJfkduUxFS4zvyiXG2ZmOVMNO+tf8FVC4q9mdYNrMeuncl3yO2thRpFy0c5UadJaulH1hchlvUVYE43vivXtKVYuMt5ObhPUZW5GlWY5A4j31l9PU7lUqjvrJ3bDK90sQ7fMQvyz3MpUtmrNcktHL1T8zGkXuPTNKum/llMilvz8ELfuhSH5Hn8108XZ3GhXPRadpicbny7Rtypm0U2o8Fqg+1+f+e35n0vYd3Gpcs56yxL+8p8hWblNYVCUZ/+75n2Ro0pPgVT5Of/ALyip7lVPkfL6yq8y/d/TdnUcMa+KX71B1w4sO+7uOqsZQvB2NuD1FVfet/zHdqGso1b3oi+9C2olnJ+VWGZZ6Jdqe8/IZZ5RlNS/URv2RHl2sxMcqkIHfWTuW41JWmcoYhc3395YyMTsUo2r3S7b/eQ7UpCXcVt7pUzPHM5X8uM74vzioKxZ7Ahimt/y2HD1iLjQxKemOzzU+4rLPRdRy1pKJxXnU9nch3icq+XlnzNuGluhh7e81U9JudnchdzVO5RJpK+rf8AFbyokaD4PTSzf13nrjHCYi4cZx8rFZTl64JdUOR1ZxJb1L/jt+ZMtUNaMQzXr7Pds+RbSf0eDt7zExr9OUw6KS+it/8AvWZ9Wco8pvIpPo9rt71NiPnKZ4YenjyyqZas7RvvRO056Od1fEsv6nz2/M6NznqVc59Ij7O4vmPiXjy+VHMPcoeic3lfMdNEXEz08XZ3FfMUTy0U76/y2fI3HL258mqlM5QmJvMsjI6vmleLOTi40vAvt7zJK/TV7O4ccJ+Ya7tfhdyUxyqVgd9a/wCC3GVcxJP6YvZ3G/M9NF2dxnjh6dIzf//Z;" vertex="1" parent="1">
          <mxGeometry x="35" y="480" width="400" height="400" as="geometry" />
        </mxCell>
      </root>
    </mxGraphModel>
  </diagram>
</mxfile>
